<ttFont>
<head>
    <!-- Most of this table will be recalculated by the compiler -->
    <tableVersion value="1.0"/>
    <fontRevision value="1.0"/>
    <checkSumAdjustment value="0x26cba953"/>
    <magicNumber value="0x5f0f3cf5"/>
    <flags value="00100000 00011111"/>
    <unitsPerEm value="2048"/>
    <created value="Wed Apr 13 21:39:01 2011"/>
    <modified value="Wed Apr 13 21:39:01 2011"/>
    <xMin value="-80"/>
    <yMin value="-527"/>
    <xMax value="2009"/>
    <yMax value="1883"/>
    <macStyle value="00000000 00000000"/>
    <lowestRecPPEM value="8"/>
    <fontDirectionHint value="2"/>
    <indexToLocFormat value="0"/>
    <glyphDataFormat value="0"/>
  </head>
    <TTGlyph name="A" xMin="-80" yMin="-169" xMax="795" yMax="1327">
      <contour>
        <pt x="512" y="149" on="1"/>
        <pt x="507" y="202" on="0"/>
        <pt x="498" y="306" on="0"/>
        <pt x="493" y="360" on="1"/>
        <pt x="471" y="362" on="0"/>
        <pt x="417" y="366" on="0"/>
        <pt x="381" y="370" on="1"/>
        <pt x="349" y="373" on="0"/>
        <pt x="298" y="378" on="0"/>
        <pt x="278" y="381" on="1"/>
        <pt x="275" y="353" on="0"/>
        <pt x="268" y="285" on="0"/>
        <pt x="260" y="210" on="0"/>
        <pt x="250" y="132" on="0"/>
        <pt x="243" y="94" on="1"/>
        <pt x="238" y="63" on="0"/>
        <pt x="227" y="-1" on="0"/>
        <pt x="209" y="-60" on="0"/>
        <pt x="179" y="-111" on="0"/>
        <pt x="129" y="-148" on="0"/>
        <pt x="54" y="-170" on="0"/>
        <pt x="0" y="-169" on="1"/>
        <pt x="-80" y="-40" on="1"/>
        <pt x="-77" y="-37" on="1"/>
        <pt x="-40" y="-54" on="0"/>
        <pt x="-9" y="-54" on="1"/>
        <pt x="32" y="-54" on="0"/>
        <pt x="81" y="26" on="0"/>
        <pt x="94" y="100" on="1"/>
        <pt x="108" y="161" on="0"/>
        <pt x="132" y="323" on="0"/>
        <pt x="152" y="495" on="0"/>
        <pt x="168" y="659" on="0"/>
        <pt x="175" y="721" on="1"/>
        <pt x="187" y="837" on="0"/>
        <pt x="210" y="1068" on="0"/>
        <pt x="216" y="1194" on="1"/>
        <pt x="219" y="1236" on="0"/>
        <pt x="188" y="1300" on="0"/>
        <pt x="152" y="1316" on="1"/>
        <pt x="137" y="1322" on="1"/>
        <pt x="136" y="1327" on="1"/>
        <pt x="631" y="1327" on="1"/>
        <pt x="630" y="1322" on="1"/>
        <pt x="614" y="1316" on="1"/>
        <pt x="578" y="1300" on="0"/>
        <pt x="547" y="1236" on="0"/>
        <pt x="551" y="1194" on="1"/>
        <pt x="557" y="1068" on="0"/>
        <pt x="581" y="838" on="0"/>
        <pt x="595" y="721" on="1"/>
        <pt x="611" y="590" on="0"/>
        <pt x="643" y="314" on="0"/>
        <pt x="670" y="153" on="1"/>
        <pt x="683" y="100" on="0"/>
        <pt x="740" y="22" on="0"/>
        <pt x="794" y="5" on="1"/>
        <pt x="795" y="0" on="1"/>
        <pt x="435" y="0" on="1"/>
        <pt x="434" y="5" on="1"/>
        <pt x="482" y="22" on="0"/>
        <pt x="517" y="95" on="0"/>
      </contour>
      <contour>
        <pt x="382" y="447" on="1"/>
        <pt x="412" y="447" on="0"/>
        <pt x="463" y="448" on="0"/>
        <pt x="484" y="449" on="1"/>
        <pt x="463" y="684" on="1"/>
        <pt x="461" y="703" on="0"/>
        <pt x="454" y="769" on="0"/>
        <pt x="446" y="852" on="0"/>
        <pt x="437" y="946" on="0"/>
        <pt x="433" y="993" on="1"/>
        <pt x="422" y="1101" on="0"/>
        <pt x="411" y="1228" on="1"/>
        <pt x="363" y="1229" on="1"/>
        <pt x="351" y="1107" on="0"/>
        <pt x="340" y="1000" on="1"/>
        <pt x="335" y="954" on="0"/>
        <pt x="326" y="860" on="0"/>
        <pt x="317" y="776" on="0"/>
        <pt x="310" y="706" on="0"/>
        <pt x="308" y="684" on="1"/>
        <pt x="301" y="613" on="0"/>
        <pt x="292" y="499" on="0"/>
        <pt x="286" y="447" on="1"/>
      </contour>
    </TTGlyph>
    <TTGlyph name="A.alt" xMin="-24" yMin="0" xMax="798" yMax="1327">
      <contour>
        <pt x="155" y="1327" on="1"/>
        <pt x="619" y="1327" on="1"/>
        <pt x="618" y="1322" on="1"/>
        <pt x="602" y="1316" on="1"/>
        <pt x="566" y="1300" on="0"/>
        <pt x="535" y="1236" on="0"/>
        <pt x="539" y="1194" on="1"/>
        <pt x="547" y="1068" on="0"/>
        <pt x="571" y="838" on="0"/>
        <pt x="587" y="721" on="1"/>
        <pt x="604" y="590" on="0"/>
        <pt x="646" y="314" on="0"/>
        <pt x="673" y="153" on="1"/>
        <pt x="686" y="100" on="0"/>
        <pt x="743" y="22" on="0"/>
        <pt x="797" y="5" on="1"/>
        <pt x="798" y="0" on="1"/>
        <pt x="438" y="0" on="1"/>
        <pt x="437" y="5" on="1"/>
        <pt x="485" y="22" on="0"/>
        <pt x="520" y="95" on="0"/>
        <pt x="515" y="149" on="1"/>
        <pt x="510" y="202" on="0"/>
        <pt x="501" y="306" on="0"/>
        <pt x="496" y="360" on="1"/>
        <pt x="474" y="362" on="0"/>
        <pt x="420" y="366" on="0"/>
        <pt x="384" y="370" on="1"/>
        <pt x="352" y="373" on="0"/>
        <pt x="300" y="378" on="0"/>
        <pt x="280" y="381" on="1"/>
        <pt x="274" y="322" on="0"/>
        <pt x="264" y="206" on="0"/>
        <pt x="259" y="149" on="1"/>
        <pt x="254" y="95" on="0"/>
        <pt x="289" y="22" on="0"/>
        <pt x="337" y="5" on="1"/>
        <pt x="336" y="0" on="1"/>
        <pt x="-24" y="0" on="1"/>
        <pt x="-23" y="5" on="1"/>
        <pt x="31" y="22" on="0"/>
        <pt x="88" y="100" on="0"/>
        <pt x="101" y="153" on="1"/>
        <pt x="128" y="314" on="0"/>
        <pt x="170" y="590" on="0"/>
        <pt x="187" y="721" on="1"/>
        <pt x="202" y="838" on="0"/>
        <pt x="227" y="1068" on="0"/>
        <pt x="235" y="1194" on="1"/>
        <pt x="238" y="1236" on="0"/>
        <pt x="207" y="1300" on="0"/>
        <pt x="171" y="1316" on="1"/>
        <pt x="156" y="1322" on="1"/>
      </contour>
      <contour>
        <pt x="385" y="447" on="1"/>
        <pt x="415" y="447" on="0"/>
        <pt x="466" y="448" on="0"/>
        <pt x="487" y="449" on="1"/>
        <pt x="460" y="684" on="1"/>
        <pt x="458" y="703" on="0"/>
        <pt x="452" y="769" on="0"/>
        <pt x="445" y="852" on="0"/>
        <pt x="438" y="946" on="0"/>
        <pt x="434" y="993" on="1"/>
        <pt x="425" y="1101" on="0"/>
        <pt x="414" y="1228" on="1"/>
        <pt x="366" y="1229" on="1"/>
        <pt x="356" y="1105" on="0"/>
        <pt x="346" y="998" on="1"/>
        <pt x="342" y="952" on="0"/>
        <pt x="333" y="858" on="0"/>
        <pt x="324" y="774" on="0"/>
        <pt x="317" y="705" on="0"/>
        <pt x="314" y="684" on="1"/>
        <pt x="287" y="447" on="1"/>
      </contour>
    </TTGlyph>
    <TTGlyph name="AE" xMin="-29" yMin="-170" xMax="1046" yMax="1327">
      <contour>
        <pt x="875" y="1113" on="1"/>
        <pt x="872" y="1148" on="0"/>
        <pt x="841" y="1204" on="0"/>
        <pt x="810" y="1218" on="1"/>
        <pt x="765" y="1238" on="0"/>
        <pt x="669" y="1251" on="0"/>
        <pt x="612" y="1253" on="1"/>
        <pt x="620" y="1129" on="0"/>
        <pt x="641" y="886" on="0"/>
        <pt x="654" y="765" on="1"/>
        <pt x="687" y="765" on="0"/>
        <pt x="748" y="765" on="0"/>
        <pt x="775" y="768" on="1"/>
        <pt x="826" y="773" on="0"/>
        <pt x="876" y="825" on="0"/>
        <pt x="880" y="863" on="1"/>
        <pt x="883" y="864" on="1"/>
        <pt x="914" y="588" on="1"/>
        <pt x="909" y="588" on="1"/>
        <pt x="896" y="626" on="0"/>
        <pt x="834" y="679" on="0"/>
        <pt x="782" y="684" on="1"/>
        <pt x="756" y="687" on="0"/>
        <pt x="698" y="687" on="0"/>
        <pt x="663" y="688" on="1"/>
        <pt x="680" y="536" on="0"/>
        <pt x="719" y="242" on="0"/>
        <pt x="741" y="96" on="1"/>
        <pt x="758" y="99" on="0"/>
        <pt x="809" y="104" on="0"/>
        <pt x="864" y="112" on="0"/>
        <pt x="919" y="125" on="0"/>
        <pt x="962" y="148" on="0"/>
        <pt x="986" y="182" on="0"/>
        <pt x="984" y="208" on="1"/>
        <pt x="988" y="209" on="1"/>
        <pt x="1002" y="161" on="0"/>
        <pt x="1023" y="83" on="0"/>
        <pt x="1031" y="56" on="1"/>
        <pt x="1040" y="24" on="0"/>
        <pt x="1046" y="0" on="1"/>
        <pt x="490" y="0" on="1"/>
        <pt x="489" y="5" on="1"/>
        <pt x="537" y="22" on="0"/>
        <pt x="572" y="95" on="0"/>
        <pt x="567" y="149" on="1"/>
        <pt x="562" y="202" on="0"/>
        <pt x="553" y="306" on="0"/>
        <pt x="548" y="360" on="1"/>
        <pt x="526" y="362" on="0"/>
        <pt x="472" y="366" on="0"/>
        <pt x="436" y="370" on="1"/>
        <pt x="404" y="373" on="0"/>
        <pt x="353" y="378" on="0"/>
        <pt x="333" y="381" on="1"/>
        <pt x="326" y="325" on="0"/>
        <pt x="309" y="209" on="0"/>
        <pt x="298" y="133" on="1"/>
        <pt x="290" y="79" on="0"/>
        <pt x="261" y="-16" on="0"/>
        <pt x="213" y="-93" on="0"/>
        <pt x="142" y="-151" on="0"/>
        <pt x="93" y="-170" on="1"/>
        <pt x="-29" y="37" on="1"/>
        <pt x="-22" y="42" on="1"/>
        <pt x="15" y="25" on="0"/>
        <pt x="46" y="25" on="1"/>
        <pt x="87" y="25" on="0"/>
        <pt x="136" y="83" on="0"/>
        <pt x="149" y="139" on="1"/>
        <pt x="163" y="200" on="0"/>
        <pt x="187" y="350" on="0"/>
        <pt x="207" y="507" on="0"/>
        <pt x="223" y="659" on="0"/>
        <pt x="230" y="721" on="1"/>
        <pt x="242" y="837" on="0"/>
        <pt x="265" y="1068" on="0"/>
        <pt x="271" y="1194" on="1"/>
        <pt x="274" y="1236" on="0"/>
        <pt x="243" y="1300" on="0"/>
        <pt x="207" y="1316" on="1"/>
        <pt x="192" y="1322" on="1"/>
        <pt x="191" y="1327" on="1"/>
        <pt x="903" y="1327" on="1"/>
        <pt x="901" y="1307" on="0"/>
        <pt x="897" y="1276" on="1"/>
        <pt x="894" y="1250" on="0"/>
        <pt x="885" y="1170" on="0"/>
        <pt x="879" y="1113" on="1"/>
      </contour>
      <contour>
        <pt x="437" y="447" on="1"/>
        <pt x="467" y="447" on="0"/>
        <pt x="518" y="448" on="0"/>
        <pt x="539" y="449" on="1"/>
        <pt x="518" y="684" on="1"/>
        <pt x="516" y="703" on="0"/>
        <pt x="510" y="769" on="0"/>
        <pt x="502" y="852" on="0"/>
        <pt x="493" y="946" on="0"/>
        <pt x="489" y="993" on="1"/>
        <pt x="478" y="1101" on="0"/>
        <pt x="466" y="1228" on="1"/>
        <pt x="418" y="1229" on="1"/>
        <pt x="406" y="1107" on="0"/>
        <pt x="395" y="1000" on="1"/>
        <pt x="390" y="954" on="0"/>
        <pt x="381" y="860" on="0"/>
        <pt x="372" y="776" on="0"/>
        <pt x="365" y="706" on="0"/>
        <pt x="363" y="684" on="1"/>
        <pt x="356" y="613" on="0"/>
        <pt x="347" y="499" on="0"/>
        <pt x="341" y="447" on="1"/>
      </contour>
    </TTGlyph>
    <TTGlyph name="Aacute" xMin="-80" yMin="-169" xMax="795" yMax="1802">
      <component glyphName="A" x="0" y="0" flags="0x1204"/>
      <component glyphName="acute" x="197" y="364" flags="0x1004"/>
    </TTGlyph>
    <TTGlyph name="Acircumflex" xMin="-80" yMin="-169" xMax="795" yMax="1766">
      <component glyphName="A" x="0" y="0" flags="0x1204"/>
      <component glyphName="circumflex" x="112" y="364" flags="0x1004"/>
    </TTGlyph>
    <TTGlyph name="Adieresis" xMin="-80" yMin="-169" xMax="795" yMax="1664">
      <component glyphName="A" x="0" y="0" flags="0x1204"/>
      <component glyphName="dieresis" x="33" y="364" flags="0x1004"/>
    </TTGlyph>
    <TTGlyph name="Agrave" xMin="-80" yMin="-169" xMax="795" yMax="1802">
      <component glyphName="A" x="0" y="0" flags="0x1204"/>
      <component glyphName="grave" x="231" y="364" flags="0x1004"/>
    </TTGlyph>
    <TTGlyph name="Aring" xMin="-80" yMin="-169" xMax="795" yMax="1883">
      <component glyphName="A" x="0" y="0" flags="0x1204"/>
      <component glyphName="ring" x="90" y="364" flags="0x1004"/>
    </TTGlyph>
    <TTGlyph name="Atilde" xMin="-80" yMin="-169" xMax="795" yMax="1653">
      <component glyphName="A" x="0" y="0" flags="0x1204"/>
      <component glyphName="tilde" x="39" y="364" flags="0x1004"/>
    </TTGlyph>
    <TTGlyph name="B" xMin="55" yMin="0" xMax="712" yMax="1326">
      <contour>
        <pt x="160" y="461" on="1"/>
        <pt x="160" y="489" on="0"/>
        <pt x="161" y="563" on="0"/>
        <pt x="162" y="640" on="0"/>
        <pt x="163" y="714" on="0"/>
        <pt x="163" y="743" on="1"/>
        <pt x="163" y="764" on="0"/>
        <pt x="162" y="819" on="0"/>
        <pt x="161" y="876" on="0"/>
        <pt x="160" y="931" on="0"/>
        <pt x="160" y="953" on="1"/>
        <pt x="160" y="995" on="0"/>
        <pt x="159" y="1106" on="0"/>
        <pt x="141" y="1212" on="0"/>
        <pt x="98" y="1301" on="0"/>
        <pt x="55" y="1321" on="1"/>
        <pt x="55" y="1326" on="1"/>
        <pt x="337" y="1326" on="1"/>
        <pt x="392" y="1326" on="0"/>
        <pt x="492" y="1288" on="0"/>
        <pt x="567" y="1214" on="0"/>
        <pt x="612" y="1105" on="0"/>
        <pt x="612" y="1035" on="1"/>
        <pt x="612" y="959" on="0"/>
        <pt x="541" y="844" on="0"/>
        <pt x="481" y="809" on="1"/>
        <pt x="533" y="783" on="0"/>
        <pt x="618" y="706" on="0"/>
        <pt x="679" y="606" on="0"/>
        <pt x="712" y="482" on="0"/>
        <pt x="712" y="409" on="1"/>
        <pt x="712" y="312" on="0"/>
        <pt x="650" y="160" on="0"/>
        <pt x="547" y="55" on="0"/>
        <pt x="411" y="0" on="0"/>
        <pt x="337" y="0" on="1"/>
        <pt x="55" y="0" on="1"/>
        <pt x="55" y="5" on="1"/>
        <pt x="101" y="22" on="0"/>
        <pt x="141" y="100" on="0"/>
        <pt x="144" y="153" on="1"/>
        <pt x="152" y="237" on="0"/>
        <pt x="160" y="389" on="0"/>
      </contour>
      <contour>
        <pt x="313" y="110" on="1"/>
        <pt x="379" y="110" on="0"/>
        <pt x="474" y="163" on="0"/>
        <pt x="535" y="248" on="0"/>
        <pt x="563" y="354" on="0"/>
        <pt x="563" y="406" on="1"/>
        <pt x="563" y="464" on="0"/>
        <pt x="531" y="582" on="0"/>
        <pt x="466" y="676" on="0"/>
        <pt x="369" y="736" on="0"/>
        <pt x="304" y="736" on="1"/>
        <pt x="304" y="424" on="1"/>
        <pt x="304" y="347" on="0"/>
        <pt x="313" y="194" on="0"/>
      </contour>
      <contour>
        <pt x="308" y="1216" on="1"/>
        <pt x="303" y="1173" on="0"/>
        <pt x="298" y="1077" on="0"/>
        <pt x="298" y="981" on="0"/>
        <pt x="299" y="888" on="0"/>
        <pt x="300" y="848" on="1"/>
        <pt x="344" y="848" on="0"/>
        <pt x="406" y="883" on="0"/>
        <pt x="445" y="938" on="0"/>
        <pt x="463" y="1006" on="0"/>
        <pt x="463" y="1038" on="1"/>
        <pt x="463" y="1068" on="0"/>
        <pt x="445" y="1131" on="0"/>
        <pt x="407" y="1183" on="0"/>
        <pt x="348" y="1216" on="0"/>
      </contour>
    </TTGlyph>
    <TTGlyph name="C" xMin="66" yMin="-18" xMax="808" yMax="1317">
      <contour>
        <pt x="716" y="385" on="1"/>
        <pt x="808" y="191" on="1"/>
        <pt x="748" y="88" on="0"/>
        <pt x="569" y="-18" on="0"/>
        <pt x="469" y="-18" on="1"/>
        <pt x="382" y="-18" on="0"/>
        <pt x="235" y="73" on="0"/>
        <pt x="127" y="244" on="0"/>
        <pt x="66" y="492" on="0"/>
        <pt x="66" y="649" on="1"/>
        <pt x="66" y="809" on="0"/>
        <pt x="135" y="1058" on="0"/>
        <pt x="257" y="1228" on="0"/>
        <pt x="423" y="1317" on="0"/>
        <pt x="519" y="1317" on="1"/>
        <pt x="578" y="1317" on="0"/>
        <pt x="682" y="1271" on="0"/>
        <pt x="760" y="1201" on="0"/>
        <pt x="806" y="1115" on="0"/>
        <pt x="806" y="1076" on="1"/>
        <pt x="806" y="1025" on="0"/>
        <pt x="766" y="992" on="1"/>
        <pt x="637" y="906" on="1"/>
        <pt x="634" y="911" on="1"/>
        <pt x="658" y="934" on="0"/>
        <pt x="680" y="992" on="0"/>
        <pt x="680" y="1022" on="1"/>
        <pt x="680" y="1056" on="0"/>
        <pt x="654" y="1122" on="0"/>
        <pt x="609" y="1175" on="0"/>
        <pt x="545" y="1207" on="0"/>
        <pt x="508" y="1207" on="1"/>
        <pt x="461" y="1207" on="0"/>
        <pt x="381" y="1162" on="0"/>
        <pt x="318" y="1082" on="0"/>
        <pt x="270" y="974" on="0"/>
        <pt x="238" y="848" on="0"/>
        <pt x="222" y="708" on="0"/>
        <pt x="222" y="638" on="1"/>
        <pt x="222" y="534" on="0"/>
        <pt x="251" y="338" on="0"/>
        <pt x="310" y="184" on="0"/>
        <pt x="398" y="91" on="0"/>
        <pt x="458" y="91" on="1"/>
        <pt x="507" y="91" on="0"/>
        <pt x="589" y="137" on="0"/>
        <pt x="654" y="216" on="0"/>
        <pt x="699" y="323" on="0"/>
        <pt x="713" y="385" on="1"/>
      </contour>
    </TTGlyph>
    <TTGlyph name="Ccedilla" xMin="68" yMin="-372" xMax="810" yMax="1317">
      <component glyphName="C" x="2" y="0" flags="0x1004"/>
      <component glyphName="cedilla" x="212" y="0" flags="0x1004"/>
    </TTGlyph>
    <TTGlyph name="D" xMin="48" yMin="0" xMax="759" yMax="1327">
      <contour>
        <pt x="423" y="1327" on="1"/>
        <pt x="492" y="1327" on="0"/>
        <pt x="614" y="1256" on="0"/>
        <pt x="706" y="1117" on="0"/>
        <pt x="759" y="912" on="0"/>
        <pt x="759" y="779" on="1"/>
        <pt x="759" y="599" on="0"/>
        <pt x="687" y="310" on="0"/>
        <pt x="568" y="108" on="0"/>
        <pt x="413" y="0" on="0"/>
        <pt x="330" y="0" on="1"/>
        <pt x="48" y="0" on="1"/>
        <pt x="48" y="5" on="1"/>
        <pt x="99" y="22" on="0"/>
        <pt x="144" y="100" on="0"/>
        <pt x="147" y="153" on="1"/>
        <pt x="155" y="314" on="0"/>
        <pt x="163" y="590" on="0"/>
        <pt x="163" y="721" on="1"/>
        <pt x="163" y="838" on="0"/>
        <pt x="159" y="1068" on="0"/>
        <pt x="148" y="1194" on="1"/>
        <pt x="143" y="1241" on="0"/>
        <pt x="94" y="1308" on="0"/>
        <pt x="48" y="1322" on="1"/>
        <pt x="48" y="1327" on="1"/>
      </contour>
      <contour>
        <pt x="306" y="110" on="1"/>
        <pt x="359" y="110" on="0"/>
        <pt x="445" y="164" on="0"/>
        <pt x="513" y="258" on="0"/>
        <pt x="562" y="385" on="0"/>
        <pt x="594" y="533" on="0"/>
        <pt x="610" y="695" on="0"/>
        <pt x="610" y="776" on="1"/>
        <pt x="610" y="855" on="0"/>
        <pt x="585" y="1012" on="0"/>
        <pt x="534" y="1138" on="0"/>
        <pt x="454" y="1216" on="0"/>
        <pt x="400" y="1216" on="1"/>
        <pt x="306" y="1217" on="1"/>
        <pt x="303" y="1122" on="0"/>
        <pt x="301" y="1027" on="1"/>
        <pt x="300" y="986" on="0"/>
        <pt x="299" y="898" on="0"/>
        <pt x="298" y="808" on="0"/>
        <pt x="297" y="722" on="0"/>
        <pt x="297" y="684" on="1"/>
        <pt x="297" y="548" on="0"/>
        <pt x="306" y="282" on="0"/>
        <pt x="306" y="149" on="1"/>
      </contour>
    </TTGlyph>
    <TTGlyph name="E" xMin="41" yMin="0" xMax="612" yMax="1327">
      <contour>
        <pt x="313" y="74" on="1"/>
        <pt x="370" y="76" on="0"/>
        <pt x="465" y="89" on="0"/>
        <pt x="507" y="109" on="1"/>
        <pt x="536" y="123" on="0"/>
        <pt x="563" y="180" on="0"/>
        <pt x="561" y="215" on="1"/>
        <pt x="564" y="215" on="1"/>
        <pt x="577" y="158" on="0"/>
        <pt x="595" y="77" on="0"/>
        <pt x="601" y="51" on="1"/>
        <pt x="608" y="20" on="0"/>
        <pt x="612" y="0" on="1"/>
        <pt x="41" y="0" on="1"/>
        <pt x="41" y="5" on="1"/>
        <pt x="92" y="22" on="0"/>
        <pt x="146" y="99" on="0"/>
        <pt x="151" y="153" on="1"/>
        <pt x="161" y="309" on="0"/>
        <pt x="166" y="594" on="0"/>
        <pt x="166" y="721" on="1"/>
        <pt x="166" y="833" on="0"/>
        <pt x="163" y="1054" on="0"/>
        <pt x="151" y="1174" on="1"/>
        <pt x="146" y="1228" on="0"/>
        <pt x="92" y="1305" on="0"/>
        <pt x="41" y="1322" on="1"/>
        <pt x="41" y="1327" on="1"/>
        <pt x="612" y="1327" on="1"/>
        <pt x="608" y="1307" on="0"/>
        <pt x="601" y="1276" on="1"/>
        <pt x="595" y="1250" on="0"/>
        <pt x="577" y="1169" on="0"/>
        <pt x="564" y="1112" on="1"/>
        <pt x="561" y="1112" on="1"/>
        <pt x="563" y="1147" on="0"/>
        <pt x="536" y="1204" on="0"/>
        <pt x="507" y="1218" on="1"/>
        <pt x="465" y="1238" on="0"/>
        <pt x="370" y="1251" on="0"/>
        <pt x="313" y="1253" on="1"/>
        <pt x="307" y="1129" on="0"/>
        <pt x="301" y="886" on="0"/>
        <pt x="300" y="765" on="1"/>
        <pt x="333" y="765" on="0"/>
        <pt x="394" y="765" on="0"/>
        <pt x="421" y="768" on="1"/>
        <pt x="473" y="773" on="0"/>
        <pt x="529" y="825" on="0"/>
        <pt x="537" y="863" on="1"/>
        <pt x="540" y="863" on="1"/>
        <pt x="540" y="589" on="1"/>
        <pt x="537" y="589" on="1"/>
        <pt x="529" y="627" on="0"/>
        <pt x="471" y="679" on="0"/>
        <pt x="419" y="684" on="1"/>
        <pt x="393" y="687" on="0"/>
        <pt x="335" y="687" on="0"/>
        <pt x="300" y="688" on="1"/>
        <pt x="300" y="684" on="1"/>
        <pt x="300" y="535" on="0"/>
        <pt x="307" y="220" on="0"/>
      </contour>
    </TTGlyph>
    <TTGlyph name="E.alt" xMin="42" yMin="0" xMax="613" yMax="1327">
      <contour>
        <pt x="583" y="136" on="1"/>
        <pt x="586" y="119" on="0"/>
        <pt x="594" y="72" on="0"/>
        <pt x="598" y="51" on="1"/>
        <pt x="602" y="26" on="0"/>
        <pt x="607" y="0" on="1"/>
        <pt x="42" y="0" on="1"/>
        <pt x="42" y="5" on="1"/>
        <pt x="99" y="24" on="0"/>
        <pt x="146" y="114" on="0"/>
        <pt x="151" y="177" on="1"/>
        <pt x="151" y="173" on="1"/>
        <pt x="158" y="328" on="0"/>
        <pt x="167" y="595" on="0"/>
        <pt x="167" y="721" on="1"/>
        <pt x="167" y="833" on="0"/>
        <pt x="160" y="1054" on="0"/>
        <pt x="152" y="1174" on="1"/>
        <pt x="144" y="1228" on="0"/>
        <pt x="93" y="1305" on="0"/>
        <pt x="42" y="1322" on="1"/>
        <pt x="42" y="1327" on="1"/>
        <pt x="613" y="1327" on="1"/>
        <pt x="607" y="1306" on="0"/>
        <pt x="603" y="1286" on="1"/>
        <pt x="598" y="1268" on="0"/>
        <pt x="590" y="1227" on="0"/>
        <pt x="585" y="1208" on="1"/>
        <pt x="586" y="1208" on="1"/>
        <pt x="578" y="1173" on="1"/>
        <pt x="560" y="1094" on="1"/>
        <pt x="565" y="1136" on="0"/>
        <pt x="540" y="1200" on="0"/>
        <pt x="508" y="1218" on="1"/>
        <pt x="498" y="1222" on="0"/>
        <pt x="479" y="1229" on="0"/>
        <pt x="468" y="1232" on="1"/>
        <pt x="474" y="1231" on="1"/>
        <pt x="464" y="1233" on="1"/>
        <pt x="468" y="1232" on="1"/>
        <pt x="427" y="1243" on="0"/>
        <pt x="346" y="1252" on="0"/>
        <pt x="314" y="1253" on="1"/>
        <pt x="308" y="1129" on="0"/>
        <pt x="302" y="886" on="0"/>
        <pt x="301" y="765" on="1"/>
        <pt x="334" y="765" on="0"/>
        <pt x="395" y="767" on="0"/>
        <pt x="422" y="768" on="1"/>
        <pt x="479" y="778" on="0"/>
        <pt x="537" y="837" on="0"/>
        <pt x="541" y="882" on="1"/>
        <pt x="541" y="570" on="1"/>
        <pt x="537" y="616" on="0"/>
        <pt x="478" y="675" on="0"/>
        <pt x="419" y="684" on="1"/>
        <pt x="420" y="684" on="1"/>
        <pt x="394" y="686" on="0"/>
        <pt x="336" y="687" on="0"/>
        <pt x="301" y="688" on="1"/>
        <pt x="301" y="684" on="1"/>
        <pt x="301" y="387" on="0"/>
        <pt x="313" y="96" on="1"/>
        <pt x="344" y="100" on="0"/>
        <pt x="427" y="110" on="0"/>
        <pt x="477" y="118" on="1"/>
        <pt x="464" y="118" on="1"/>
        <pt x="521" y="127" on="0"/>
        <pt x="571" y="186" on="0"/>
        <pt x="566" y="232" on="1"/>
      </contour>
    </TTGlyph>
    <TTGlyph name="Eacute" xMin="41" yMin="0" xMax="612" yMax="1802">
      <component glyphName="E" x="0" y="0" flags="0x1204"/>
      <component glyphName="acute" x="177" y="364" flags="0x1004"/>
    </TTGlyph>
    <TTGlyph name="Ecircumflex" xMin="41" yMin="0" xMax="612" yMax="1766">
      <component glyphName="E" x="0" y="0" flags="0x1204"/>
      <component glyphName="circumflex" x="92" y="364" flags="0x1004"/>
    </TTGlyph>
    <TTGlyph name="Edieresis" xMin="41" yMin="0" xMax="612" yMax="1664">
      <component glyphName="E" x="0" y="0" flags="0x1204"/>
      <component glyphName="dieresis" x="13" y="364" flags="0x1004"/>
    </TTGlyph>
    <TTGlyph name="Egrave" xMin="41" yMin="0" xMax="612" yMax="1802">
      <component glyphName="E" x="0" y="0" flags="0x1204"/>
      <component glyphName="grave" x="211" y="364" flags="0x1004"/>
    </TTGlyph>
    <TTGlyph name="Eth" xMin="32" yMin="0" xMax="747" yMax="1327">
      <contour>
        <pt x="411" y="1327" on="1"/>
        <pt x="480" y="1327" on="0"/>
        <pt x="603" y="1256" on="0"/>
        <pt x="694" y="1117" on="0"/>
        <pt x="747" y="912" on="0"/>
        <pt x="747" y="779" on="1"/>
        <pt x="747" y="599" on="0"/>
        <pt x="678" y="310" on="0"/>
        <pt x="563" y="108" on="0"/>
        <pt x="413" y="0" on="0"/>
        <pt x="332" y="0" on="1"/>
        <pt x="50" y="0" on="1"/>
        <pt x="50" y="5" on="1"/>
        <pt x="101" y="22" on="0"/>
        <pt x="146" y="100" on="0"/>
        <pt x="149" y="153" on="1"/>
        <pt x="156" y="290" on="0"/>
        <pt x="163" y="528" on="0"/>
        <pt x="165" y="640" on="1"/>
        <pt x="115" y="639" on="0"/>
        <pt x="51" y="631" on="0"/>
        <pt x="32" y="620" on="1"/>
        <pt x="32" y="793" on="1"/>
        <pt x="52" y="785" on="0"/>
        <pt x="117" y="772" on="0"/>
        <pt x="165" y="768" on="1"/>
        <pt x="165" y="873" on="0"/>
        <pt x="160" y="1081" on="0"/>
        <pt x="150" y="1194" on="1"/>
        <pt x="145" y="1241" on="0"/>
        <pt x="96" y="1308" on="0"/>
        <pt x="50" y="1322" on="1"/>
        <pt x="50" y="1327" on="1"/>
      </contour>
      <contour>
        <pt x="447" y="611" on="1"/>
        <pt x="424" y="622" on="0"/>
        <pt x="354" y="636" on="0"/>
        <pt x="299" y="639" on="1"/>
        <pt x="300" y="514" on="0"/>
        <pt x="308" y="270" on="0"/>
        <pt x="308" y="149" on="1"/>
        <pt x="308" y="110" on="1"/>
        <pt x="359" y="110" on="0"/>
        <pt x="442" y="164" on="0"/>
        <pt x="507" y="258" on="0"/>
        <pt x="553" y="385" on="0"/>
        <pt x="584" y="533" on="0"/>
        <pt x="598" y="695" on="0"/>
        <pt x="598" y="776" on="1"/>
        <pt x="598" y="855" on="0"/>
        <pt x="573" y="1012" on="0"/>
        <pt x="522" y="1138" on="0"/>
        <pt x="442" y="1216" on="0"/>
        <pt x="388" y="1216" on="1"/>
        <pt x="308" y="1217" on="1"/>
        <pt x="306" y="1143" on="0"/>
        <pt x="304" y="1066" on="1"/>
        <pt x="303" y="1033" on="0"/>
        <pt x="301" y="959" on="0"/>
        <pt x="300" y="881" on="0"/>
        <pt x="299" y="802" on="0"/>
        <pt x="299" y="765" on="1"/>
        <pt x="350" y="766" on="0"/>
        <pt x="422" y="776" on="0"/>
        <pt x="447" y="794" on="1"/>
      </contour>
    </TTGlyph>
    <TTGlyph name="Euro" xMin="42" yMin="-18" xMax="904" yMax="1317">
      <contour>
        <pt x="577" y="513" on="1"/>
        <pt x="539" y="525" on="0"/>
        <pt x="419" y="540" on="0"/>
        <pt x="321" y="542" on="1"/>
        <pt x="327" y="452" on="0"/>
        <pt x="362" y="289" on="0"/>
        <pt x="420" y="164" on="0"/>
        <pt x="501" y="91" on="0"/>
        <pt x="554" y="91" on="1"/>
        <pt x="604" y="91" on="0"/>
        <pt x="687" y="137" on="0"/>
        <pt x="751" y="217" on="0"/>
        <pt x="797" y="325" on="0"/>
        <pt x="811" y="387" on="1"/>
        <pt x="904" y="191" on="1"/>
        <pt x="844" y="88" on="0"/>
        <pt x="665" y="-18" on="0"/>
        <pt x="565" y="-18" on="1"/>
        <pt x="486" y="-18" on="0"/>
        <pt x="349" y="57" on="0"/>
        <pt x="244" y="200" on="0"/>
        <pt x="176" y="408" on="0"/>
        <pt x="166" y="541" on="1"/>
        <pt x="122" y="539" on="0"/>
        <pt x="62" y="531" on="0"/>
        <pt x="42" y="522" on="1"/>
        <pt x="42" y="665" on="1"/>
        <pt x="62" y="658" on="0"/>
        <pt x="121" y="647" on="0"/>
        <pt x="162" y="642" on="1"/>
        <pt x="162" y="649" on="1"/>
        <pt x="162" y="678" on="0"/>
        <pt x="164" y="733" on="0"/>
        <pt x="166" y="760" on="1"/>
        <pt x="122" y="758" on="0"/>
        <pt x="62" y="750" on="0"/>
        <pt x="42" y="741" on="1"/>
        <pt x="42" y="884" on="1"/>
        <pt x="65" y="876" on="0"/>
        <pt x="132" y="864" on="0"/>
        <pt x="180" y="860" on="1"/>
        <pt x="200" y="971" on="0"/>
        <pt x="282" y="1141" on="0"/>
        <pt x="395" y="1257" on="0"/>
        <pt x="536" y="1317" on="0"/>
        <pt x="615" y="1317" on="1"/>
        <pt x="674" y="1317" on="0"/>
        <pt x="778" y="1271" on="0"/>
        <pt x="856" y="1201" on="0"/>
        <pt x="902" y="1115" on="0"/>
        <pt x="902" y="1076" on="1"/>
        <pt x="902" y="1025" on="0"/>
        <pt x="862" y="992" on="1"/>
        <pt x="733" y="906" on="1"/>
        <pt x="730" y="911" on="1"/>
        <pt x="754" y="934" on="0"/>
        <pt x="776" y="992" on="0"/>
        <pt x="776" y="1022" on="1"/>
        <pt x="776" y="1056" on="0"/>
        <pt x="750" y="1122" on="0"/>
        <pt x="705" y="1175" on="0"/>
        <pt x="641" y="1207" on="0"/>
        <pt x="604" y="1207" on="1"/>
        <pt x="551" y="1207" on="0"/>
        <pt x="466" y="1152" on="0"/>
        <pt x="399" y="1057" on="0"/>
        <pt x="352" y="929" on="0"/>
        <pt x="338" y="856" on="1"/>
        <pt x="423" y="856" on="0"/>
        <pt x="539" y="865" on="0"/>
        <pt x="577" y="885" on="1"/>
        <pt x="577" y="732" on="1"/>
        <pt x="540" y="744" on="0"/>
        <pt x="420" y="759" on="0"/>
        <pt x="324" y="761" on="1"/>
        <pt x="318" y="699" on="0"/>
        <pt x="318" y="638" on="1"/>
        <pt x="318" y="637" on="1"/>
        <pt x="412" y="637" on="0"/>
        <pt x="536" y="645" on="0"/>
        <pt x="577" y="666" on="1"/>
      </contour>
    </TTGlyph>
    <TTGlyph name="F" xMin="42" yMin="0" xMax="622" yMax="1327">
      <contour>
        <pt x="567" y="456" on="1"/>
        <pt x="557" y="494" on="0"/>
        <pt x="493" y="542" on="0"/>
        <pt x="449" y="550" on="1"/>
        <pt x="416" y="555" on="0"/>
        <pt x="344" y="561" on="0"/>
        <pt x="301" y="564" on="1"/>
        <pt x="302" y="464" on="0"/>
        <pt x="304" y="268" on="0"/>
        <pt x="310" y="169" on="1"/>
        <pt x="314" y="108" on="0"/>
        <pt x="368" y="23" on="0"/>
        <pt x="423" y="5" on="1"/>
        <pt x="423" y="0" on="1"/>
        <pt x="42" y="0" on="1"/>
        <pt x="42" y="5" on="1"/>
        <pt x="99" y="24" on="0"/>
        <pt x="146" y="113" on="0"/>
        <pt x="151" y="173" on="1"/>
        <pt x="158" y="328" on="0"/>
        <pt x="167" y="595" on="0"/>
        <pt x="167" y="721" on="1"/>
        <pt x="167" y="833" on="0"/>
        <pt x="164" y="1054" on="0"/>
        <pt x="152" y="1174" on="1"/>
        <pt x="147" y="1228" on="0"/>
        <pt x="93" y="1305" on="0"/>
        <pt x="42" y="1322" on="1"/>
        <pt x="42" y="1327" on="1"/>
        <pt x="622" y="1327" on="1"/>
        <pt x="614" y="1288" on="0"/>
        <pt x="604" y="1249" on="1"/>
        <pt x="596" y="1216" on="0"/>
        <pt x="576" y="1142" on="0"/>
        <pt x="568" y="1113" on="1"/>
        <pt x="564" y="1113" on="1"/>
        <pt x="570" y="1159" on="0"/>
        <pt x="527" y="1213" on="0"/>
        <pt x="454" y="1241" on="0"/>
        <pt x="360" y="1251" on="0"/>
        <pt x="314" y="1253" on="1"/>
        <pt x="307" y="1108" on="0"/>
        <pt x="301" y="826" on="0"/>
        <pt x="301" y="684" on="1"/>
        <pt x="301" y="641" on="1"/>
        <pt x="343" y="641" on="0"/>
        <pt x="415" y="648" on="0"/>
        <pt x="451" y="654" on="1"/>
        <pt x="502" y="663" on="0"/>
        <pt x="559" y="712" on="0"/>
        <pt x="567" y="750" on="1"/>
        <pt x="570" y="750" on="1"/>
        <pt x="570" y="456" on="1"/>
      </contour>
    </TTGlyph>
    <TTGlyph name="G" xMin="70" yMin="-18" xMax="898" yMax="1317">
      <contour>
        <pt x="618" y="911" on="1"/>
        <pt x="642" y="934" on="0"/>
        <pt x="664" y="992" on="0"/>
        <pt x="664" y="1022" on="1"/>
        <pt x="664" y="1056" on="0"/>
        <pt x="638" y="1122" on="0"/>
        <pt x="593" y="1175" on="0"/>
        <pt x="529" y="1207" on="0"/>
        <pt x="492" y="1207" on="1"/>
        <pt x="448" y="1207" on="0"/>
        <pt x="374" y="1162" on="0"/>
        <pt x="315" y="1082" on="0"/>
        <pt x="271" y="974" on="0"/>
        <pt x="241" y="848" on="0"/>
        <pt x="226" y="708" on="0"/>
        <pt x="226" y="638" on="1"/>
        <pt x="226" y="534" on="0"/>
        <pt x="254" y="338" on="0"/>
        <pt x="310" y="184" on="0"/>
        <pt x="395" y="91" on="0"/>
        <pt x="452" y="91" on="1"/>
        <pt x="518" y="91" on="0"/>
        <pt x="617" y="138" on="0"/>
        <pt x="651" y="177" on="1"/>
        <pt x="656" y="306" on="0"/>
        <pt x="655" y="501" on="0"/>
        <pt x="647" y="571" on="1"/>
        <pt x="641" y="618" on="0"/>
        <pt x="593" y="684" on="0"/>
        <pt x="547" y="699" on="1"/>
        <pt x="547" y="704" on="1"/>
        <pt x="898" y="704" on="1"/>
        <pt x="898" y="699" on="1"/>
        <pt x="795" y="667" on="0"/>
        <pt x="795" y="554" on="1"/>
        <pt x="795" y="514" on="0"/>
        <pt x="792" y="408" on="0"/>
        <pt x="790" y="297" on="0"/>
        <pt x="791" y="191" on="0"/>
        <pt x="795" y="149" on="1"/>
        <pt x="800" y="95" on="0"/>
        <pt x="847" y="22" on="0"/>
        <pt x="898" y="5" on="1"/>
        <pt x="898" y="0" on="1"/>
        <pt x="697" y="0" on="1"/>
        <pt x="668" y="14" on="0"/>
        <pt x="657" y="45" on="1"/>
        <pt x="550" y="-18" on="0"/>
        <pt x="423" y="-18" on="1"/>
        <pt x="348" y="-18" on="0"/>
        <pt x="218" y="73" on="0"/>
        <pt x="124" y="244" on="0"/>
        <pt x="70" y="492" on="0"/>
        <pt x="70" y="649" on="1"/>
        <pt x="70" y="809" on="0"/>
        <pt x="136" y="1058" on="0"/>
        <pt x="253" y="1228" on="0"/>
        <pt x="411" y="1317" on="0"/>
        <pt x="503" y="1317" on="1"/>
        <pt x="562" y="1317" on="0"/>
        <pt x="666" y="1271" on="0"/>
        <pt x="744" y="1201" on="0"/>
        <pt x="790" y="1115" on="0"/>
        <pt x="790" y="1076" on="1"/>
        <pt x="790" y="1025" on="0"/>
        <pt x="750" y="992" on="1"/>
        <pt x="621" y="906" on="1"/>
      </contour>
    </TTGlyph>
    <TTGlyph name="Gbreve" xMin="70" yMin="-18" xMax="898" yMax="1710">
      <component glyphName="G" x="0" y="0" flags="0x1204"/>
      <component glyphName="breve" x="214" y="430" flags="0x1004"/>
    </TTGlyph>
    <TTGlyph name="H" xMin="-15" yMin="-170" xMax="890" yMax="1327">
      <contour>
        <pt x="890" y="1322" on="1"/>
        <pt x="839" y="1309" on="0"/>
        <pt x="787" y="1255" on="0"/>
        <pt x="779" y="1214" on="1"/>
        <pt x="773" y="1080" on="0"/>
        <pt x="768" y="816" on="0"/>
        <pt x="768" y="684" on="1"/>
        <pt x="768" y="540" on="0"/>
        <pt x="774" y="258" on="0"/>
        <pt x="779" y="117" on="1"/>
        <pt x="787" y="76" on="0"/>
        <pt x="839" y="19" on="0"/>
        <pt x="890" y="5" on="1"/>
        <pt x="890" y="0" on="1"/>
        <pt x="509" y="0" on="1"/>
        <pt x="509" y="5" on="1"/>
        <pt x="560" y="19" on="0"/>
        <pt x="607" y="76" on="0"/>
        <pt x="615" y="117" on="1"/>
        <pt x="623" y="283" on="0"/>
        <pt x="633" y="568" on="0"/>
        <pt x="634" y="699" on="1"/>
        <pt x="611" y="702" on="0"/>
        <pt x="533" y="706" on="0"/>
        <pt x="470" y="706" on="1"/>
        <pt x="400" y="706" on="0"/>
        <pt x="318" y="701" on="0"/>
        <pt x="296" y="698" on="1"/>
        <pt x="296" y="684" on="1"/>
        <pt x="296" y="619" on="0"/>
        <pt x="296" y="472" on="0"/>
        <pt x="295" y="322" on="0"/>
        <pt x="294" y="178" on="0"/>
        <pt x="293" y="117" on="1"/>
        <pt x="292" y="68" on="0"/>
        <pt x="285" y="-34" on="0"/>
        <pt x="243" y="-117" on="0"/>
        <pt x="151" y="-170" on="0"/>
        <pt x="65" y="-170" on="1"/>
        <pt x="-15" y="-44" on="1"/>
        <pt x="-12" y="-40" on="1"/>
        <pt x="10" y="-45" on="0"/>
        <pt x="46" y="-52" on="0"/>
        <pt x="60" y="-52" on="1"/>
        <pt x="81" y="-52" on="0"/>
        <pt x="109" y="-37" on="0"/>
        <pt x="129" y="1" on="0"/>
        <pt x="140" y="64" on="0"/>
        <pt x="144" y="111" on="1"/>
        <pt x="149" y="172" on="0"/>
        <pt x="157" y="316" on="0"/>
        <pt x="162" y="465" on="0"/>
        <pt x="165" y="609" on="0"/>
        <pt x="165" y="671" on="1"/>
        <pt x="165" y="808" on="0"/>
        <pt x="154" y="1074" on="0"/>
        <pt x="144" y="1223" on="1"/>
        <pt x="134" y="1258" on="0"/>
        <pt x="83" y="1309" on="0"/>
        <pt x="37" y="1322" on="1"/>
        <pt x="37" y="1327" on="1"/>
        <pt x="418" y="1327" on="1"/>
        <pt x="418" y="1322" on="1"/>
        <pt x="367" y="1309" on="0"/>
        <pt x="315" y="1256" on="0"/>
        <pt x="307" y="1215" on="1"/>
        <pt x="302" y="1107" on="0"/>
        <pt x="297" y="895" on="0"/>
        <pt x="296" y="789" on="1"/>
        <pt x="319" y="787" on="0"/>
        <pt x="403" y="783" on="0"/>
        <pt x="471" y="783" on="1"/>
        <pt x="530" y="783" on="0"/>
        <pt x="609" y="786" on="0"/>
        <pt x="634" y="788" on="1"/>
        <pt x="632" y="894" on="0"/>
        <pt x="624" y="1107" on="0"/>
        <pt x="616" y="1222" on="1"/>
        <pt x="606" y="1258" on="0"/>
        <pt x="556" y="1309" on="0"/>
        <pt x="509" y="1322" on="1"/>
        <pt x="509" y="1327" on="1"/>
        <pt x="890" y="1327" on="1"/>
      </contour>
    </TTGlyph>
    <TTGlyph name="H.alt" xMin="37" yMin="0" xMax="890" yMax="1327">
      <contour>
        <pt x="890" y="1322" on="1"/>
        <pt x="839" y="1309" on="0"/>
        <pt x="787" y="1256" on="0"/>
        <pt x="779" y="1215" on="1"/>
        <pt x="773" y="1080" on="0"/>
        <pt x="768" y="816" on="0"/>
        <pt x="768" y="684" on="1"/>
        <pt x="768" y="540" on="0"/>
        <pt x="774" y="258" on="0"/>
        <pt x="779" y="117" on="1"/>
        <pt x="787" y="76" on="0"/>
        <pt x="839" y="19" on="0"/>
        <pt x="890" y="5" on="1"/>
        <pt x="890" y="0" on="1"/>
        <pt x="509" y="0" on="1"/>
        <pt x="509" y="5" on="1"/>
        <pt x="560" y="19" on="0"/>
        <pt x="607" y="76" on="0"/>
        <pt x="615" y="117" on="1"/>
        <pt x="623" y="283" on="0"/>
        <pt x="633" y="568" on="0"/>
        <pt x="634" y="699" on="1"/>
        <pt x="611" y="702" on="0"/>
        <pt x="533" y="706" on="0"/>
        <pt x="470" y="706" on="1"/>
        <pt x="400" y="706" on="0"/>
        <pt x="318" y="701" on="0"/>
        <pt x="296" y="698" on="1"/>
        <pt x="296" y="684" on="1"/>
        <pt x="296" y="540" on="0"/>
        <pt x="302" y="258" on="0"/>
        <pt x="307" y="117" on="1"/>
        <pt x="315" y="76" on="0"/>
        <pt x="367" y="19" on="0"/>
        <pt x="418" y="5" on="1"/>
        <pt x="418" y="0" on="1"/>
        <pt x="37" y="0" on="1"/>
        <pt x="37" y="5" on="1"/>
        <pt x="88" y="19" on="0"/>
        <pt x="135" y="76" on="0"/>
        <pt x="143" y="117" on="1"/>
        <pt x="151" y="290" on="0"/>
        <pt x="162" y="584" on="0"/>
        <pt x="162" y="721" on="1"/>
        <pt x="162" y="845" on="0"/>
        <pt x="153" y="1088" on="0"/>
        <pt x="144" y="1222" on="1"/>
        <pt x="134" y="1258" on="0"/>
        <pt x="84" y="1309" on="0"/>
        <pt x="37" y="1322" on="1"/>
        <pt x="37" y="1327" on="1"/>
        <pt x="418" y="1327" on="1"/>
        <pt x="418" y="1322" on="1"/>
        <pt x="367" y="1309" on="0"/>
        <pt x="315" y="1256" on="0"/>
        <pt x="307" y="1215" on="1"/>
        <pt x="302" y="1107" on="0"/>
        <pt x="297" y="895" on="0"/>
        <pt x="296" y="789" on="1"/>
        <pt x="319" y="787" on="0"/>
        <pt x="403" y="783" on="0"/>
        <pt x="471" y="783" on="1"/>
        <pt x="530" y="783" on="0"/>
        <pt x="609" y="786" on="0"/>
        <pt x="634" y="788" on="1"/>
        <pt x="632" y="894" on="0"/>
        <pt x="624" y="1107" on="0"/>
        <pt x="616" y="1222" on="1"/>
        <pt x="606" y="1258" on="0"/>
        <pt x="556" y="1309" on="0"/>
        <pt x="509" y="1322" on="1"/>
        <pt x="509" y="1327" on="1"/>
        <pt x="890" y="1327" on="1"/>
      </contour>
    </TTGlyph>
    <TTGlyph name="I" xMin="48" yMin="0" xMax="409" yMax="1327">
      <contour>
        <pt x="409" y="1322" on="1"/>
        <pt x="306" y="1289" on="0"/>
        <pt x="306" y="1177" on="1"/>
        <pt x="303" y="1089" on="0"/>
        <pt x="301" y="1001" on="1"/>
        <pt x="300" y="963" on="0"/>
        <pt x="299" y="881" on="0"/>
        <pt x="298" y="799" on="0"/>
        <pt x="297" y="719" on="0"/>
        <pt x="297" y="684" on="1"/>
        <pt x="297" y="548" on="0"/>
        <pt x="298" y="282" on="0"/>
        <pt x="306" y="149" on="1"/>
        <pt x="310" y="95" on="0"/>
        <pt x="358" y="22" on="0"/>
        <pt x="409" y="5" on="1"/>
        <pt x="409" y="0" on="1"/>
        <pt x="48" y="0" on="1"/>
        <pt x="48" y="5" on="1"/>
        <pt x="99" y="22" on="0"/>
        <pt x="143" y="100" on="0"/>
        <pt x="147" y="153" on="1"/>
        <pt x="154" y="314" on="0"/>
        <pt x="163" y="590" on="0"/>
        <pt x="163" y="721" on="1"/>
        <pt x="163" y="838" on="0"/>
        <pt x="160" y="1068" on="0"/>
        <pt x="148" y="1194" on="1"/>
        <pt x="143" y="1241" on="0"/>
        <pt x="94" y="1308" on="0"/>
        <pt x="48" y="1322" on="1"/>
        <pt x="48" y="1327" on="1"/>
        <pt x="409" y="1327" on="1"/>
      </contour>
    </TTGlyph>
    <TTGlyph name="Iacute" xMin="48" yMin="0" xMax="409" yMax="1802">
      <component glyphName="I" x="0" y="0" flags="0x1204"/>
      <component glyphName="acute" x="70" y="364" flags="0x1004"/>
    </TTGlyph>
    <TTGlyph name="Icircumflex" xMin="14" yMin="0" xMax="446" yMax="1766">
      <component glyphName="I" x="1" y="0" flags="0x1004"/>
      <component glyphName="circumflex" x="-13" y="364" flags="0x1004"/>
    </TTGlyph>
    <TTGlyph name="Idieresis" xMin="-45" yMin="0" xMax="503" yMax="1664">
      <component glyphName="I" x="0" y="0" flags="0x1204"/>
      <component glyphName="dieresis" x="-93" y="364" flags="0x1004"/>
    </TTGlyph>
    <TTGlyph name="Idotaccent" xMin="48" yMin="0" xMax="409" yMax="1730">
      <component glyphName="I" x="0" y="0" flags="0x1204"/>
      <component glyphName="period" x="80" y="1557" flags="0x1004"/>
    </TTGlyph>
    <TTGlyph name="Igrave" xMin="48" yMin="0" xMax="409" yMax="1802">
      <component glyphName="I" x="0" y="0" flags="0x1204"/>
      <component glyphName="grave" x="104" y="364" flags="0x1004"/>
    </TTGlyph>
    <TTGlyph name="J" xMin="1" yMin="-66" xMax="625" yMax="1327">
      <contour>
        <pt x="234" y="64" on="1"/>
        <pt x="287" y="64" on="0"/>
        <pt x="344" y="134" on="0"/>
        <pt x="371" y="276" on="0"/>
        <pt x="375" y="494" on="0"/>
        <pt x="375" y="641" on="1"/>
        <pt x="375" y="775" on="0"/>
        <pt x="372" y="1045" on="0"/>
        <pt x="359" y="1194" on="1"/>
        <pt x="355" y="1241" on="0"/>
        <pt x="304" y="1308" on="0"/>
        <pt x="259" y="1322" on="1"/>
        <pt x="259" y="1327" on="1"/>
        <pt x="625" y="1327" on="1"/>
        <pt x="625" y="1322" on="1"/>
        <pt x="522" y="1289" on="0"/>
        <pt x="522" y="1177" on="1"/>
        <pt x="519" y="1075" on="0"/>
        <pt x="517" y="973" on="1"/>
        <pt x="516" y="929" on="0"/>
        <pt x="515" y="834" on="0"/>
        <pt x="514" y="738" on="0"/>
        <pt x="513" y="645" on="0"/>
        <pt x="513" y="604" on="1"/>
        <pt x="513" y="523" on="0"/>
        <pt x="510" y="360" on="0"/>
        <pt x="492" y="211" on="0"/>
        <pt x="457" y="83" on="0"/>
        <pt x="391" y="-12" on="0"/>
        <pt x="292" y="-66" on="0"/>
        <pt x="220" y="-66" on="1"/>
        <pt x="167" y="-66" on="0"/>
        <pt x="85" y="-36" on="0"/>
        <pt x="29" y="15" on="0"/>
        <pt x="1" y="82" on="0"/>
        <pt x="1" y="120" on="1"/>
        <pt x="1" y="152" on="0"/>
        <pt x="22" y="217" on="0"/>
        <pt x="45" y="249" on="1"/>
        <pt x="227" y="300" on="1"/>
        <pt x="230" y="295" on="1"/>
        <pt x="188" y="269" on="0"/>
        <pt x="150" y="205" on="0"/>
        <pt x="150" y="170" on="1"/>
        <pt x="150" y="151" on="0"/>
        <pt x="162" y="113" on="0"/>
        <pt x="185" y="83" on="0"/>
        <pt x="216" y="64" on="0"/>
      </contour>
    </TTGlyph>
    <TTGlyph name="K" xMin="48" yMin="-220" xMax="956" yMax="1393">
      <contour>
        <pt x="409" y="1322" on="1"/>
        <pt x="306" y="1289" on="0"/>
        <pt x="306" y="1177" on="1"/>
        <pt x="304" y="1114" on="0"/>
        <pt x="302" y="1047" on="1"/>
        <pt x="300" y="990" on="0"/>
        <pt x="298" y="850" on="0"/>
        <pt x="297" y="782" on="1"/>
        <pt x="323" y="835" on="0"/>
        <pt x="366" y="918" on="0"/>
        <pt x="411" y="1002" on="0"/>
        <pt x="463" y="1100" on="0"/>
        <pt x="499" y="1168" on="1"/>
        <pt x="524" y="1216" on="0"/>
        <pt x="577" y="1298" on="0"/>
        <pt x="641" y="1357" on="0"/>
        <pt x="721" y="1391" on="0"/>
        <pt x="773" y="1393" on="1"/>
        <pt x="831" y="1157" on="1"/>
        <pt x="825" y="1154" on="1"/>
        <pt x="786" y="1193" on="0"/>
        <pt x="748" y="1193" on="1"/>
        <pt x="718" y="1193" on="0"/>
        <pt x="662" y="1149" on="0"/>
        <pt x="638" y="1113" on="1"/>
        <pt x="591" y="1044" on="0"/>
        <pt x="491" y="892" on="0"/>
        <pt x="446" y="820" on="1"/>
        <pt x="475" y="731" on="0"/>
        <pt x="547" y="536" on="0"/>
        <pt x="627" y="339" on="0"/>
        <pt x="710" y="145" on="0"/>
        <pt x="751" y="57" on="1"/>
        <pt x="763" y="32" on="0"/>
        <pt x="788" y="-16" on="0"/>
        <pt x="818" y="-53" on="0"/>
        <pt x="853" y="-76" on="0"/>
        <pt x="876" y="-76" on="1"/>
        <pt x="892" y="-76" on="0"/>
        <pt x="929" y="-63" on="0"/>
        <pt x="951" y="-47" on="1"/>
        <pt x="956" y="-50" on="1"/>
        <pt x="884" y="-220" on="1"/>
        <pt x="822" y="-220" on="0"/>
        <pt x="734" y="-181" on="0"/>
        <pt x="670" y="-114" on="0"/>
        <pt x="624" y="-26" on="0"/>
        <pt x="606" y="23" on="1"/>
        <pt x="586" y="75" on="0"/>
        <pt x="539" y="204" on="0"/>
        <pt x="489" y="338" on="0"/>
        <pt x="441" y="470" on="0"/>
        <pt x="422" y="526" on="1"/>
        <pt x="368" y="692" on="1"/>
        <pt x="344" y="651" on="0"/>
        <pt x="308" y="590" on="0"/>
        <pt x="297" y="570" on="1"/>
        <pt x="297" y="464" on="0"/>
        <pt x="299" y="254" on="0"/>
        <pt x="306" y="149" on="1"/>
        <pt x="309" y="95" on="0"/>
        <pt x="358" y="22" on="0"/>
        <pt x="409" y="5" on="1"/>
        <pt x="409" y="0" on="1"/>
        <pt x="48" y="0" on="1"/>
        <pt x="48" y="5" on="1"/>
        <pt x="99" y="22" on="0"/>
        <pt x="143" y="100" on="0"/>
        <pt x="147" y="153" on="1"/>
        <pt x="154" y="314" on="0"/>
        <pt x="163" y="590" on="0"/>
        <pt x="163" y="721" on="1"/>
        <pt x="163" y="838" on="0"/>
        <pt x="160" y="1068" on="0"/>
        <pt x="148" y="1194" on="1"/>
        <pt x="143" y="1241" on="0"/>
        <pt x="94" y="1308" on="0"/>
        <pt x="48" y="1322" on="1"/>
        <pt x="48" y="1327" on="1"/>
        <pt x="409" y="1327" on="1"/>
      </contour>
    </TTGlyph>
    <TTGlyph name="L" xMin="42" yMin="0" xMax="758" yMax="1327">
      <contour>
        <pt x="517" y="95" on="1"/>
        <pt x="514" y="129" on="0"/>
        <pt x="501" y="218" on="0"/>
        <pt x="487" y="314" on="0"/>
        <pt x="474" y="411" on="0"/>
        <pt x="470" y="452" on="1"/>
        <pt x="459" y="561" on="0"/>
        <pt x="530" y="723" on="0"/>
        <pt x="618" y="769" on="1"/>
        <pt x="758" y="573" on="1"/>
        <pt x="755" y="569" on="1"/>
        <pt x="735" y="577" on="0"/>
        <pt x="699" y="580" on="0"/>
        <pt x="684" y="580" on="1"/>
        <pt x="643" y="576" on="0"/>
        <pt x="598" y="514" on="0"/>
        <pt x="599" y="458" on="1"/>
        <pt x="600" y="405" on="0"/>
        <pt x="615" y="289" on="0"/>
        <pt x="633" y="170" on="0"/>
        <pt x="647" y="54" on="0"/>
        <pt x="647" y="0" on="1"/>
        <pt x="42" y="0" on="1"/>
        <pt x="42" y="5" on="1"/>
        <pt x="99" y="24" on="0"/>
        <pt x="147" y="113" on="0"/>
        <pt x="151" y="173" on="1"/>
        <pt x="161" y="328" on="0"/>
        <pt x="167" y="595" on="0"/>
        <pt x="167" y="721" on="1"/>
        <pt x="167" y="833" on="0"/>
        <pt x="160" y="1054" on="0"/>
        <pt x="152" y="1174" on="1"/>
        <pt x="144" y="1228" on="0"/>
        <pt x="93" y="1305" on="0"/>
        <pt x="42" y="1322" on="1"/>
        <pt x="42" y="1327" on="1"/>
        <pt x="423" y="1327" on="1"/>
        <pt x="423" y="1322" on="1"/>
        <pt x="366" y="1303" on="0"/>
        <pt x="314" y="1220" on="0"/>
        <pt x="310" y="1157" on="1"/>
        <pt x="307" y="1115" on="0"/>
        <pt x="304" y="1007" on="0"/>
        <pt x="302" y="884" on="0"/>
        <pt x="301" y="751" on="0"/>
        <pt x="301" y="684" on="1"/>
        <pt x="301" y="530" on="0"/>
        <pt x="307" y="225" on="0"/>
        <pt x="313" y="75" on="1"/>
        <pt x="329" y="76" on="0"/>
        <pt x="378" y="80" on="0"/>
        <pt x="433" y="84" on="0"/>
        <pt x="491" y="90" on="0"/>
      </contour>
    </TTGlyph>
    <TTGlyph name="L.alt" xMin="42" yMin="0" xMax="601" yMax="1327">
      <contour>
        <pt x="577" y="136" on="1"/>
        <pt x="580" y="119" on="0"/>
        <pt x="588" y="72" on="0"/>
        <pt x="592" y="51" on="1"/>
        <pt x="596" y="26" on="0"/>
        <pt x="601" y="0" on="1"/>
        <pt x="42" y="0" on="1"/>
        <pt x="42" y="5" on="1"/>
        <pt x="99" y="24" on="0"/>
        <pt x="146" y="114" on="0"/>
        <pt x="151" y="177" on="1"/>
        <pt x="151" y="173" on="1"/>
        <pt x="158" y="328" on="0"/>
        <pt x="167" y="595" on="0"/>
        <pt x="167" y="721" on="1"/>
        <pt x="167" y="833" on="0"/>
        <pt x="160" y="1054" on="0"/>
        <pt x="152" y="1174" on="1"/>
        <pt x="144" y="1228" on="0"/>
        <pt x="93" y="1305" on="0"/>
        <pt x="42" y="1322" on="1"/>
        <pt x="42" y="1327" on="1"/>
        <pt x="423" y="1327" on="1"/>
        <pt x="423" y="1322" on="1"/>
        <pt x="366" y="1303" on="0"/>
        <pt x="315" y="1220" on="0"/>
        <pt x="310" y="1157" on="1"/>
        <pt x="313" y="1226" on="1"/>
        <pt x="306" y="1089" on="0"/>
        <pt x="301" y="819" on="0"/>
        <pt x="301" y="684" on="1"/>
        <pt x="301" y="386" on="0"/>
        <pt x="313" y="97" on="1"/>
        <pt x="343" y="100" on="0"/>
        <pt x="423" y="110" on="0"/>
        <pt x="471" y="118" on="1"/>
        <pt x="458" y="118" on="1"/>
        <pt x="515" y="127" on="0"/>
        <pt x="565" y="186" on="0"/>
        <pt x="560" y="232" on="1"/>
      </contour>
      <contour>
        <pt x="314" y="1248" on="1"/>
        <pt x="313" y="1243" on="0"/>
        <pt x="313" y="1232" on="0"/>
        <pt x="313" y="1226" on="1"/>
      </contour>
    </TTGlyph>
    <TTGlyph name="Lslash" xMin="39" yMin="0" xMax="755" yMax="1327">
      <contour>
        <pt x="514" y="117" on="1"/>
        <pt x="511" y="148" on="0"/>
        <pt x="498" y="232" on="0"/>
        <pt x="484" y="322" on="0"/>
        <pt x="471" y="413" on="0"/>
        <pt x="467" y="452" on="1"/>
        <pt x="456" y="561" on="0"/>
        <pt x="527" y="723" on="0"/>
        <pt x="615" y="769" on="1"/>
        <pt x="755" y="573" on="1"/>
        <pt x="752" y="569" on="1"/>
        <pt x="732" y="577" on="0"/>
        <pt x="696" y="580" on="0"/>
        <pt x="681" y="580" on="1"/>
        <pt x="640" y="576" on="0"/>
        <pt x="595" y="514" on="0"/>
        <pt x="596" y="458" on="1"/>
        <pt x="597" y="405" on="0"/>
        <pt x="612" y="289" on="0"/>
        <pt x="630" y="170" on="0"/>
        <pt x="644" y="54" on="0"/>
        <pt x="644" y="0" on="1"/>
        <pt x="39" y="0" on="1"/>
        <pt x="39" y="5" on="1"/>
        <pt x="96" y="24" on="0"/>
        <pt x="144" y="113" on="0"/>
        <pt x="148" y="173" on="1"/>
        <pt x="158" y="328" on="0"/>
        <pt x="164" y="595" on="0"/>
        <pt x="164" y="721" on="1"/>
        <pt x="164" y="767" on="1"/>
        <pt x="122" y="766" on="0"/>
        <pt x="67" y="758" on="0"/>
        <pt x="50" y="748" on="1"/>
        <pt x="50" y="921" on="1"/>
        <pt x="68" y="914" on="0"/>
        <pt x="123" y="902" on="0"/>
        <pt x="162" y="897" on="1"/>
        <pt x="160" y="965" on="0"/>
        <pt x="154" y="1102" on="0"/>
        <pt x="149" y="1174" on="1"/>
        <pt x="141" y="1228" on="0"/>
        <pt x="90" y="1305" on="0"/>
        <pt x="39" y="1322" on="1"/>
        <pt x="39" y="1327" on="1"/>
        <pt x="420" y="1327" on="1"/>
        <pt x="420" y="1322" on="1"/>
        <pt x="363" y="1303" on="0"/>
        <pt x="311" y="1220" on="0"/>
        <pt x="307" y="1157" on="1"/>
        <pt x="304" y="1105" on="0"/>
        <pt x="300" y="970" on="0"/>
        <pt x="299" y="893" on="1"/>
        <pt x="357" y="893" on="0"/>
        <pt x="438" y="903" on="0"/>
        <pt x="465" y="922" on="1"/>
        <pt x="465" y="739" on="1"/>
        <pt x="440" y="750" on="0"/>
        <pt x="361" y="765" on="0"/>
        <pt x="298" y="767" on="1"/>
        <pt x="298" y="684" on="1"/>
        <pt x="298" y="386" on="0"/>
        <pt x="310" y="97" on="1"/>
        <pt x="326" y="98" on="0"/>
        <pt x="375" y="102" on="0"/>
        <pt x="430" y="107" on="0"/>
        <pt x="488" y="113" on="0"/>
      </contour>
    </TTGlyph>
    <TTGlyph name="M" xMin="-52" yMin="-170" xMax="1147" yMax="1327">
      <contour>
        <pt x="107" y="111" on="1"/>
        <pt x="114" y="180" on="0"/>
        <pt x="124" y="305" on="0"/>
        <pt x="133" y="428" on="0"/>
        <pt x="143" y="554" on="0"/>
        <pt x="149" y="624" on="1"/>
        <pt x="152" y="661" on="0"/>
        <pt x="159" y="746" on="0"/>
        <pt x="165" y="833" on="0"/>
        <pt x="171" y="920" on="0"/>
        <pt x="174" y="960" on="1"/>
        <pt x="180" y="1053" on="0"/>
        <pt x="185" y="1147" on="1"/>
        <pt x="186" y="1153" on="0"/>
        <pt x="186" y="1164" on="0"/>
        <pt x="186" y="1169" on="1"/>
        <pt x="186" y="1283" on="0"/>
        <pt x="74" y="1322" on="1"/>
        <pt x="75" y="1327" on="1"/>
        <pt x="276" y="1327" on="1"/>
        <pt x="287" y="1327" on="0"/>
        <pt x="308" y="1294" on="0"/>
        <pt x="327" y="1242" on="0"/>
        <pt x="343" y="1179" on="0"/>
        <pt x="356" y="1118" on="0"/>
        <pt x="366" y="1067" on="0"/>
        <pt x="369" y="1054" on="1"/>
        <pt x="381" y="1010" on="0"/>
        <pt x="411" y="909" on="0"/>
        <pt x="443" y="804" on="0"/>
        <pt x="476" y="698" on="0"/>
        <pt x="491" y="649" on="1"/>
        <pt x="527" y="535" on="0"/>
        <pt x="564" y="418" on="1"/>
        <pt x="620" y="608" on="0"/>
        <pt x="668" y="767" on="1"/>
        <pt x="688" y="835" on="0"/>
        <pt x="728" y="970" on="0"/>
        <pt x="761" y="1087" on="0"/>
        <pt x="786" y="1174" on="0"/>
        <pt x="791" y="1194" on="1"/>
        <pt x="797" y="1218" on="0"/>
        <pt x="804" y="1265" on="0"/>
        <pt x="821" y="1303" on="0"/>
        <pt x="856" y="1327" on="0"/>
        <pt x="891" y="1327" on="1"/>
        <pt x="1034" y="1327" on="1"/>
        <pt x="1035" y="1322" on="1"/>
        <pt x="943" y="1292" on="0"/>
        <pt x="943" y="1195" on="1"/>
        <pt x="943" y="1190" on="0"/>
        <pt x="943" y="1182" on="0"/>
        <pt x="944" y="1177" on="1"/>
        <pt x="946" y="1151" on="0"/>
        <pt x="953" y="1029" on="0"/>
        <pt x="964" y="860" on="0"/>
        <pt x="978" y="657" on="0"/>
        <pt x="996" y="445" on="0"/>
        <pt x="1018" y="238" on="0"/>
        <pt x="1031" y="149" on="1"/>
        <pt x="1039" y="95" on="0"/>
        <pt x="1095" y="22" on="0"/>
        <pt x="1146" y="5" on="1"/>
        <pt x="1147" y="0" on="1"/>
        <pt x="786" y="0" on="1"/>
        <pt x="785" y="5" on="1"/>
        <pt x="836" y="22" on="0"/>
        <pt x="872" y="100" on="0"/>
        <pt x="872" y="153" on="1"/>
        <pt x="869" y="234" on="0"/>
        <pt x="864" y="382" on="0"/>
        <pt x="857" y="522" on="0"/>
        <pt x="847" y="656" on="0"/>
        <pt x="840" y="721" on="1"/>
        <pt x="827" y="905" on="1"/>
        <pt x="807" y="825" on="0"/>
        <pt x="748" y="645" on="0"/>
        <pt x="686" y="465" on="0"/>
        <pt x="630" y="295" on="0"/>
        <pt x="612" y="224" on="1"/>
        <pt x="605" y="200" on="0"/>
        <pt x="592" y="149" on="0"/>
        <pt x="579" y="107" on="0"/>
        <pt x="564" y="81" on="0"/>
        <pt x="555" y="81" on="1"/>
        <pt x="546" y="81" on="0"/>
        <pt x="530" y="107" on="0"/>
        <pt x="516" y="148" on="0"/>
        <pt x="503" y="199" on="0"/>
        <pt x="496" y="224" on="1"/>
        <pt x="475" y="296" on="0"/>
        <pt x="425" y="460" on="0"/>
        <pt x="373" y="631" on="0"/>
        <pt x="320" y="804" on="0"/>
        <pt x="296" y="885" on="1"/>
        <pt x="287" y="690" on="0"/>
        <pt x="263" y="305" on="0"/>
        <pt x="256" y="117" on="1"/>
        <pt x="255" y="85" on="0"/>
        <pt x="252" y="17" on="0"/>
        <pt x="239" y="-47" on="0"/>
        <pt x="213" y="-103" on="0"/>
        <pt x="163" y="-146" on="0"/>
        <pt x="85" y="-170" on="0"/>
        <pt x="28" y="-170" on="1"/>
        <pt x="-52" y="-44" on="1"/>
        <pt x="-49" y="-40" on="1"/>
        <pt x="-27" y="-45" on="0"/>
        <pt x="9" y="-52" on="0"/>
        <pt x="23" y="-52" on="1"/>
        <pt x="44" y="-52" on="0"/>
        <pt x="72" y="-37" on="0"/>
        <pt x="91" y="1" on="0"/>
        <pt x="102" y="64" on="0"/>
      </contour>
    </TTGlyph>
    <TTGlyph name="N" xMin="-16" yMin="-170" xMax="892" yMax="1327">
      <contour>
        <pt x="691" y="0" on="1"/>
        <pt x="687" y="0" on="1"/>
      </contour>
      <contour>
        <pt x="143" y="111" on="1"/>
        <pt x="156" y="240" on="0"/>
        <pt x="167" y="500" on="0"/>
        <pt x="167" y="631" on="1"/>
        <pt x="167" y="750" on="0"/>
        <pt x="162" y="983" on="0"/>
        <pt x="152" y="1114" on="1"/>
        <pt x="144" y="1191" on="0"/>
        <pt x="82" y="1302" on="0"/>
        <pt x="22" y="1322" on="1"/>
        <pt x="22" y="1327" on="1"/>
        <pt x="218" y="1327" on="1"/>
        <pt x="217" y="1323" on="0"/>
        <pt x="223" y="1308" on="1"/>
        <pt x="228" y="1295" on="0"/>
        <pt x="253" y="1244" on="0"/>
        <pt x="277" y="1199" on="1"/>
        <pt x="308" y="1131" on="0"/>
        <pt x="387" y="958" on="0"/>
        <pt x="470" y="778" on="0"/>
        <pt x="549" y="606" on="0"/>
        <pt x="612" y="470" on="0"/>
        <pt x="650" y="385" on="0"/>
        <pt x="650" y="383" on="1"/>
        <pt x="653" y="469" on="0"/>
        <pt x="656" y="643" on="0"/>
        <pt x="656" y="721" on="1"/>
        <pt x="656" y="838" on="0"/>
        <pt x="652" y="1068" on="0"/>
        <pt x="641" y="1194" on="1"/>
        <pt x="636" y="1241" on="0"/>
        <pt x="587" y="1308" on="0"/>
        <pt x="541" y="1322" on="1"/>
        <pt x="541" y="1327" on="1"/>
        <pt x="892" y="1327" on="1"/>
        <pt x="892" y="1322" on="1"/>
        <pt x="789" y="1289" on="0"/>
        <pt x="789" y="1177" on="1"/>
        <pt x="789" y="1134" on="0"/>
        <pt x="785" y="990" on="0"/>
        <pt x="778" y="813" on="0"/>
        <pt x="772" y="619" on="0"/>
        <pt x="767" y="435" on="0"/>
        <pt x="766" y="276" on="0"/>
        <pt x="769" y="223" on="1"/>
        <pt x="771" y="142" on="0"/>
        <pt x="823" y="26" on="0"/>
        <pt x="869" y="5" on="1"/>
        <pt x="869" y="0" on="1"/>
        <pt x="691" y="0" on="1"/>
        <pt x="693" y="1" on="0"/>
        <pt x="694" y="9" on="0"/>
        <pt x="687" y="32" on="0"/>
        <pt x="670" y="73" on="0"/>
        <pt x="653" y="107" on="1"/>
        <pt x="628" y="166" on="0"/>
        <pt x="555" y="328" on="0"/>
        <pt x="475" y="504" on="0"/>
        <pt x="396" y="677" on="0"/>
        <pt x="332" y="816" on="0"/>
        <pt x="293" y="904" on="0"/>
        <pt x="293" y="907" on="1"/>
        <pt x="291" y="843" on="0"/>
        <pt x="291" y="726" on="0"/>
        <pt x="291" y="684" on="1"/>
        <pt x="291" y="538" on="0"/>
        <pt x="294" y="256" on="0"/>
        <pt x="292" y="117" on="1"/>
        <pt x="291" y="68" on="0"/>
        <pt x="284" y="-34" on="0"/>
        <pt x="242" y="-117" on="0"/>
        <pt x="150" y="-170" on="0"/>
        <pt x="64" y="-170" on="1"/>
        <pt x="-16" y="-44" on="1"/>
        <pt x="-13" y="-40" on="1"/>
        <pt x="9" y="-45" on="0"/>
        <pt x="45" y="-52" on="0"/>
        <pt x="59" y="-52" on="1"/>
        <pt x="80" y="-52" on="0"/>
        <pt x="108" y="-37" on="0"/>
        <pt x="128" y="1" on="0"/>
        <pt x="139" y="64" on="0"/>
      </contour>
    </TTGlyph>
    <TTGlyph name="N.alt" xMin="52" yMin="0" xMax="892" yMax="1327">
      <contour>
        <pt x="769" y="223" on="1"/>
        <pt x="771" y="142" on="0"/>
        <pt x="823" y="26" on="0"/>
        <pt x="869" y="5" on="1"/>
        <pt x="869" y="0" on="1"/>
        <pt x="691" y="0" on="1"/>
        <pt x="693" y="1" on="0"/>
        <pt x="694" y="9" on="0"/>
        <pt x="687" y="32" on="0"/>
        <pt x="670" y="73" on="0"/>
        <pt x="653" y="107" on="1"/>
        <pt x="628" y="166" on="0"/>
        <pt x="555" y="328" on="0"/>
        <pt x="475" y="504" on="0"/>
        <pt x="396" y="677" on="0"/>
        <pt x="332" y="816" on="0"/>
        <pt x="293" y="904" on="0"/>
        <pt x="293" y="907" on="1"/>
        <pt x="291" y="843" on="0"/>
        <pt x="291" y="726" on="0"/>
        <pt x="291" y="684" on="1"/>
        <pt x="291" y="548" on="0"/>
        <pt x="293" y="282" on="0"/>
        <pt x="300" y="149" on="1"/>
        <pt x="305" y="95" on="0"/>
        <pt x="353" y="22" on="0"/>
        <pt x="403" y="5" on="1"/>
        <pt x="403" y="0" on="1"/>
        <pt x="52" y="0" on="1"/>
        <pt x="52" y="5" on="1"/>
        <pt x="103" y="22" on="0"/>
        <pt x="147" y="100" on="0"/>
        <pt x="151" y="153" on="1"/>
        <pt x="158" y="314" on="0"/>
        <pt x="167" y="590" on="0"/>
        <pt x="167" y="721" on="1"/>
        <pt x="167" y="820" on="0"/>
        <pt x="163" y="1010" on="0"/>
        <pt x="152" y="1114" on="1"/>
        <pt x="147" y="1191" on="0"/>
        <pt x="98" y="1302" on="0"/>
        <pt x="52" y="1322" on="1"/>
        <pt x="52" y="1327" on="1"/>
        <pt x="218" y="1327" on="1"/>
        <pt x="217" y="1323" on="0"/>
        <pt x="223" y="1308" on="1"/>
        <pt x="228" y="1295" on="0"/>
        <pt x="253" y="1244" on="0"/>
        <pt x="277" y="1199" on="1"/>
        <pt x="308" y="1131" on="0"/>
        <pt x="387" y="958" on="0"/>
        <pt x="470" y="778" on="0"/>
        <pt x="549" y="606" on="0"/>
        <pt x="612" y="470" on="0"/>
        <pt x="650" y="385" on="0"/>
        <pt x="650" y="383" on="1"/>
        <pt x="653" y="469" on="0"/>
        <pt x="656" y="643" on="0"/>
        <pt x="656" y="721" on="1"/>
        <pt x="656" y="838" on="0"/>
        <pt x="652" y="1068" on="0"/>
        <pt x="641" y="1194" on="1"/>
        <pt x="636" y="1241" on="0"/>
        <pt x="587" y="1308" on="0"/>
        <pt x="541" y="1322" on="1"/>
        <pt x="541" y="1327" on="1"/>
        <pt x="892" y="1327" on="1"/>
        <pt x="892" y="1322" on="1"/>
        <pt x="789" y="1289" on="0"/>
        <pt x="789" y="1177" on="1"/>
        <pt x="789" y="1134" on="0"/>
        <pt x="785" y="990" on="0"/>
        <pt x="778" y="813" on="0"/>
        <pt x="772" y="619" on="0"/>
        <pt x="767" y="435" on="0"/>
        <pt x="766" y="276" on="0"/>
      </contour>
      <contour>
        <pt x="691" y="0" on="1"/>
        <pt x="687" y="0" on="1"/>
      </contour>
    </TTGlyph>
    <TTGlyph name="Ntilde" xMin="-16" yMin="-170" xMax="892" yMax="1653">
      <component glyphName="N" x="0" y="0" flags="0x1004"/>
      <component glyphName="tilde" x="115" y="364" flags="0x1004"/>
    </TTGlyph>
    <TTGlyph name="O" xMin="69" yMin="-18" xMax="867" yMax="1317">
      <contour>
        <pt x="867" y="649" on="1"/>
        <pt x="867" y="493" on="0"/>
        <pt x="802" y="246" on="0"/>
        <pt x="692" y="74" on="0"/>
        <pt x="550" y="-18" on="0"/>
        <pt x="472" y="-18" on="1"/>
        <pt x="385" y="-18" on="0"/>
        <pt x="238" y="73" on="0"/>
        <pt x="130" y="244" on="0"/>
        <pt x="69" y="492" on="0"/>
        <pt x="69" y="649" on="1"/>
        <pt x="69" y="809" on="0"/>
        <pt x="131" y="1058" on="0"/>
        <pt x="240" y="1228" on="0"/>
        <pt x="387" y="1317" on="0"/>
        <pt x="472" y="1317" on="1"/>
        <pt x="553" y="1317" on="0"/>
        <pt x="697" y="1228" on="0"/>
        <pt x="805" y="1058" on="0"/>
        <pt x="867" y="809" on="0"/>
      </contour>
      <contour>
        <pt x="461" y="100" on="1"/>
        <pt x="523" y="100" on="0"/>
        <pt x="616" y="192" on="0"/>
        <pt x="677" y="345" on="0"/>
        <pt x="708" y="542" on="0"/>
        <pt x="708" y="646" on="1"/>
        <pt x="708" y="751" on="0"/>
        <pt x="677" y="950" on="0"/>
        <pt x="615" y="1106" on="0"/>
        <pt x="522" y="1200" on="0"/>
        <pt x="461" y="1200" on="1"/>
        <pt x="403" y="1200" on="0"/>
        <pt x="315" y="1104" on="0"/>
        <pt x="255" y="946" on="0"/>
        <pt x="225" y="744" on="0"/>
        <pt x="225" y="638" on="1"/>
        <pt x="225" y="569" on="0"/>
        <pt x="238" y="436" on="0"/>
        <pt x="264" y="316" on="0"/>
        <pt x="303" y="215" on="0"/>
        <pt x="355" y="141" on="0"/>
        <pt x="421" y="100" on="0"/>
      </contour>
    </TTGlyph>
    <TTGlyph name="OE" xMin="69" yMin="0" xMax="1099" yMax="1327">
      <contour>
        <pt x="1045" y="1115" on="1"/>
        <pt x="1046" y="1150" on="0"/>
        <pt x="1023" y="1204" on="0"/>
        <pt x="994" y="1218" on="1"/>
        <pt x="952" y="1238" on="0"/>
        <pt x="857" y="1251" on="0"/>
        <pt x="800" y="1253" on="1"/>
        <pt x="794" y="1129" on="0"/>
        <pt x="788" y="886" on="0"/>
        <pt x="787" y="765" on="1"/>
        <pt x="820" y="765" on="0"/>
        <pt x="881" y="765" on="0"/>
        <pt x="908" y="768" on="1"/>
        <pt x="959" y="773" on="0"/>
        <pt x="1016" y="824" on="0"/>
        <pt x="1024" y="861" on="1"/>
        <pt x="1027" y="861" on="1"/>
        <pt x="1027" y="586" on="1"/>
        <pt x="1023" y="586" on="1"/>
        <pt x="1015" y="626" on="0"/>
        <pt x="959" y="679" on="0"/>
        <pt x="906" y="684" on="1"/>
        <pt x="880" y="687" on="0"/>
        <pt x="822" y="687" on="0"/>
        <pt x="787" y="688" on="1"/>
        <pt x="787" y="684" on="1"/>
        <pt x="787" y="535" on="0"/>
        <pt x="794" y="242" on="0"/>
        <pt x="799" y="96" on="1"/>
        <pt x="817" y="99" on="0"/>
        <pt x="868" y="104" on="0"/>
        <pt x="925" y="112" on="0"/>
        <pt x="981" y="126" on="0"/>
        <pt x="1025" y="149" on="0"/>
        <pt x="1052" y="185" on="0"/>
        <pt x="1052" y="212" on="1"/>
        <pt x="1056" y="212" on="1"/>
        <pt x="1064" y="163" on="0"/>
        <pt x="1078" y="86" on="0"/>
        <pt x="1083" y="58" on="1"/>
        <pt x="1088" y="25" on="0"/>
        <pt x="1093" y="0" on="1"/>
        <pt x="472" y="0" on="1"/>
        <pt x="385" y="0" on="0"/>
        <pt x="238" y="88" on="0"/>
        <pt x="130" y="255" on="0"/>
        <pt x="69" y="496" on="0"/>
        <pt x="69" y="649" on="1"/>
        <pt x="69" y="811" on="0"/>
        <pt x="131" y="1064" on="0"/>
        <pt x="240" y="1236" on="0"/>
        <pt x="387" y="1326" on="0"/>
        <pt x="472" y="1326" on="1"/>
        <pt x="513" y="1326" on="0"/>
        <pt x="623" y="1322" on="0"/>
        <pt x="774" y="1320" on="0"/>
        <pt x="971" y="1321" on="0"/>
        <pt x="1099" y="1327" on="1"/>
        <pt x="1094" y="1307" on="0"/>
        <pt x="1087" y="1277" on="1"/>
        <pt x="1081" y="1251" on="0"/>
        <pt x="1063" y="1171" on="0"/>
        <pt x="1050" y="1114" on="1"/>
      </contour>
      <contour>
        <pt x="461" y="118" on="1"/>
        <pt x="502" y="118" on="0"/>
        <pt x="564" y="120" on="0"/>
        <pt x="585" y="122" on="1"/>
        <pt x="610" y="124" on="0"/>
        <pt x="628" y="127" on="1"/>
        <pt x="628" y="1203" on="1"/>
        <pt x="610" y="1204" on="0"/>
        <pt x="585" y="1206" on="1"/>
        <pt x="564" y="1207" on="0"/>
        <pt x="502" y="1209" on="0"/>
        <pt x="461" y="1209" on="1"/>
        <pt x="403" y="1209" on="0"/>
        <pt x="315" y="1111" on="0"/>
        <pt x="255" y="951" on="0"/>
        <pt x="225" y="746" on="0"/>
        <pt x="225" y="638" on="1"/>
        <pt x="225" y="538" on="0"/>
        <pt x="254" y="351" on="0"/>
        <pt x="313" y="206" on="0"/>
        <pt x="401" y="118" on="0"/>
      </contour>
    </TTGlyph>
    <TTGlyph name="Oacute" xMin="69" yMin="-18" xMax="867" yMax="1802">
      <component glyphName="O" x="0" y="0" flags="0x1204"/>
      <component glyphName="acute" x="310" y="364" flags="0x1004"/>
    </TTGlyph>
    <TTGlyph name="Ocircumflex" xMin="69" yMin="-18" xMax="867" yMax="1766">
      <component glyphName="O" x="0" y="0" flags="0x1204"/>
      <component glyphName="circumflex" x="225" y="364" flags="0x1004"/>
    </TTGlyph>
    <TTGlyph name="Odieresis" xMin="69" yMin="-18" xMax="867" yMax="1664">
      <component glyphName="O" x="0" y="0" flags="0x1204"/>
      <component glyphName="dieresis" x="146" y="364" flags="0x1004"/>
    </TTGlyph>
    <TTGlyph name="Ograve" xMin="69" yMin="-18" xMax="867" yMax="1802">
      <component glyphName="O" x="0" y="0" flags="0x1204"/>
      <component glyphName="grave" x="344" y="364" flags="0x1004"/>
    </TTGlyph>
    <TTGlyph name="Oslash" xMin="32" yMin="-18" xMax="934" yMax="1317">
      <contour>
        <pt x="876" y="649" on="1"/>
        <pt x="876" y="493" on="0"/>
        <pt x="811" y="246" on="0"/>
        <pt x="701" y="74" on="0"/>
        <pt x="559" y="-18" on="0"/>
        <pt x="481" y="-18" on="1"/>
        <pt x="387" y="-18" on="0"/>
        <pt x="230" y="88" on="0"/>
        <pt x="175" y="188" on="1"/>
        <pt x="85" y="70" on="1"/>
        <pt x="32" y="109" on="1"/>
        <pt x="144" y="255" on="1"/>
        <pt x="112" y="334" on="0"/>
        <pt x="78" y="531" on="0"/>
        <pt x="78" y="649" on="1"/>
        <pt x="78" y="809" on="0"/>
        <pt x="140" y="1058" on="0"/>
        <pt x="249" y="1228" on="0"/>
        <pt x="396" y="1317" on="0"/>
        <pt x="481" y="1317" on="1"/>
        <pt x="573" y="1317" on="0"/>
        <pt x="731" y="1205" on="0"/>
        <pt x="786" y="1096" on="1"/>
        <pt x="881" y="1221" on="1"/>
        <pt x="934" y="1182" on="1"/>
        <pt x="816" y="1027" on="1"/>
        <pt x="845" y="951" on="0"/>
        <pt x="876" y="762" on="0"/>
      </contour>
      <contour>
        <pt x="234" y="638" on="1"/>
        <pt x="234" y="511" on="0"/>
        <pt x="255" y="400" on="1"/>
        <pt x="679" y="956" on="1"/>
        <pt x="664" y="1009" on="0"/>
        <pt x="623" y="1099" on="0"/>
        <pt x="571" y="1164" on="0"/>
        <pt x="507" y="1200" on="0"/>
        <pt x="470" y="1200" on="1"/>
        <pt x="412" y="1200" on="0"/>
        <pt x="324" y="1104" on="0"/>
        <pt x="264" y="946" on="0"/>
        <pt x="234" y="744" on="0"/>
      </contour>
      <contour>
        <pt x="470" y="100" on="1"/>
        <pt x="532" y="100" on="0"/>
        <pt x="625" y="192" on="0"/>
        <pt x="686" y="345" on="0"/>
        <pt x="717" y="542" on="0"/>
        <pt x="717" y="646" on="1"/>
        <pt x="717" y="763" on="0"/>
        <pt x="697" y="872" on="1"/>
        <pt x="274" y="318" on="1"/>
        <pt x="288" y="270" on="0"/>
        <pt x="327" y="189" on="0"/>
        <pt x="376" y="132" on="0"/>
        <pt x="435" y="100" on="0"/>
      </contour>
    </TTGlyph>
    <TTGlyph name="Otilde" xMin="69" yMin="-18" xMax="867" yMax="1653">
      <component glyphName="O" x="0" y="0" flags="0x1204"/>
      <component glyphName="tilde" x="152" y="364" flags="0x1004"/>
    </TTGlyph>
    <TTGlyph name="P" xMin="48" yMin="0" xMax="678" yMax="1327">
      <contour>
        <pt x="48" y="1327" on="1"/>
        <pt x="443" y="1327" on="1"/>
        <pt x="491" y="1327" on="0"/>
        <pt x="576" y="1277" on="0"/>
        <pt x="641" y="1181" on="0"/>
        <pt x="678" y="1039" on="0"/>
        <pt x="678" y="947" on="1"/>
        <pt x="678" y="885" on="0"/>
        <pt x="664" y="739" on="0"/>
        <pt x="631" y="593" on="0"/>
        <pt x="574" y="458" on="0"/>
        <pt x="490" y="357" on="0"/>
        <pt x="375" y="301" on="0"/>
        <pt x="299" y="307" on="1"/>
        <pt x="301" y="267" on="0"/>
        <pt x="304" y="188" on="0"/>
        <pt x="306" y="149" on="1"/>
        <pt x="310" y="95" on="0"/>
        <pt x="358" y="22" on="0"/>
        <pt x="409" y="5" on="1"/>
        <pt x="409" y="0" on="1"/>
        <pt x="48" y="0" on="1"/>
        <pt x="48" y="5" on="1"/>
        <pt x="99" y="22" on="0"/>
        <pt x="143" y="100" on="0"/>
        <pt x="147" y="153" on="1"/>
        <pt x="154" y="314" on="0"/>
        <pt x="163" y="590" on="0"/>
        <pt x="163" y="721" on="1"/>
        <pt x="163" y="838" on="0"/>
        <pt x="160" y="1068" on="0"/>
        <pt x="148" y="1194" on="1"/>
        <pt x="143" y="1241" on="0"/>
        <pt x="94" y="1308" on="0"/>
        <pt x="48" y="1322" on="1"/>
      </contour>
      <contour>
        <pt x="297" y="684" on="1"/>
        <pt x="297" y="618" on="0"/>
        <pt x="298" y="488" on="0"/>
        <pt x="299" y="422" on="1"/>
        <pt x="419" y="422" on="0"/>
        <pt x="518" y="684" on="0"/>
        <pt x="518" y="947" on="1"/>
        <pt x="518" y="1079" on="0"/>
        <pt x="455" y="1220" on="0"/>
        <pt x="392" y="1220" on="1"/>
        <pt x="372" y="1220" on="0"/>
        <pt x="326" y="1219" on="0"/>
        <pt x="306" y="1217" on="1"/>
        <pt x="306" y="1177" on="1"/>
        <pt x="303" y="1089" on="0"/>
        <pt x="301" y="1001" on="1"/>
        <pt x="300" y="963" on="0"/>
        <pt x="299" y="881" on="0"/>
        <pt x="298" y="799" on="0"/>
        <pt x="297" y="719" on="0"/>
      </contour>
    </TTGlyph>
    <TTGlyph name="Q" xMin="69" yMin="-232" xMax="895" yMax="1317">
      <contour>
        <pt x="891" y="-232" on="1"/>
        <pt x="883" y="-209" on="0"/>
        <pt x="840" y="-136" on="0"/>
        <pt x="747" y="-67" on="0"/>
        <pt x="594" y="-18" on="0"/>
        <pt x="476" y="-18" on="1"/>
        <pt x="447" y="-18" on="0"/>
        <pt x="391" y="-26" on="0"/>
        <pt x="344" y="-34" on="0"/>
        <pt x="310" y="-37" on="0"/>
        <pt x="295" y="-28" on="0"/>
        <pt x="302" y="-3" on="0"/>
        <pt x="320" y="22" on="1"/>
        <pt x="263" y="54" on="0"/>
        <pt x="171" y="168" on="0"/>
        <pt x="105" y="327" on="0"/>
        <pt x="69" y="529" on="0"/>
        <pt x="69" y="649" on="1"/>
        <pt x="69" y="809" on="0"/>
        <pt x="131" y="1058" on="0"/>
        <pt x="240" y="1228" on="0"/>
        <pt x="387" y="1317" on="0"/>
        <pt x="472" y="1317" on="1"/>
        <pt x="553" y="1317" on="0"/>
        <pt x="697" y="1228" on="0"/>
        <pt x="805" y="1058" on="0"/>
        <pt x="867" y="809" on="0"/>
        <pt x="867" y="649" on="1"/>
        <pt x="867" y="550" on="0"/>
        <pt x="840" y="376" on="0"/>
        <pt x="790" y="232" on="0"/>
        <pt x="722" y="117" on="0"/>
        <pt x="681" y="76" on="1"/>
        <pt x="726" y="69" on="0"/>
        <pt x="789" y="53" on="0"/>
        <pt x="810" y="45" on="1"/>
        <pt x="834" y="36" on="0"/>
        <pt x="850" y="28" on="1"/>
        <pt x="895" y="-230" on="1"/>
      </contour>
      <contour>
        <pt x="445" y="92" on="1"/>
        <pt x="450" y="91" on="0"/>
        <pt x="462" y="91" on="1"/>
        <pt x="523" y="91" on="0"/>
        <pt x="616" y="187" on="0"/>
        <pt x="677" y="343" on="0"/>
        <pt x="708" y="542" on="0"/>
        <pt x="708" y="646" on="1"/>
        <pt x="708" y="716" on="0"/>
        <pt x="694" y="854" on="0"/>
        <pt x="667" y="978" on="0"/>
        <pt x="625" y="1085" on="0"/>
        <pt x="570" y="1163" on="0"/>
        <pt x="502" y="1207" on="0"/>
        <pt x="461" y="1207" on="1"/>
        <pt x="422" y="1207" on="0"/>
        <pt x="357" y="1162" on="0"/>
        <pt x="305" y="1082" on="0"/>
        <pt x="265" y="974" on="0"/>
        <pt x="238" y="848" on="0"/>
        <pt x="225" y="708" on="0"/>
        <pt x="225" y="638" on="1"/>
        <pt x="225" y="538" on="0"/>
        <pt x="252" y="347" on="0"/>
        <pt x="307" y="195" on="0"/>
        <pt x="389" y="98" on="0"/>
      </contour>
    </TTGlyph>
    <TTGlyph name="R" xMin="48" yMin="-220" xMax="879" yMax="1327">
      <contour>
        <pt x="672" y="67" on="1"/>
        <pt x="683" y="39" on="0"/>
        <pt x="707" y="-12" on="0"/>
        <pt x="737" y="-52" on="0"/>
        <pt x="775" y="-76" on="0"/>
        <pt x="799" y="-76" on="1"/>
        <pt x="815" y="-76" on="0"/>
        <pt x="852" y="-63" on="0"/>
        <pt x="874" y="-47" on="1"/>
        <pt x="879" y="-50" on="1"/>
        <pt x="807" y="-220" on="1"/>
        <pt x="743" y="-220" on="0"/>
        <pt x="650" y="-180" on="0"/>
        <pt x="584" y="-112" on="0"/>
        <pt x="541" y="-20" on="0"/>
        <pt x="527" y="33" on="1"/>
        <pt x="376" y="588" on="1"/>
        <pt x="373" y="586" on="0"/>
        <pt x="351" y="583" on="0"/>
        <pt x="326" y="580" on="0"/>
        <pt x="303" y="577" on="0"/>
        <pt x="299" y="577" on="1"/>
        <pt x="300" y="527" on="0"/>
        <pt x="301" y="418" on="0"/>
        <pt x="303" y="307" on="0"/>
        <pt x="305" y="199" on="0"/>
        <pt x="306" y="149" on="1"/>
        <pt x="310" y="95" on="0"/>
        <pt x="358" y="22" on="0"/>
        <pt x="409" y="5" on="1"/>
        <pt x="409" y="0" on="1"/>
        <pt x="48" y="0" on="1"/>
        <pt x="48" y="5" on="1"/>
        <pt x="99" y="22" on="0"/>
        <pt x="143" y="100" on="0"/>
        <pt x="147" y="153" on="1"/>
        <pt x="154" y="314" on="0"/>
        <pt x="163" y="590" on="0"/>
        <pt x="163" y="721" on="1"/>
        <pt x="163" y="838" on="0"/>
        <pt x="160" y="1068" on="0"/>
        <pt x="148" y="1194" on="1"/>
        <pt x="143" y="1241" on="0"/>
        <pt x="94" y="1308" on="0"/>
        <pt x="48" y="1322" on="1"/>
        <pt x="48" y="1327" on="1"/>
        <pt x="403" y="1327" on="1"/>
        <pt x="465" y="1327" on="0"/>
        <pt x="573" y="1288" on="0"/>
        <pt x="652" y="1212" on="0"/>
        <pt x="698" y="1100" on="0"/>
        <pt x="698" y="1027" on="1"/>
        <pt x="698" y="879" on="0"/>
        <pt x="590" y="679" on="0"/>
        <pt x="501" y="632" on="1"/>
        <pt x="539" y="494" on="0"/>
        <pt x="617" y="216" on="0"/>
      </contour>
      <contour>
        <pt x="297" y="774" on="1"/>
        <pt x="297" y="754" on="0"/>
        <pt x="296" y="715" on="0"/>
        <pt x="297" y="692" on="1"/>
        <pt x="422" y="692" on="0"/>
        <pt x="533" y="860" on="0"/>
        <pt x="533" y="1027" on="1"/>
        <pt x="533" y="1121" on="0"/>
        <pt x="460" y="1220" on="0"/>
        <pt x="387" y="1220" on="1"/>
        <pt x="369" y="1220" on="0"/>
        <pt x="323" y="1219" on="0"/>
        <pt x="306" y="1217" on="1"/>
        <pt x="306" y="1177" on="1"/>
        <pt x="303" y="1104" on="0"/>
        <pt x="301" y="1032" on="1"/>
        <pt x="299" y="970" on="0"/>
        <pt x="297" y="831" on="0"/>
      </contour>
    </TTGlyph>
    <TTGlyph name="S" xMin="33" yMin="-18" xMax="620" yMax="1326">
      <contour>
        <pt x="283" y="88" on="1"/>
        <pt x="312" y="88" on="0"/>
        <pt x="362" y="113" on="0"/>
        <pt x="398" y="155" on="0"/>
        <pt x="418" y="207" on="0"/>
        <pt x="418" y="234" on="1"/>
        <pt x="418" y="308" on="0"/>
        <pt x="366" y="440" on="0"/>
        <pt x="288" y="565" on="0"/>
        <pt x="197" y="689" on="0"/>
        <pt x="119" y="818" on="0"/>
        <pt x="67" y="958" on="0"/>
        <pt x="67" y="1038" on="1"/>
        <pt x="67" y="1095" on="0"/>
        <pt x="110" y="1199" on="0"/>
        <pt x="190" y="1279" on="0"/>
        <pt x="305" y="1326" on="0"/>
        <pt x="378" y="1326" on="1"/>
        <pt x="435" y="1326" on="0"/>
        <pt x="559" y="1261" on="0"/>
        <pt x="620" y="1200" on="1"/>
        <pt x="479" y="971" on="1"/>
        <pt x="475" y="974" on="1"/>
        <pt x="485" y="1014" on="0"/>
        <pt x="485" y="1051" on="1"/>
        <pt x="485" y="1092" on="0"/>
        <pt x="462" y="1155" on="0"/>
        <pt x="427" y="1197" on="0"/>
        <pt x="385" y="1219" on="0"/>
        <pt x="365" y="1219" on="1"/>
        <pt x="333" y="1219" on="0"/>
        <pt x="279" y="1196" on="0"/>
        <pt x="240" y="1157" on="0"/>
        <pt x="218" y="1103" on="0"/>
        <pt x="218" y="1073" on="1"/>
        <pt x="218" y="1011" on="0"/>
        <pt x="272" y="880" on="0"/>
        <pt x="353" y="746" on="0"/>
        <pt x="447" y="608" on="0"/>
        <pt x="528" y="470" on="0"/>
        <pt x="582" y="333" on="0"/>
        <pt x="582" y="266" on="1"/>
        <pt x="582" y="208" on="0"/>
        <pt x="541" y="105" on="0"/>
        <pt x="462" y="27" on="0"/>
        <pt x="348" y="-18" on="0"/>
        <pt x="275" y="-18" on="1"/>
        <pt x="218" y="-18" on="0"/>
        <pt x="94" y="47" on="0"/>
        <pt x="33" y="108" on="1"/>
        <pt x="174" y="307" on="1"/>
        <pt x="178" y="304" on="1"/>
        <pt x="170" y="286" on="0"/>
        <pt x="164" y="251" on="0"/>
        <pt x="164" y="234" on="1"/>
        <pt x="164" y="203" on="0"/>
        <pt x="185" y="149" on="0"/>
        <pt x="218" y="110" on="0"/>
        <pt x="261" y="88" on="0"/>
      </contour>
    </TTGlyph>
    <TTGlyph name="Scaron" xMin="33" yMin="-18" xMax="620" yMax="1766">
      <component glyphName="S" x="0" y="0" flags="0x1204"/>
      <component glyphName="caron" x="83" y="364" flags="0x1004"/>
    </TTGlyph>
    <TTGlyph name="Scedilla" xMin="33" yMin="-372" xMax="620" yMax="1326">
      <component glyphName="S" x="0" y="0" flags="0x1204"/>
      <component glyphName="cedilla" x="34" y="0" flags="0x1004"/>
    </TTGlyph>
    <TTGlyph name="T" xMin="31" yMin="0" xMax="695" yMax="1327">
      <contour>
        <pt x="31" y="1327" on="1"/>
        <pt x="116" y="1322" on="0"/>
        <pt x="281" y="1317" on="0"/>
        <pt x="365" y="1317" on="1"/>
        <pt x="449" y="1317" on="0"/>
        <pt x="612" y="1322" on="0"/>
        <pt x="695" y="1327" on="1"/>
        <pt x="695" y="1274" on="1"/>
        <pt x="695" y="1222" on="0"/>
        <pt x="692" y="1114" on="1"/>
        <pt x="686" y="1114" on="1"/>
        <pt x="686" y="1147" on="0"/>
        <pt x="639" y="1188" on="0"/>
        <pt x="567" y="1210" on="0"/>
        <pt x="480" y="1219" on="0"/>
        <pt x="440" y="1221" on="1"/>
        <pt x="439" y="1192" on="0"/>
        <pt x="437" y="1091" on="0"/>
        <pt x="436" y="966" on="0"/>
        <pt x="434" y="827" on="0"/>
        <pt x="433" y="694" on="0"/>
        <pt x="432" y="579" on="0"/>
        <pt x="432" y="540" on="1"/>
        <pt x="432" y="441" on="0"/>
        <pt x="434" y="246" on="0"/>
        <pt x="441" y="149" on="1"/>
        <pt x="444" y="95" on="0"/>
        <pt x="493" y="22" on="0"/>
        <pt x="544" y="5" on="1"/>
        <pt x="544" y="0" on="1"/>
        <pt x="183" y="0" on="1"/>
        <pt x="183" y="5" on="1"/>
        <pt x="234" y="22" on="0"/>
        <pt x="279" y="100" on="0"/>
        <pt x="282" y="153" on="1"/>
        <pt x="287" y="234" on="0"/>
        <pt x="293" y="382" on="0"/>
        <pt x="297" y="522" on="0"/>
        <pt x="298" y="656" on="0"/>
        <pt x="298" y="721" on="1"/>
        <pt x="298" y="844" on="0"/>
        <pt x="296" y="1087" on="0"/>
        <pt x="286" y="1221" on="1"/>
        <pt x="247" y="1219" on="0"/>
        <pt x="160" y="1210" on="0"/>
        <pt x="87" y="1188" on="0"/>
        <pt x="39" y="1147" on="0"/>
        <pt x="39" y="1114" on="1"/>
        <pt x="34" y="1114" on="1"/>
        <pt x="32" y="1168" on="0"/>
        <pt x="31" y="1248" on="0"/>
        <pt x="31" y="1274" on="1"/>
      </contour>
    </TTGlyph>
    <TTGlyph name="Thorn" xMin="43" yMin="0" xMax="673" yMax="1327">
      <contour>
        <pt x="158" y="721" on="1"/>
        <pt x="158" y="832" on="0"/>
        <pt x="159" y="1053" on="0"/>
        <pt x="151" y="1174" on="1"/>
        <pt x="147" y="1227" on="0"/>
        <pt x="103" y="1305" on="0"/>
        <pt x="52" y="1322" on="1"/>
        <pt x="52" y="1327" on="1"/>
        <pt x="413" y="1327" on="1"/>
        <pt x="413" y="1322" on="1"/>
        <pt x="356" y="1303" on="0"/>
        <pt x="308" y="1214" on="0"/>
        <pt x="308" y="1150" on="1"/>
        <pt x="438" y="1150" on="1"/>
        <pt x="486" y="1150" on="0"/>
        <pt x="571" y="1102" on="0"/>
        <pt x="636" y="1009" on="0"/>
        <pt x="673" y="874" on="0"/>
        <pt x="673" y="787" on="1"/>
        <pt x="673" y="743" on="0"/>
        <pt x="660" y="637" on="0"/>
        <pt x="629" y="530" on="0"/>
        <pt x="576" y="430" on="0"/>
        <pt x="498" y="353" on="0"/>
        <pt x="392" y="306" on="0"/>
        <pt x="322" y="306" on="1"/>
        <pt x="315" y="306" on="0"/>
        <pt x="301" y="306" on="0"/>
        <pt x="294" y="307" on="1"/>
        <pt x="296" y="258" on="0"/>
        <pt x="297" y="163" on="0"/>
        <pt x="315" y="81" on="0"/>
        <pt x="359" y="20" on="0"/>
        <pt x="404" y="5" on="1"/>
        <pt x="404" y="0" on="1"/>
        <pt x="43" y="0" on="1"/>
        <pt x="43" y="5" on="1"/>
        <pt x="94" y="22" on="0"/>
        <pt x="138" y="100" on="0"/>
        <pt x="142" y="153" on="1"/>
        <pt x="149" y="314" on="0"/>
        <pt x="158" y="590" on="0"/>
      </contour>
      <contour>
        <pt x="292" y="684" on="1"/>
        <pt x="292" y="618" on="0"/>
        <pt x="293" y="488" on="0"/>
        <pt x="294" y="422" on="1"/>
        <pt x="354" y="422" on="0"/>
        <pt x="437" y="469" on="0"/>
        <pt x="490" y="561" on="0"/>
        <pt x="513" y="698" on="0"/>
        <pt x="513" y="787" on="1"/>
        <pt x="513" y="909" on="0"/>
        <pt x="450" y="1043" on="0"/>
        <pt x="387" y="1043" on="1"/>
        <pt x="367" y="1043" on="0"/>
        <pt x="321" y="1042" on="0"/>
        <pt x="301" y="1040" on="1"/>
        <pt x="301" y="1000" on="1"/>
        <pt x="298" y="942" on="0"/>
        <pt x="296" y="885" on="1"/>
        <pt x="294" y="836" on="0"/>
        <pt x="292" y="727" on="0"/>
      </contour>
    </TTGlyph>
    <TTGlyph name="U" xMin="29" yMin="-30" xMax="887" yMax="1327">
      <contour>
        <pt x="887" y="1322" on="1"/>
        <pt x="784" y="1289" on="0"/>
        <pt x="784" y="1177" on="1"/>
        <pt x="781" y="1089" on="0"/>
        <pt x="779" y="1001" on="1"/>
        <pt x="778" y="963" on="0"/>
        <pt x="777" y="881" on="0"/>
        <pt x="776" y="799" on="0"/>
        <pt x="775" y="719" on="0"/>
        <pt x="775" y="684" on="1"/>
        <pt x="775" y="609" on="0"/>
        <pt x="776" y="483" on="0"/>
        <pt x="777" y="361" on="0"/>
        <pt x="777" y="236" on="0"/>
        <pt x="777" y="163" on="1"/>
        <pt x="780" y="128" on="0"/>
        <pt x="831" y="80" on="0"/>
        <pt x="887" y="69" on="1"/>
        <pt x="887" y="64" on="1"/>
        <pt x="639" y="-30" on="1"/>
        <pt x="634" y="-17" on="0"/>
        <pt x="629" y="24" on="0"/>
        <pt x="628" y="50" on="1"/>
        <pt x="574" y="14" on="0"/>
        <pt x="451" y="-18" on="0"/>
        <pt x="394" y="-18" on="1"/>
        <pt x="347" y="-18" on="0"/>
        <pt x="262" y="18" on="0"/>
        <pt x="195" y="90" on="0"/>
        <pt x="152" y="199" on="0"/>
        <pt x="147" y="272" on="1"/>
        <pt x="141" y="378" on="0"/>
        <pt x="137" y="600" on="0"/>
        <pt x="135" y="831" on="0"/>
        <pt x="128" y="1071" on="0"/>
        <pt x="119" y="1194" on="1"/>
        <pt x="115" y="1241" on="0"/>
        <pt x="71" y="1308" on="0"/>
        <pt x="29" y="1322" on="1"/>
        <pt x="29" y="1327" on="1"/>
        <pt x="390" y="1327" on="1"/>
        <pt x="390" y="1322" on="1"/>
        <pt x="344" y="1305" on="0"/>
        <pt x="292" y="1233" on="0"/>
        <pt x="292" y="1177" on="1"/>
        <pt x="289" y="1069" on="0"/>
        <pt x="287" y="962" on="1"/>
        <pt x="286" y="916" on="0"/>
        <pt x="285" y="816" on="0"/>
        <pt x="284" y="715" on="0"/>
        <pt x="283" y="617" on="0"/>
        <pt x="283" y="574" on="1"/>
        <pt x="283" y="423" on="0"/>
        <pt x="302" y="237" on="0"/>
        <pt x="342" y="134" on="0"/>
        <pt x="405" y="99" on="0"/>
        <pt x="449" y="99" on="1"/>
        <pt x="488" y="99" on="0"/>
        <pt x="583" y="128" on="0"/>
        <pt x="628" y="161" on="1"/>
        <pt x="631" y="319" on="0"/>
        <pt x="634" y="592" on="0"/>
        <pt x="634" y="721" on="1"/>
        <pt x="634" y="838" on="0"/>
        <pt x="631" y="1068" on="0"/>
        <pt x="619" y="1194" on="1"/>
        <pt x="614" y="1241" on="0"/>
        <pt x="565" y="1308" on="0"/>
        <pt x="519" y="1322" on="1"/>
        <pt x="519" y="1327" on="1"/>
        <pt x="887" y="1327" on="1"/>
      </contour>
    </TTGlyph>
    <TTGlyph name="Uacute" xMin="29" yMin="-30" xMax="887" yMax="1802">
      <component glyphName="U" x="0" y="0" flags="0x1204"/>
      <component glyphName="acute" x="302" y="364" flags="0x1004"/>
    </TTGlyph>
    <TTGlyph name="Ucircumflex" xMin="29" yMin="-30" xMax="887" yMax="1766">
      <component glyphName="U" x="0" y="0" flags="0x1204"/>
      <component glyphName="circumflex" x="217" y="364" flags="0x1004"/>
    </TTGlyph>
    <TTGlyph name="Udieresis" xMin="29" yMin="-30" xMax="887" yMax="1664">
      <component glyphName="U" x="0" y="0" flags="0x1204"/>
      <component glyphName="dieresis" x="138" y="364" flags="0x1004"/>
    </TTGlyph>
    <TTGlyph name="Ugrave" xMin="29" yMin="-30" xMax="887" yMax="1802">
      <component glyphName="U" x="0" y="0" flags="0x1204"/>
      <component glyphName="grave" x="336" y="364" flags="0x1004"/>
    </TTGlyph>
    <TTGlyph name="V" xMin="-41" yMin="0" xMax="781" yMax="1327">
      <contour>
        <pt x="189" y="5" on="1"/>
        <pt x="204" y="11" on="1"/>
        <pt x="240" y="27" on="0"/>
        <pt x="271" y="91" on="0"/>
        <pt x="268" y="133" on="1"/>
        <pt x="257" y="259" on="0"/>
        <pt x="220" y="489" on="0"/>
        <pt x="200" y="606" on="1"/>
        <pt x="177" y="736" on="0"/>
        <pt x="120" y="1013" on="0"/>
        <pt x="84" y="1174" on="1"/>
        <pt x="71" y="1227" on="0"/>
        <pt x="14" y="1305" on="0"/>
        <pt x="-40" y="1322" on="1"/>
        <pt x="-41" y="1327" on="1"/>
        <pt x="319" y="1327" on="1"/>
        <pt x="320" y="1322" on="1"/>
        <pt x="272" y="1305" on="0"/>
        <pt x="237" y="1232" on="0"/>
        <pt x="242" y="1178" on="1"/>
        <pt x="258" y="1045" on="0"/>
        <pt x="304" y="779" on="0"/>
        <pt x="327" y="643" on="1"/>
        <pt x="336" y="579" on="0"/>
        <pt x="358" y="426" on="0"/>
        <pt x="370" y="354" on="1"/>
        <pt x="381" y="426" on="0"/>
        <pt x="404" y="579" on="0"/>
        <pt x="413" y="643" on="1"/>
        <pt x="436" y="779" on="0"/>
        <pt x="482" y="1045" on="0"/>
        <pt x="498" y="1178" on="1"/>
        <pt x="503" y="1232" on="0"/>
        <pt x="468" y="1305" on="0"/>
        <pt x="420" y="1322" on="1"/>
        <pt x="421" y="1327" on="1"/>
        <pt x="781" y="1327" on="1"/>
        <pt x="780" y="1322" on="1"/>
        <pt x="726" y="1305" on="0"/>
        <pt x="669" y="1227" on="0"/>
        <pt x="656" y="1174" on="1"/>
        <pt x="620" y="1013" on="0"/>
        <pt x="563" y="736" on="0"/>
        <pt x="540" y="606" on="1"/>
        <pt x="520" y="489" on="0"/>
        <pt x="483" y="259" on="0"/>
        <pt x="472" y="133" on="1"/>
        <pt x="468" y="91" on="0"/>
        <pt x="500" y="27" on="0"/>
        <pt x="535" y="11" on="1"/>
        <pt x="551" y="5" on="1"/>
        <pt x="552" y="0" on="1"/>
        <pt x="188" y="0" on="1"/>
      </contour>
    </TTGlyph>
    <TTGlyph name="W" xMin="-42" yMin="0" xMax="1239" yMax="1327">
      <contour>
        <pt x="647" y="5" on="1"/>
        <pt x="662" y="11" on="1"/>
        <pt x="698" y="22" on="0"/>
        <pt x="729" y="72" on="0"/>
        <pt x="726" y="103" on="1"/>
        <pt x="716" y="222" on="0"/>
        <pt x="684" y="445" on="0"/>
        <pt x="648" y="664" on="0"/>
        <pt x="612" y="885" on="0"/>
        <pt x="598" y="1002" on="1"/>
        <pt x="584" y="885" on="0"/>
        <pt x="548" y="664" on="0"/>
        <pt x="512" y="445" on="0"/>
        <pt x="481" y="222" on="0"/>
        <pt x="471" y="103" on="1"/>
        <pt x="467" y="72" on="0"/>
        <pt x="499" y="22" on="0"/>
        <pt x="534" y="11" on="1"/>
        <pt x="550" y="5" on="1"/>
        <pt x="551" y="0" on="1"/>
        <pt x="187" y="0" on="1"/>
        <pt x="188" y="5" on="1"/>
        <pt x="203" y="11" on="1"/>
        <pt x="239" y="27" on="0"/>
        <pt x="270" y="91" on="0"/>
        <pt x="267" y="133" on="1"/>
        <pt x="256" y="259" on="0"/>
        <pt x="219" y="489" on="0"/>
        <pt x="199" y="606" on="1"/>
        <pt x="176" y="736" on="0"/>
        <pt x="119" y="1013" on="0"/>
        <pt x="83" y="1174" on="1"/>
        <pt x="70" y="1227" on="0"/>
        <pt x="13" y="1305" on="0"/>
        <pt x="-41" y="1322" on="1"/>
        <pt x="-42" y="1327" on="1"/>
        <pt x="318" y="1327" on="1"/>
        <pt x="319" y="1322" on="1"/>
        <pt x="271" y="1305" on="0"/>
        <pt x="236" y="1232" on="0"/>
        <pt x="241" y="1178" on="1"/>
        <pt x="257" y="1036" on="0"/>
        <pt x="303" y="748" on="0"/>
        <pt x="326" y="603" on="1"/>
        <pt x="335" y="532" on="0"/>
        <pt x="357" y="363" on="0"/>
        <pt x="369" y="284" on="1"/>
        <pt x="380" y="363" on="0"/>
        <pt x="403" y="532" on="0"/>
        <pt x="412" y="603" on="1"/>
        <pt x="435" y="748" on="0"/>
        <pt x="481" y="1036" on="0"/>
        <pt x="497" y="1178" on="1"/>
        <pt x="502" y="1230" on="0"/>
        <pt x="468" y="1303" on="0"/>
        <pt x="423" y="1320" on="1"/>
        <pt x="418" y="1322" on="1"/>
        <pt x="417" y="1327" on="1"/>
        <pt x="780" y="1327" on="1"/>
        <pt x="779" y="1322" on="1"/>
        <pt x="773" y="1320" on="1"/>
        <pt x="728" y="1303" on="0"/>
        <pt x="695" y="1230" on="0"/>
        <pt x="700" y="1178" on="1"/>
        <pt x="716" y="1036" on="0"/>
        <pt x="762" y="748" on="0"/>
        <pt x="785" y="603" on="1"/>
        <pt x="794" y="532" on="0"/>
        <pt x="816" y="363" on="0"/>
        <pt x="828" y="284" on="1"/>
        <pt x="839" y="363" on="0"/>
        <pt x="862" y="532" on="0"/>
        <pt x="871" y="603" on="1"/>
        <pt x="894" y="748" on="0"/>
        <pt x="940" y="1036" on="0"/>
        <pt x="956" y="1178" on="1"/>
        <pt x="961" y="1232" on="0"/>
        <pt x="926" y="1305" on="0"/>
        <pt x="878" y="1322" on="1"/>
        <pt x="879" y="1327" on="1"/>
        <pt x="1239" y="1327" on="1"/>
        <pt x="1238" y="1322" on="1"/>
        <pt x="1184" y="1305" on="0"/>
        <pt x="1127" y="1227" on="0"/>
        <pt x="1114" y="1174" on="1"/>
        <pt x="1078" y="1013" on="0"/>
        <pt x="1021" y="736" on="0"/>
        <pt x="998" y="606" on="1"/>
        <pt x="978" y="489" on="0"/>
        <pt x="941" y="259" on="0"/>
        <pt x="930" y="133" on="1"/>
        <pt x="926" y="91" on="0"/>
        <pt x="958" y="27" on="0"/>
        <pt x="993" y="11" on="1"/>
        <pt x="1009" y="5" on="1"/>
        <pt x="1010" y="0" on="1"/>
        <pt x="646" y="0" on="1"/>
      </contour>
    </TTGlyph>
    <TTGlyph name="X" xMin="-40" yMin="0" xMax="820" yMax="1327">
      <contour>
        <pt x="-40" y="1327" on="1"/>
        <pt x="320" y="1327" on="1"/>
        <pt x="322" y="1322" on="1"/>
        <pt x="281" y="1308" on="0"/>
        <pt x="257" y="1241" on="0"/>
        <pt x="270" y="1194" on="1"/>
        <pt x="296" y="1103" on="0"/>
        <pt x="354" y="933" on="0"/>
        <pt x="385" y="848" on="1"/>
        <pt x="413" y="933" on="0"/>
        <pt x="464" y="1103" on="0"/>
        <pt x="486" y="1194" on="1"/>
        <pt x="497" y="1241" on="0"/>
        <pt x="470" y="1308" on="0"/>
        <pt x="428" y="1322" on="1"/>
        <pt x="429" y="1327" on="1"/>
        <pt x="790" y="1327" on="1"/>
        <pt x="789" y="1322" on="1"/>
        <pt x="676" y="1289" on="0"/>
        <pt x="638" y="1177" on="1"/>
        <pt x="606" y="1089" on="0"/>
        <pt x="575" y="1001" on="1"/>
        <pt x="561" y="963" on="0"/>
        <pt x="532" y="881" on="0"/>
        <pt x="504" y="799" on="0"/>
        <pt x="477" y="719" on="0"/>
        <pt x="465" y="684" on="1"/>
        <pt x="463" y="678" on="0"/>
        <pt x="459" y="666" on="0"/>
        <pt x="457" y="660" on="1"/>
        <pt x="502" y="543" on="0"/>
        <pt x="603" y="296" on="0"/>
        <pt x="664" y="153" on="1"/>
        <pt x="687" y="100" on="0"/>
        <pt x="762" y="22" on="0"/>
        <pt x="819" y="5" on="1"/>
        <pt x="820" y="0" on="1"/>
        <pt x="460" y="0" on="1"/>
        <pt x="459" y="5" on="1"/>
        <pt x="504" y="22" on="0"/>
        <pt x="524" y="95" on="0"/>
        <pt x="507" y="149" on="1"/>
        <pt x="481" y="229" on="0"/>
        <pt x="424" y="390" on="0"/>
        <pt x="394" y="471" on="1"/>
        <pt x="368" y="390" on="0"/>
        <pt x="318" y="229" on="0"/>
        <pt x="296" y="149" on="1"/>
        <pt x="282" y="95" on="0"/>
        <pt x="306" y="22" on="0"/>
        <pt x="351" y="5" on="1"/>
        <pt x="350" y="0" on="1"/>
        <pt x="-10" y="0" on="1"/>
        <pt x="-9" y="5" on="1"/>
        <pt x="48" y="22" on="0"/>
        <pt x="119" y="100" on="0"/>
        <pt x="140" y="153" on="1"/>
        <pt x="194" y="296" on="0"/>
        <pt x="283" y="543" on="0"/>
        <pt x="322" y="660" on="1"/>
        <pt x="314" y="684" on="1"/>
        <pt x="301" y="719" on="0"/>
        <pt x="270" y="799" on="0"/>
        <pt x="238" y="881" on="0"/>
        <pt x="205" y="963" on="0"/>
        <pt x="190" y="1001" on="1"/>
        <pt x="155" y="1089" on="0"/>
        <pt x="119" y="1177" on="1"/>
        <pt x="75" y="1289" on="0"/>
        <pt x="-38" y="1322" on="1"/>
      </contour>
    </TTGlyph>
    <TTGlyph name="Y" xMin="-46" yMin="0" xMax="776" yMax="1327">
      <contour>
        <pt x="181" y="5" on="1"/>
        <pt x="229" y="16" on="0"/>
        <pt x="284" y="128" on="0"/>
        <pt x="286" y="217" on="1"/>
        <pt x="289" y="331" on="1"/>
        <pt x="279" y="404" on="0"/>
        <pt x="250" y="542" on="0"/>
        <pt x="217" y="677" on="0"/>
        <pt x="181" y="809" on="0"/>
        <pt x="165" y="876" on="1"/>
        <pt x="146" y="945" on="0"/>
        <pt x="102" y="1093" on="0"/>
        <pt x="79" y="1174" on="1"/>
        <pt x="64" y="1226" on="0"/>
        <pt x="9" y="1305" on="0"/>
        <pt x="-45" y="1322" on="1"/>
        <pt x="-46" y="1327" on="1"/>
        <pt x="314" y="1327" on="1"/>
        <pt x="315" y="1322" on="1"/>
        <pt x="267" y="1305" on="0"/>
        <pt x="230" y="1232" on="0"/>
        <pt x="237" y="1178" on="1"/>
        <pt x="248" y="1102" on="0"/>
        <pt x="281" y="961" on="0"/>
        <pt x="316" y="823" on="0"/>
        <pt x="351" y="682" on="0"/>
        <pt x="365" y="606" on="1"/>
        <pt x="379" y="682" on="0"/>
        <pt x="414" y="823" on="0"/>
        <pt x="450" y="961" on="0"/>
        <pt x="482" y="1102" on="0"/>
        <pt x="493" y="1178" on="1"/>
        <pt x="499" y="1232" on="0"/>
        <pt x="463" y="1305" on="0"/>
        <pt x="415" y="1322" on="1"/>
        <pt x="416" y="1327" on="1"/>
        <pt x="776" y="1327" on="1"/>
        <pt x="775" y="1322" on="1"/>
        <pt x="721" y="1305" on="0"/>
        <pt x="666" y="1226" on="0"/>
        <pt x="651" y="1174" on="1"/>
        <pt x="628" y="1093" on="0"/>
        <pt x="584" y="945" on="0"/>
        <pt x="565" y="876" on="1"/>
        <pt x="549" y="813" on="0"/>
        <pt x="515" y="690" on="0"/>
        <pt x="483" y="565" on="0"/>
        <pt x="455" y="437" on="0"/>
        <pt x="445" y="369" on="1"/>
        <pt x="443" y="223" on="1"/>
        <pt x="443" y="185" on="0"/>
        <pt x="446" y="120" on="0"/>
        <pt x="464" y="66" on="0"/>
        <pt x="503" y="21" on="0"/>
        <pt x="539" y="5" on="1"/>
        <pt x="539" y="0" on="1"/>
        <pt x="181" y="0" on="1"/>
      </contour>
    </TTGlyph>
    <TTGlyph name="Yacute" xMin="-46" yMin="0" xMax="776" yMax="1802">
      <component glyphName="Y" x="0" y="0" flags="0x1204"/>
      <component glyphName="acute" x="207" y="364" flags="0x1004"/>
    </TTGlyph>
    <TTGlyph name="Ydieresis" xMin="-46" yMin="0" xMax="776" yMax="1664">
      <component glyphName="Y" x="0" y="0" flags="0x1204"/>
      <component glyphName="dieresis" x="43" y="364" flags="0x1004"/>
    </TTGlyph>
    <TTGlyph name="Z" xMin="-13" yMin="0" xMax="700" yMax="1327">
      <contour>
        <pt x="285" y="684" on="1"/>
        <pt x="318" y="817" on="0"/>
        <pt x="375" y="1077" on="0"/>
        <pt x="401" y="1213" on="1"/>
        <pt x="341" y="1211" on="0"/>
        <pt x="217" y="1202" on="0"/>
        <pt x="115" y="1174" on="0"/>
        <pt x="51" y="1120" on="0"/>
        <pt x="52" y="1074" on="1"/>
        <pt x="43" y="1073" on="1"/>
        <pt x="43" y="1108" on="0"/>
        <pt x="44" y="1196" on="0"/>
        <pt x="46" y="1235" on="1"/>
        <pt x="48" y="1281" on="0"/>
        <pt x="50" y="1327" on="1"/>
        <pt x="700" y="1327" on="1"/>
        <pt x="700" y="1322" on="1"/>
        <pt x="644" y="1305" on="0"/>
        <pt x="572" y="1228" on="0"/>
        <pt x="553" y="1174" on="1"/>
        <pt x="512" y="1055" on="0"/>
        <pt x="457" y="832" on="0"/>
        <pt x="429" y="721" on="1"/>
        <pt x="397" y="594" on="0"/>
        <pt x="334" y="328" on="0"/>
        <pt x="301" y="173" on="1"/>
        <pt x="295" y="139" on="0"/>
        <pt x="296" y="114" on="1"/>
        <pt x="354" y="116" on="0"/>
        <pt x="473" y="126" on="0"/>
        <pt x="570" y="154" on="0"/>
        <pt x="635" y="208" on="0"/>
        <pt x="638" y="253" on="1"/>
        <pt x="647" y="254" on="1"/>
        <pt x="644" y="219" on="0"/>
        <pt x="634" y="131" on="0"/>
        <pt x="629" y="92" on="1"/>
        <pt x="624" y="46" on="0"/>
        <pt x="618" y="0" on="1"/>
        <pt x="-13" y="0" on="1"/>
        <pt x="-12" y="5" on="1"/>
        <pt x="47" y="23" on="0"/>
        <pt x="122" y="108" on="0"/>
        <pt x="140" y="169" on="1"/>
        <pt x="159" y="229" on="0"/>
        <pt x="198" y="360" on="0"/>
        <pt x="235" y="492" on="0"/>
        <pt x="270" y="623" on="0"/>
      </contour>
    </TTGlyph>
    <TTGlyph name="Zcaron" xMin="-13" yMin="0" xMax="700" yMax="1766">
      <component glyphName="Z" x="0" y="0" flags="0x1204"/>
      <component glyphName="caron" x="100" y="364" flags="0x1004"/>
    </TTGlyph>
    <TTGlyph name="a" xMin="54" yMin="-29" xMax="654" yMax="992">
      <contour>
        <pt x="248" y="672" on="1"/>
        <pt x="78" y="777" on="1"/>
        <pt x="91" y="848" on="0"/>
        <pt x="144" y="933" on="0"/>
        <pt x="209" y="978" on="0"/>
        <pt x="282" y="992" on="0"/>
        <pt x="317" y="992" on="1"/>
        <pt x="441" y="992" on="0"/>
        <pt x="564" y="814" on="0"/>
        <pt x="563" y="640" on="1"/>
        <pt x="563" y="549" on="0"/>
        <pt x="562" y="416" on="0"/>
        <pt x="562" y="322" on="0"/>
        <pt x="561" y="261" on="0"/>
        <pt x="561" y="222" on="0"/>
        <pt x="561" y="198" on="0"/>
        <pt x="561" y="188" on="1"/>
        <pt x="561" y="163" on="0"/>
        <pt x="567" y="107" on="0"/>
        <pt x="586" y="56" on="0"/>
        <pt x="623" y="15" on="0"/>
        <pt x="654" y="5" on="1"/>
        <pt x="654" y="0" on="1"/>
        <pt x="499" y="0" on="1"/>
        <pt x="476" y="14" on="0"/>
        <pt x="452" y="62" on="0"/>
        <pt x="446" y="91" on="1"/>
        <pt x="440" y="79" on="0"/>
        <pt x="414" y="38" on="0"/>
        <pt x="372" y="-1" on="0"/>
        <pt x="313" y="-29" on="0"/>
        <pt x="274" y="-29" on="1"/>
        <pt x="217" y="-29" on="0"/>
        <pt x="134" y="17" on="0"/>
        <pt x="80" y="95" on="0"/>
        <pt x="54" y="196" on="0"/>
        <pt x="54" y="250" on="1"/>
        <pt x="54" y="319" on="0"/>
        <pt x="97" y="456" on="0"/>
        <pt x="176" y="565" on="0"/>
        <pt x="286" y="633" on="0"/>
        <pt x="354" y="633" on="1"/>
        <pt x="388" y="633" on="0"/>
        <pt x="419" y="626" on="1"/>
        <pt x="419" y="706" on="0"/>
        <pt x="405" y="808" on="0"/>
        <pt x="377" y="866" on="0"/>
        <pt x="334" y="887" on="0"/>
        <pt x="306" y="887" on="1"/>
        <pt x="282" y="887" on="0"/>
        <pt x="249" y="871" on="0"/>
        <pt x="228" y="843" on="0"/>
        <pt x="219" y="806" on="0"/>
        <pt x="219" y="785" on="1"/>
        <pt x="219" y="757" on="0"/>
        <pt x="236" y="699" on="0"/>
        <pt x="250" y="675" on="1"/>
      </contour>
      <contour>
        <pt x="291" y="77" on="1"/>
        <pt x="329" y="77" on="0"/>
        <pt x="378" y="134" on="0"/>
        <pt x="407" y="218" on="0"/>
        <pt x="419" y="313" on="0"/>
        <pt x="419" y="351" on="1"/>
        <pt x="419" y="542" on="1"/>
        <pt x="390" y="552" on="0"/>
        <pt x="361" y="552" on="1"/>
        <pt x="321" y="552" on="0"/>
        <pt x="259" y="505" on="0"/>
        <pt x="217" y="429" on="0"/>
        <pt x="195" y="329" on="0"/>
        <pt x="195" y="277" on="1"/>
        <pt x="195" y="237" on="0"/>
        <pt x="207" y="165" on="0"/>
        <pt x="231" y="110" on="0"/>
        <pt x="267" y="77" on="0"/>
      </contour>
    </TTGlyph>
    <TTGlyph name="aacute" xMin="54" yMin="-29" xMax="654" yMax="1438">
      <component glyphName="a" x="0" y="0" flags="0x1204"/>
      <component glyphName="acute" x="190" y="0" flags="0x1004"/>
    </TTGlyph>
    <TTGlyph name="acircumflex" xMin="54" yMin="-29" xMax="654" yMax="1402">
      <component glyphName="a" x="0" y="0" flags="0x1204"/>
      <component glyphName="circumflex" x="105" y="0" flags="0x1004"/>
    </TTGlyph>
    <TTGlyph name="acute" xMin="44" yMin="1023" xMax="272" yMax="1438">
      <contour>
        <pt x="44" y="1043" on="1"/>
        <pt x="49" y="1120" on="0"/>
        <pt x="57" y="1262" on="0"/>
        <pt x="61" y="1317" on="1"/>
        <pt x="65" y="1381" on="0"/>
        <pt x="69" y="1438" on="1"/>
        <pt x="272" y="1438" on="1"/>
        <pt x="243" y="1370" on="0"/>
        <pt x="216" y="1299" on="1"/>
        <pt x="204" y="1269" on="0"/>
        <pt x="180" y="1200" on="0"/>
        <pt x="156" y="1129" on="0"/>
        <pt x="135" y="1057" on="0"/>
        <pt x="127" y="1023" on="1"/>
      </contour>
    </TTGlyph>
    <TTGlyph name="adieresis" xMin="54" yMin="-29" xMax="654" yMax="1300">
      <component glyphName="a" x="0" y="0" flags="0x1204"/>
      <component glyphName="dieresis" x="26" y="0" flags="0x1004"/>
    </TTGlyph>
    <TTGlyph name="ae" xMin="54" yMin="-29" xMax="1004" yMax="993">
      <contour>
        <pt x="785" y="341" on="1"/>
        <pt x="1004" y="321" on="1"/>
        <pt x="1004" y="231" on="0"/>
        <pt x="953" y="100" on="0"/>
        <pt x="874" y="13" on="0"/>
        <pt x="778" y="-29" on="0"/>
        <pt x="732" y="-29" on="1"/>
        <pt x="662" y="-29" on="0"/>
        <pt x="543" y="55" on="0"/>
        <pt x="501" y="139" on="1"/>
        <pt x="481" y="105" on="0"/>
        <pt x="434" y="44" on="0"/>
        <pt x="378" y="-2" on="0"/>
        <pt x="313" y="-29" on="0"/>
        <pt x="274" y="-29" on="1"/>
        <pt x="217" y="-29" on="0"/>
        <pt x="134" y="17" on="0"/>
        <pt x="80" y="95" on="0"/>
        <pt x="54" y="196" on="0"/>
        <pt x="54" y="250" on="1"/>
        <pt x="54" y="319" on="0"/>
        <pt x="97" y="456" on="0"/>
        <pt x="176" y="565" on="0"/>
        <pt x="286" y="633" on="0"/>
        <pt x="354" y="633" on="1"/>
        <pt x="388" y="633" on="0"/>
        <pt x="419" y="626" on="1"/>
        <pt x="419" y="706" on="0"/>
        <pt x="405" y="808" on="0"/>
        <pt x="377" y="865" on="0"/>
        <pt x="334" y="886" on="0"/>
        <pt x="306" y="886" on="1"/>
        <pt x="282" y="886" on="0"/>
        <pt x="249" y="870" on="0"/>
        <pt x="228" y="842" on="0"/>
        <pt x="219" y="806" on="0"/>
        <pt x="219" y="785" on="1"/>
        <pt x="219" y="756" on="0"/>
        <pt x="237" y="695" on="0"/>
        <pt x="252" y="670" on="1"/>
        <pt x="78" y="777" on="1"/>
        <pt x="91" y="848" on="0"/>
        <pt x="144" y="933" on="0"/>
        <pt x="209" y="979" on="0"/>
        <pt x="282" y="993" on="0"/>
        <pt x="317" y="993" on="1"/>
        <pt x="384" y="993" on="0"/>
        <pt x="483" y="923" on="0"/>
        <pt x="512" y="854" on="1"/>
        <pt x="600" y="993" on="0"/>
        <pt x="732" y="993" on="1"/>
        <pt x="787" y="993" on="0"/>
        <pt x="880" y="934" on="0"/>
        <pt x="950" y="819" on="0"/>
        <pt x="993" y="648" on="0"/>
        <pt x="998" y="537" on="1"/>
        <pt x="575" y="389" on="1"/>
        <pt x="588" y="225" on="0"/>
        <pt x="678" y="76" on="0"/>
        <pt x="747" y="76" on="1"/>
        <pt x="780" y="76" on="0"/>
        <pt x="825" y="101" on="0"/>
        <pt x="854" y="142" on="0"/>
        <pt x="867" y="193" on="0"/>
        <pt x="867" y="220" on="1"/>
        <pt x="867" y="252" on="0"/>
        <pt x="826" y="314" on="0"/>
        <pt x="784" y="336" on="1"/>
      </contour>
      <contour>
        <pt x="291" y="76" on="1"/>
        <pt x="329" y="76" on="0"/>
        <pt x="378" y="134" on="0"/>
        <pt x="407" y="219" on="0"/>
        <pt x="419" y="314" on="0"/>
        <pt x="419" y="351" on="1"/>
        <pt x="419" y="542" on="1"/>
        <pt x="390" y="552" on="0"/>
        <pt x="361" y="552" on="1"/>
        <pt x="321" y="552" on="0"/>
        <pt x="259" y="505" on="0"/>
        <pt x="217" y="429" on="0"/>
        <pt x="195" y="329" on="0"/>
        <pt x="195" y="277" on="1"/>
        <pt x="195" y="239" on="0"/>
        <pt x="207" y="167" on="0"/>
        <pt x="231" y="110" on="0"/>
        <pt x="267" y="76" on="0"/>
      </contour>
      <contour>
        <pt x="570" y="478" on="1"/>
        <pt x="599" y="489" on="0"/>
        <pt x="685" y="523" on="0"/>
        <pt x="750" y="553" on="1"/>
        <pt x="787" y="570" on="0"/>
        <pt x="841" y="604" on="0"/>
        <pt x="862" y="616" on="1"/>
        <pt x="852" y="755" on="0"/>
        <pt x="787" y="887" on="0"/>
        <pt x="732" y="887" on="1"/>
        <pt x="655" y="887" on="0"/>
        <pt x="570" y="683" on="0"/>
        <pt x="570" y="482" on="1"/>
      </contour>
    </TTGlyph>
    <TTGlyph name="agrave" xMin="54" yMin="-29" xMax="654" yMax="1438">
      <component glyphName="a" x="0" y="0" flags="0x1204"/>
      <component glyphName="grave" x="224" y="0" flags="0x1004"/>
    </TTGlyph>
    <TTGlyph name="ampersand" xMin="29" yMin="-28" xMax="1083" yMax="1327">
      <contour>
        <pt x="865" y="864" on="1"/>
        <pt x="920" y="864" on="0"/>
        <pt x="997" y="867" on="0"/>
        <pt x="1022" y="869" on="1"/>
        <pt x="1051" y="871" on="0"/>
        <pt x="1069" y="874" on="1"/>
        <pt x="1029" y="744" on="1"/>
        <pt x="1028" y="745" on="0"/>
        <pt x="1014" y="758" on="0"/>
        <pt x="977" y="774" on="0"/>
        <pt x="913" y="787" on="0"/>
        <pt x="864" y="787" on="1"/>
        <pt x="792" y="787" on="1"/>
        <pt x="792" y="769" on="0"/>
        <pt x="791" y="766" on="0"/>
        <pt x="791" y="768" on="0"/>
        <pt x="791" y="764" on="0"/>
        <pt x="791" y="745" on="1"/>
        <pt x="791" y="658" on="0"/>
        <pt x="792" y="521" on="0"/>
        <pt x="793" y="400" on="0"/>
        <pt x="794" y="281" on="0"/>
        <pt x="794" y="211" on="1"/>
        <pt x="794" y="141" on="0"/>
        <pt x="840" y="81" on="0"/>
        <pt x="869" y="81" on="1"/>
        <pt x="885" y="81" on="0"/>
        <pt x="917" y="102" on="0"/>
        <pt x="943" y="141" on="0"/>
        <pt x="959" y="194" on="0"/>
        <pt x="959" y="226" on="1"/>
        <pt x="959" y="252" on="0"/>
        <pt x="953" y="269" on="1"/>
        <pt x="956" y="271" on="1"/>
        <pt x="1083" y="56" on="1"/>
        <pt x="1018" y="11" on="0"/>
        <pt x="907" y="-28" on="0"/>
        <pt x="859" y="-28" on="1"/>
        <pt x="807" y="-28" on="0"/>
        <pt x="765" y="0" on="1"/>
        <pt x="29" y="0" on="1"/>
        <pt x="29" y="5" on="1"/>
        <pt x="86" y="24" on="0"/>
        <pt x="134" y="113" on="0"/>
        <pt x="138" y="173" on="1"/>
        <pt x="148" y="328" on="0"/>
        <pt x="154" y="595" on="0"/>
        <pt x="154" y="721" on="1"/>
        <pt x="154" y="833" on="0"/>
        <pt x="151" y="1054" on="0"/>
        <pt x="139" y="1174" on="1"/>
        <pt x="134" y="1228" on="0"/>
        <pt x="80" y="1305" on="0"/>
        <pt x="29" y="1322" on="1"/>
        <pt x="29" y="1327" on="1"/>
        <pt x="600" y="1327" on="1"/>
        <pt x="595" y="1305" on="0"/>
        <pt x="587" y="1272" on="1"/>
        <pt x="580" y="1243" on="0"/>
        <pt x="561" y="1156" on="0"/>
        <pt x="547" y="1094" on="1"/>
        <pt x="552" y="1136" on="0"/>
        <pt x="528" y="1202" on="0"/>
        <pt x="495" y="1218" on="1"/>
        <pt x="453" y="1238" on="0"/>
        <pt x="358" y="1251" on="0"/>
        <pt x="301" y="1253" on="1"/>
        <pt x="295" y="1152" on="0"/>
        <pt x="289" y="963" on="0"/>
        <pt x="288" y="864" on="1"/>
        <pt x="296" y="864" on="0"/>
        <pt x="344" y="864" on="0"/>
        <pt x="411" y="865" on="0"/>
        <pt x="489" y="865" on="0"/>
        <pt x="565" y="866" on="0"/>
        <pt x="632" y="866" on="0"/>
        <pt x="655" y="866" on="1"/>
        <pt x="655" y="917" on="0"/>
        <pt x="652" y="1003" on="0"/>
        <pt x="646" y="1066" on="0"/>
        <pt x="638" y="1102" on="0"/>
        <pt x="632" y="1102" on="1"/>
        <pt x="632" y="1107" on="1"/>
        <pt x="913" y="1237" on="1"/>
        <pt x="887" y="1205" on="0"/>
        <pt x="843" y="1145" on="0"/>
        <pt x="812" y="1064" on="0"/>
        <pt x="795" y="949" on="0"/>
        <pt x="795" y="864" on="1"/>
      </contour>
      <contour>
        <pt x="300" y="96" on="1"/>
        <pt x="333" y="97" on="0"/>
        <pt x="428" y="100" on="0"/>
        <pt x="533" y="105" on="0"/>
        <pt x="636" y="113" on="0"/>
        <pt x="676" y="120" on="1"/>
        <pt x="664" y="152" on="0"/>
        <pt x="652" y="222" on="0"/>
        <pt x="652" y="258" on="1"/>
        <pt x="652" y="319" on="0"/>
        <pt x="654" y="412" on="0"/>
        <pt x="655" y="494" on="0"/>
        <pt x="657" y="573" on="0"/>
        <pt x="657" y="621" on="1"/>
        <pt x="657" y="662" on="0"/>
        <pt x="657" y="707" on="0"/>
        <pt x="657" y="736" on="0"/>
        <pt x="656" y="761" on="0"/>
        <pt x="656" y="783" on="1"/>
        <pt x="634" y="783" on="0"/>
        <pt x="567" y="784" on="0"/>
        <pt x="490" y="785" on="0"/>
        <pt x="412" y="785" on="0"/>
        <pt x="345" y="786" on="0"/>
        <pt x="296" y="787" on="0"/>
        <pt x="288" y="787" on="1"/>
        <pt x="288" y="612" on="0"/>
        <pt x="294" y="265" on="0"/>
      </contour>
    </TTGlyph>
    <TTGlyph name="aring" xMin="54" yMin="-29" xMax="654" yMax="1519">
      <component glyphName="a" x="0" y="0" flags="0x1204"/>
      <component glyphName="ring" x="83" y="0" flags="0x1004"/>
    </TTGlyph>
    <TTGlyph name="asciicircum" xMin="25" yMin="66" xMax="595" yMax="849">
      <contour>
        <pt x="400" y="849" on="1"/>
        <pt x="433" y="691" on="0"/>
        <pt x="466" y="546" on="1"/>
        <pt x="480" y="484" on="0"/>
        <pt x="511" y="354" on="0"/>
        <pt x="543" y="232" on="0"/>
        <pt x="573" y="124" on="0"/>
        <pt x="587" y="84" on="1"/>
        <pt x="590" y="77" on="0"/>
        <pt x="592" y="68" on="0"/>
        <pt x="595" y="66" on="1"/>
        <pt x="588" y="72" on="0"/>
        <pt x="541" y="87" on="0"/>
        <pt x="488" y="87" on="1"/>
        <pt x="462" y="87" on="0"/>
        <pt x="428" y="84" on="1"/>
        <pt x="437" y="96" on="0"/>
        <pt x="440" y="131" on="0"/>
        <pt x="440" y="156" on="1"/>
        <pt x="440" y="199" on="0"/>
        <pt x="417" y="325" on="0"/>
        <pt x="380" y="482" on="0"/>
        <pt x="334" y="668" on="0"/>
        <pt x="310" y="772" on="1"/>
        <pt x="286" y="668" on="0"/>
        <pt x="240" y="482" on="0"/>
        <pt x="203" y="325" on="0"/>
        <pt x="180" y="199" on="0"/>
        <pt x="180" y="156" on="1"/>
        <pt x="180" y="131" on="0"/>
        <pt x="183" y="96" on="0"/>
        <pt x="192" y="84" on="1"/>
        <pt x="157" y="87" on="0"/>
        <pt x="132" y="87" on="1"/>
        <pt x="79" y="87" on="0"/>
        <pt x="32" y="72" on="0"/>
        <pt x="25" y="66" on="1"/>
        <pt x="28" y="68" on="0"/>
        <pt x="30" y="77" on="0"/>
        <pt x="33" y="84" on="1"/>
        <pt x="46" y="124" on="0"/>
        <pt x="77" y="232" on="0"/>
        <pt x="108" y="354" on="0"/>
        <pt x="140" y="484" on="0"/>
        <pt x="154" y="546" on="1"/>
        <pt x="187" y="691" on="0"/>
        <pt x="220" y="849" on="1"/>
      </contour>
    </TTGlyph>
    <TTGlyph name="asciitilde" xMin="45" yMin="812" xMax="700" yMax="994">
      <contour>
        <pt x="504" y="815" on="1"/>
        <pt x="463" y="815" on="0"/>
        <pt x="385" y="828" on="0"/>
        <pt x="305" y="843" on="0"/>
        <pt x="222" y="856" on="0"/>
        <pt x="177" y="856" on="1"/>
        <pt x="141" y="856" on="0"/>
        <pt x="92" y="835" on="0"/>
        <pt x="85" y="812" on="1"/>
        <pt x="45" y="825" on="1"/>
        <pt x="47" y="869" on="0"/>
        <pt x="79" y="932" on="0"/>
        <pt x="131" y="973" on="0"/>
        <pt x="201" y="992" on="0"/>
        <pt x="241" y="992" on="1"/>
        <pt x="281" y="992" on="0"/>
        <pt x="369" y="979" on="0"/>
        <pt x="454" y="964" on="0"/>
        <pt x="535" y="951" on="0"/>
        <pt x="568" y="951" on="1"/>
        <pt x="605" y="951" on="0"/>
        <pt x="652" y="971" on="0"/>
        <pt x="660" y="994" on="1"/>
        <pt x="700" y="982" on="1"/>
        <pt x="698" y="938" on="0"/>
        <pt x="666" y="874" on="0"/>
        <pt x="614" y="834" on="0"/>
        <pt x="544" y="815" on="0"/>
      </contour>
    </TTGlyph>
    <TTGlyph name="asterisk" xMin="44" yMin="204" xMax="894" yMax="1076">
      <contour>
        <pt x="44" y="539" on="1"/>
        <pt x="44" y="742" on="1"/>
        <pt x="70" y="736" on="0"/>
        <pt x="137" y="719" on="0"/>
        <pt x="222" y="702" on="0"/>
        <pt x="326" y="688" on="0"/>
        <pt x="389" y="685" on="1"/>
        <pt x="351" y="743" on="0"/>
        <pt x="282" y="834" on="0"/>
        <pt x="222" y="905" on="0"/>
        <pt x="172" y="959" on="0"/>
        <pt x="153" y="981" on="1"/>
        <pt x="322" y="1076" on="1"/>
        <pt x="332" y="1048" on="0"/>
        <pt x="356" y="975" on="0"/>
        <pt x="389" y="887" on="0"/>
        <pt x="435" y="782" on="0"/>
        <pt x="468" y="722" on="1"/>
        <pt x="501" y="782" on="0"/>
        <pt x="547" y="887" on="0"/>
        <pt x="581" y="975" on="0"/>
        <pt x="604" y="1048" on="0"/>
        <pt x="615" y="1076" on="1"/>
        <pt x="784" y="981" on="1"/>
        <pt x="764" y="959" on="0"/>
        <pt x="711" y="905" on="0"/>
        <pt x="648" y="834" on="0"/>
        <pt x="576" y="743" on="0"/>
        <pt x="537" y="684" on="1"/>
        <pt x="603" y="687" on="0"/>
        <pt x="710" y="701" on="0"/>
        <pt x="797" y="719" on="0"/>
        <pt x="867" y="736" on="0"/>
        <pt x="894" y="742" on="1"/>
        <pt x="894" y="539" on="1"/>
        <pt x="866" y="545" on="0"/>
        <pt x="796" y="562" on="0"/>
        <pt x="709" y="580" on="0"/>
        <pt x="601" y="594" on="0"/>
        <pt x="535" y="597" on="1"/>
        <pt x="575" y="537" on="0"/>
        <pt x="647" y="446" on="0"/>
        <pt x="710" y="375" on="0"/>
        <pt x="763" y="321" on="0"/>
        <pt x="784" y="299" on="1"/>
        <pt x="615" y="204" on="1"/>
        <pt x="605" y="231" on="0"/>
        <pt x="581" y="303" on="0"/>
        <pt x="547" y="391" on="0"/>
        <pt x="501" y="494" on="0"/>
        <pt x="468" y="554" on="1"/>
        <pt x="435" y="494" on="0"/>
        <pt x="389" y="391" on="0"/>
        <pt x="355" y="303" on="0"/>
        <pt x="331" y="231" on="0"/>
        <pt x="322" y="204" on="1"/>
        <pt x="153" y="299" on="1"/>
        <pt x="173" y="321" on="0"/>
        <pt x="224" y="375" on="0"/>
        <pt x="284" y="446" on="0"/>
        <pt x="353" y="537" on="0"/>
        <pt x="392" y="597" on="1"/>
        <pt x="328" y="594" on="0"/>
        <pt x="223" y="580" on="0"/>
        <pt x="138" y="562" on="0"/>
        <pt x="71" y="545" on="0"/>
      </contour>
    </TTGlyph>
    <TTGlyph name="at" xMin="46" yMin="-58" xMax="1185" yMax="1059">
      <contour>
        <pt x="1185" y="505" on="1"/>
        <pt x="1185" y="431" on="0"/>
        <pt x="1140" y="314" on="0"/>
        <pt x="1069" y="233" on="0"/>
        <pt x="981" y="189" on="0"/>
        <pt x="937" y="189" on="1"/>
        <pt x="881" y="189" on="0"/>
        <pt x="788" y="265" on="0"/>
        <pt x="769" y="348" on="1"/>
        <pt x="757" y="312" on="0"/>
        <pt x="724" y="248" on="0"/>
        <pt x="678" y="200" on="0"/>
        <pt x="613" y="172" on="0"/>
        <pt x="570" y="172" on="1"/>
        <pt x="512" y="172" on="0"/>
        <pt x="429" y="215" on="0"/>
        <pt x="375" y="289" on="0"/>
        <pt x="349" y="385" on="0"/>
        <pt x="349" y="439" on="1"/>
        <pt x="349" y="479" on="0"/>
        <pt x="364" y="565" on="0"/>
        <pt x="395" y="648" on="0"/>
        <pt x="439" y="723" on="0"/>
        <pt x="496" y="779" on="0"/>
        <pt x="567" y="812" on="0"/>
        <pt x="608" y="812" on="1"/>
        <pt x="638" y="812" on="0"/>
        <pt x="704" y="793" on="0"/>
        <pt x="739" y="773" on="1"/>
        <pt x="750" y="781" on="0"/>
        <pt x="782" y="788" on="0"/>
        <pt x="799" y="788" on="1"/>
        <pt x="823" y="788" on="0"/>
        <pt x="862" y="773" on="0"/>
        <pt x="862" y="763" on="1"/>
        <pt x="862" y="761" on="0"/>
        <pt x="860" y="716" on="0"/>
        <pt x="857" y="651" on="0"/>
        <pt x="853" y="573" on="0"/>
        <pt x="850" y="504" on="0"/>
        <pt x="848" y="452" on="0"/>
        <pt x="848" y="445" on="1"/>
        <pt x="848" y="368" on="0"/>
        <pt x="892" y="289" on="0"/>
        <pt x="927" y="289" on="1"/>
        <pt x="946" y="289" on="0"/>
        <pt x="988" y="311" on="0"/>
        <pt x="1023" y="362" on="0"/>
        <pt x="1046" y="443" on="0"/>
        <pt x="1046" y="502" on="1"/>
        <pt x="1046" y="583" on="0"/>
        <pt x="994" y="740" on="0"/>
        <pt x="890" y="862" on="0"/>
        <pt x="734" y="937" on="0"/>
        <pt x="630" y="937" on="1"/>
        <pt x="526" y="937" on="0"/>
        <pt x="368" y="855" on="0"/>
        <pt x="263" y="721" on="0"/>
        <pt x="210" y="552" on="0"/>
        <pt x="210" y="464" on="1"/>
        <pt x="210" y="387" on="0"/>
        <pt x="260" y="242" on="0"/>
        <pt x="362" y="130" on="0"/>
        <pt x="516" y="62" on="0"/>
        <pt x="620" y="62" on="1"/>
        <pt x="682" y="62" on="0"/>
        <pt x="786" y="79" on="0"/>
        <pt x="834" y="96" on="1"/>
        <pt x="889" y="-13" on="1"/>
        <pt x="829" y="-34" on="0"/>
        <pt x="701" y="-58" on="0"/>
        <pt x="637" y="-58" on="1"/>
        <pt x="510" y="-58" on="0"/>
        <pt x="294" y="14" on="0"/>
        <pt x="136" y="150" on="0"/>
        <pt x="46" y="349" on="0"/>
        <pt x="46" y="475" on="1"/>
        <pt x="46" y="616" on="0"/>
        <pt x="138" y="834" on="0"/>
        <pt x="297" y="982" on="0"/>
        <pt x="513" y="1059" on="0"/>
        <pt x="637" y="1059" on="1"/>
        <pt x="750" y="1059" on="0"/>
        <pt x="949" y="987" on="0"/>
        <pt x="1098" y="846" on="0"/>
        <pt x="1185" y="639" on="0"/>
      </contour>
      <contour>
        <pt x="570" y="263" on="1"/>
        <pt x="608" y="263" on="0"/>
        <pt x="660" y="320" on="0"/>
        <pt x="692" y="404" on="0"/>
        <pt x="707" y="500" on="0"/>
        <pt x="709" y="538" on="1"/>
        <pt x="717" y="729" on="1"/>
        <pt x="687" y="739" on="0"/>
        <pt x="659" y="739" on="1"/>
        <pt x="617" y="739" on="0"/>
        <pt x="551" y="688" on="0"/>
        <pt x="505" y="605" on="0"/>
        <pt x="481" y="499" on="0"/>
        <pt x="481" y="444" on="1"/>
        <pt x="481" y="407" on="0"/>
        <pt x="492" y="341" on="0"/>
        <pt x="514" y="292" on="0"/>
        <pt x="547" y="263" on="0"/>
      </contour>
    </TTGlyph>
    <TTGlyph name="atilde" xMin="54" yMin="-29" xMax="654" yMax="1289">
      <component glyphName="a" x="0" y="0" flags="0x1204"/>
      <component glyphName="tilde" x="33" y="0" flags="0x1004"/>
    </TTGlyph>
    <TTGlyph name="b" xMin="-7" yMin="-15" xMax="776" yMax="1347">
      <contour>
        <pt x="18" y="0" on="1"/>
        <pt x="18" y="5" on="1"/>
        <pt x="75" y="24" on="0"/>
        <pt x="122" y="113" on="0"/>
        <pt x="127" y="173" on="1"/>
        <pt x="128" y="328" on="0"/>
        <pt x="138" y="595" on="0"/>
        <pt x="138" y="721" on="1"/>
        <pt x="138" y="849" on="0"/>
        <pt x="137" y="1028" on="0"/>
        <pt x="129" y="1148" on="0"/>
        <pt x="112" y="1218" on="0"/>
        <pt x="79" y="1253" on="0"/>
        <pt x="29" y="1262" on="0"/>
        <pt x="-7" y="1262" on="1"/>
        <pt x="-7" y="1267" on="1"/>
        <pt x="284" y="1347" on="1"/>
        <pt x="281" y="1318" on="0"/>
        <pt x="277" y="1225" on="0"/>
        <pt x="274" y="1115" on="0"/>
        <pt x="272" y="995" on="0"/>
        <pt x="272" y="938" on="1"/>
        <pt x="356" y="992" on="0"/>
        <pt x="433" y="992" on="1"/>
        <pt x="508" y="992" on="0"/>
        <pt x="634" y="927" on="0"/>
        <pt x="725" y="803" on="0"/>
        <pt x="776" y="625" on="0"/>
        <pt x="776" y="512" on="1"/>
        <pt x="776" y="398" on="0"/>
        <pt x="734" y="205" on="0"/>
        <pt x="652" y="64" on="0"/>
        <pt x="527" y="-15" on="0"/>
        <pt x="445" y="-15" on="1"/>
        <pt x="421" y="-15" on="0"/>
        <pt x="356" y="-10" on="0"/>
        <pt x="281" y="-5" on="0"/>
        <pt x="200" y="0" on="0"/>
        <pt x="161" y="0" on="1"/>
      </contour>
      <contour>
        <pt x="271" y="624" on="1"/>
        <pt x="270" y="495" on="0"/>
        <pt x="276" y="217" on="0"/>
        <pt x="282" y="87" on="1"/>
        <pt x="324" y="82" on="0"/>
        <pt x="396" y="76" on="0"/>
        <pt x="428" y="76" on="1"/>
        <pt x="472" y="76" on="0"/>
        <pt x="545" y="133" on="0"/>
        <pt x="597" y="243" on="0"/>
        <pt x="626" y="406" on="0"/>
        <pt x="626" y="512" on="1"/>
        <pt x="626" y="704" on="0"/>
        <pt x="519" y="896" on="0"/>
        <pt x="407" y="896" on="1"/>
        <pt x="378" y="896" on="0"/>
        <pt x="311" y="876" on="0"/>
        <pt x="272" y="853" on="1"/>
        <pt x="272" y="840" on="1"/>
      </contour>
    </TTGlyph>
    <TTGlyph name="backslash" xMin="49" yMin="0" xMax="433" yMax="1327">
      <contour>
        <pt x="433" y="0" on="1"/>
        <pt x="305" y="0" on="1"/>
        <pt x="49" y="1327" on="1"/>
        <pt x="177" y="1327" on="1"/>
      </contour>
    </TTGlyph>
    <TTGlyph name="bar" xMin="117" yMin="-128" xMax="245" yMax="1408">
      <contour>
        <pt x="117" y="1408" on="1"/>
        <pt x="245" y="1408" on="1"/>
        <pt x="245" y="-128" on="1"/>
        <pt x="117" y="-128" on="1"/>
      </contour>
    </TTGlyph>
    <TTGlyph name="braceleft" xMin="27" yMin="-29" xMax="426" yMax="1347">
      <contour>
        <pt x="113" y="417" on="1"/>
        <pt x="113" y="463" on="0"/>
        <pt x="102" y="542" on="0"/>
        <pt x="80" y="600" on="0"/>
        <pt x="48" y="632" on="0"/>
        <pt x="27" y="632" on="1"/>
        <pt x="27" y="686" on="1"/>
        <pt x="48" y="686" on="0"/>
        <pt x="80" y="718" on="0"/>
        <pt x="102" y="776" on="0"/>
        <pt x="113" y="854" on="0"/>
        <pt x="113" y="901" on="1"/>
        <pt x="113" y="985" on="0"/>
        <pt x="146" y="1145" on="0"/>
        <pt x="210" y="1270" on="0"/>
        <pt x="305" y="1347" on="0"/>
        <pt x="368" y="1347" on="1"/>
        <pt x="398" y="1347" on="0"/>
        <pt x="426" y="1340" on="1"/>
        <pt x="426" y="1332" on="1"/>
        <pt x="426" y="1289" on="1"/>
        <pt x="426" y="1276" on="0"/>
        <pt x="426" y="1259" on="0"/>
        <pt x="424" y="1259" on="1"/>
        <pt x="384" y="1259" on="0"/>
        <pt x="323" y="1195" on="0"/>
        <pt x="281" y="1091" on="0"/>
        <pt x="260" y="958" on="0"/>
        <pt x="260" y="890" on="1"/>
        <pt x="260" y="854" on="0"/>
        <pt x="247" y="785" on="0"/>
        <pt x="222" y="724" on="0"/>
        <pt x="184" y="674" on="0"/>
        <pt x="160" y="659" on="1"/>
        <pt x="209" y="627" on="0"/>
        <pt x="260" y="500" on="0"/>
        <pt x="260" y="428" on="1"/>
        <pt x="260" y="360" on="0"/>
        <pt x="281" y="227" on="0"/>
        <pt x="323" y="123" on="0"/>
        <pt x="384" y="59" on="0"/>
        <pt x="424" y="59" on="1"/>
        <pt x="426" y="59" on="0"/>
        <pt x="426" y="41" on="0"/>
        <pt x="426" y="29" on="1"/>
        <pt x="426" y="-14" on="1"/>
        <pt x="426" y="-22" on="1"/>
        <pt x="398" y="-29" on="0"/>
        <pt x="368" y="-29" on="1"/>
        <pt x="305" y="-29" on="0"/>
        <pt x="210" y="48" on="0"/>
        <pt x="146" y="173" on="0"/>
        <pt x="113" y="333" on="0"/>
      </contour>
    </TTGlyph>
    <TTGlyph name="braceright" xMin="28" yMin="-29" xMax="427" yMax="1347">
      <contour>
        <pt x="341" y="417" on="1"/>
        <pt x="341" y="333" on="0"/>
        <pt x="308" y="173" on="0"/>
        <pt x="244" y="48" on="0"/>
        <pt x="149" y="-29" on="0"/>
        <pt x="86" y="-29" on="1"/>
        <pt x="56" y="-29" on="0"/>
        <pt x="28" y="-22" on="1"/>
        <pt x="28" y="-14" on="1"/>
        <pt x="28" y="29" on="1"/>
        <pt x="28" y="41" on="0"/>
        <pt x="28" y="59" on="0"/>
        <pt x="30" y="59" on="1"/>
        <pt x="70" y="59" on="0"/>
        <pt x="131" y="123" on="0"/>
        <pt x="173" y="227" on="0"/>
        <pt x="194" y="360" on="0"/>
        <pt x="194" y="428" on="1"/>
        <pt x="194" y="500" on="0"/>
        <pt x="245" y="627" on="0"/>
        <pt x="294" y="659" on="1"/>
        <pt x="270" y="674" on="0"/>
        <pt x="232" y="724" on="0"/>
        <pt x="207" y="785" on="0"/>
        <pt x="194" y="854" on="0"/>
        <pt x="194" y="890" on="1"/>
        <pt x="194" y="958" on="0"/>
        <pt x="173" y="1091" on="0"/>
        <pt x="131" y="1195" on="0"/>
        <pt x="70" y="1259" on="0"/>
        <pt x="30" y="1259" on="1"/>
        <pt x="28" y="1259" on="0"/>
        <pt x="28" y="1276" on="0"/>
        <pt x="28" y="1289" on="1"/>
        <pt x="28" y="1332" on="1"/>
        <pt x="28" y="1340" on="1"/>
        <pt x="56" y="1347" on="0"/>
        <pt x="86" y="1347" on="1"/>
        <pt x="149" y="1347" on="0"/>
        <pt x="244" y="1270" on="0"/>
        <pt x="308" y="1145" on="0"/>
        <pt x="341" y="985" on="0"/>
        <pt x="341" y="901" on="1"/>
        <pt x="341" y="854" on="0"/>
        <pt x="352" y="776" on="0"/>
        <pt x="374" y="718" on="0"/>
        <pt x="406" y="686" on="0"/>
        <pt x="427" y="686" on="1"/>
        <pt x="427" y="632" on="1"/>
        <pt x="406" y="632" on="0"/>
        <pt x="374" y="600" on="0"/>
        <pt x="352" y="542" on="0"/>
        <pt x="341" y="463" on="0"/>
      </contour>
    </TTGlyph>
    <TTGlyph name="bracketleft" xMin="54" yMin="0" xMax="484" yMax="1327">
      <contour>
        <pt x="282" y="114" on="1"/>
        <pt x="314" y="114" on="0"/>
        <pt x="382" y="117" on="0"/>
        <pt x="409" y="119" on="1"/>
        <pt x="441" y="121" on="0"/>
        <pt x="470" y="124" on="1"/>
        <pt x="484" y="0" on="1"/>
        <pt x="54" y="0" on="1"/>
        <pt x="54" y="5" on="1"/>
        <pt x="91" y="22" on="0"/>
        <pt x="131" y="99" on="0"/>
        <pt x="134" y="153" on="1"/>
        <pt x="145" y="273" on="0"/>
        <pt x="149" y="504" on="0"/>
        <pt x="149" y="616" on="1"/>
        <pt x="149" y="753" on="0"/>
        <pt x="147" y="1025" on="0"/>
        <pt x="134" y="1174" on="1"/>
        <pt x="131" y="1228" on="0"/>
        <pt x="91" y="1305" on="0"/>
        <pt x="54" y="1322" on="1"/>
        <pt x="54" y="1327" on="1"/>
        <pt x="484" y="1327" on="1"/>
        <pt x="470" y="1203" on="1"/>
        <pt x="441" y="1206" on="0"/>
        <pt x="409" y="1208" on="1"/>
        <pt x="382" y="1210" on="0"/>
        <pt x="314" y="1212" on="0"/>
        <pt x="282" y="1213" on="1"/>
      </contour>
    </TTGlyph>
    <TTGlyph name="bracketright" xMin="26" yMin="-1" xMax="456" yMax="1327">
      <contour>
        <pt x="228" y="1213" on="1"/>
        <pt x="195" y="1212" on="0"/>
        <pt x="128" y="1210" on="0"/>
        <pt x="101" y="1208" on="1"/>
        <pt x="69" y="1206" on="0"/>
        <pt x="40" y="1203" on="1"/>
        <pt x="26" y="1327" on="1"/>
        <pt x="456" y="1327" on="1"/>
        <pt x="456" y="1322" on="1"/>
        <pt x="419" y="1305" on="0"/>
        <pt x="379" y="1228" on="0"/>
        <pt x="376" y="1174" on="1"/>
        <pt x="362" y="1025" on="0"/>
        <pt x="361" y="753" on="0"/>
        <pt x="361" y="616" on="1"/>
        <pt x="361" y="504" on="0"/>
        <pt x="365" y="272" on="0"/>
        <pt x="376" y="152" on="1"/>
        <pt x="379" y="98" on="0"/>
        <pt x="419" y="21" on="0"/>
        <pt x="456" y="4" on="1"/>
        <pt x="456" y="-1" on="1"/>
        <pt x="26" y="-1" on="1"/>
        <pt x="40" y="123" on="1"/>
        <pt x="69" y="120" on="0"/>
        <pt x="101" y="118" on="1"/>
        <pt x="128" y="116" on="0"/>
        <pt x="195" y="113" on="0"/>
        <pt x="228" y="113" on="1"/>
      </contour>
    </TTGlyph>
    <TTGlyph name="breve" xMin="39" yMin="1072" xMax="491" yMax="1280">
      <contour>
        <pt x="491" y="1279" on="1"/>
        <pt x="489" y="1228" on="0"/>
        <pt x="449" y="1151" on="0"/>
        <pt x="386" y="1099" on="0"/>
        <pt x="306" y="1072" on="0"/>
        <pt x="265" y="1072" on="1"/>
        <pt x="224" y="1072" on="0"/>
        <pt x="144" y="1099" on="0"/>
        <pt x="81" y="1151" on="0"/>
        <pt x="41" y="1228" on="0"/>
        <pt x="39" y="1279" on="1"/>
        <pt x="127" y="1279" on="1"/>
        <pt x="130" y="1245" on="0"/>
        <pt x="197" y="1191" on="0"/>
        <pt x="265" y="1187" on="1"/>
        <pt x="299" y="1188" on="0"/>
        <pt x="349" y="1204" on="0"/>
        <pt x="384" y="1229" on="0"/>
        <pt x="401" y="1262" on="0"/>
        <pt x="402" y="1280" on="1"/>
      </contour>
    </TTGlyph>
    <TTGlyph name="brokenbar" xMin="121" yMin="-128" xMax="249" yMax="1408">
      <contour>
        <pt x="121" y="1408" on="1"/>
        <pt x="249" y="1408" on="1"/>
        <pt x="249" y="768" on="1"/>
        <pt x="121" y="768" on="1"/>
      </contour>
      <contour>
        <pt x="121" y="512" on="1"/>
        <pt x="249" y="512" on="1"/>
        <pt x="249" y="-128" on="1"/>
        <pt x="121" y="-128" on="1"/>
      </contour>
    </TTGlyph>
    <TTGlyph name="bullet" xMin="52" yMin="256" xMax="564" yMax="768">
      <contour>
        <pt x="52" y="513" on="1"/>
        <pt x="52" y="575" on="0"/>
        <pt x="92" y="670" on="0"/>
        <pt x="162" y="735" on="0"/>
        <pt x="256" y="768" on="0"/>
        <pt x="311" y="768" on="1"/>
        <pt x="363" y="768" on="0"/>
        <pt x="455" y="735" on="0"/>
        <pt x="524" y="670" on="0"/>
        <pt x="564" y="575" on="0"/>
        <pt x="564" y="513" on="1"/>
        <pt x="564" y="451" on="0"/>
        <pt x="524" y="355" on="0"/>
        <pt x="455" y="290" on="0"/>
        <pt x="363" y="256" on="0"/>
        <pt x="311" y="256" on="1"/>
        <pt x="256" y="256" on="0"/>
        <pt x="162" y="290" on="0"/>
        <pt x="92" y="355" on="0"/>
        <pt x="52" y="451" on="0"/>
      </contour>
    </TTGlyph>
    <TTGlyph name="c" xMin="61" yMin="-29" xMax="712" yMax="992">
      <contour>
        <pt x="624" y="282" on="1"/>
        <pt x="673" y="146" on="1"/>
        <pt x="626" y="59" on="0"/>
        <pt x="495" y="-29" on="0"/>
        <pt x="414" y="-29" on="1"/>
        <pt x="339" y="-29" on="0"/>
        <pt x="210" y="38" on="0"/>
        <pt x="115" y="168" on="0"/>
        <pt x="61" y="358" on="0"/>
        <pt x="61" y="481" on="1"/>
        <pt x="61" y="604" on="0"/>
        <pt x="112" y="794" on="0"/>
        <pt x="201" y="924" on="0"/>
        <pt x="322" y="992" on="0"/>
        <pt x="393" y="992" on="1"/>
        <pt x="466" y="992" on="0"/>
        <pt x="571" y="947" on="0"/>
        <pt x="645" y="866" on="0"/>
        <pt x="694" y="754" on="0"/>
        <pt x="712" y="687" on="1"/>
        <pt x="517" y="585" on="1"/>
        <pt x="514" y="590" on="1"/>
        <pt x="534" y="615" on="0"/>
        <pt x="552" y="664" on="0"/>
        <pt x="552" y="688" on="1"/>
        <pt x="552" y="719" on="0"/>
        <pt x="540" y="790" on="0"/>
        <pt x="507" y="848" on="0"/>
        <pt x="451" y="887" on="0"/>
        <pt x="407" y="887" on="1"/>
        <pt x="365" y="887" on="0"/>
        <pt x="293" y="838" on="0"/>
        <pt x="240" y="738" on="0"/>
        <pt x="211" y="585" on="0"/>
        <pt x="211" y="481" on="1"/>
        <pt x="211" y="280" on="0"/>
        <pt x="323" y="76" on="0"/>
        <pt x="423" y="76" on="1"/>
        <pt x="460" y="76" on="0"/>
        <pt x="523" y="108" on="0"/>
        <pt x="573" y="163" on="0"/>
        <pt x="609" y="238" on="0"/>
        <pt x="620" y="281" on="1"/>
      </contour>
    </TTGlyph>
    <TTGlyph name="caron" xMin="27" yMin="1088" xMax="459" yMax="1402">
      <contour>
        <pt x="177" y="1088" on="1"/>
        <pt x="27" y="1402" on="1"/>
        <pt x="177" y="1402" on="1"/>
        <pt x="243" y="1154" on="1"/>
        <pt x="309" y="1402" on="1"/>
        <pt x="459" y="1402" on="1"/>
        <pt x="309" y="1088" on="1"/>
      </contour>
    </TTGlyph>
    <TTGlyph name="ccedilla" xMin="63" yMin="-372" xMax="714" yMax="992">
      <component glyphName="c" x="2" y="0" flags="0x1004"/>
      <component glyphName="cedilla" x="146" y="0" flags="0x1004"/>
    </TTGlyph>
    <TTGlyph name="cedilla" xMin="99" yMin="-372" xMax="485" yMax="3">
      <contour>
        <pt x="210" y="-54" on="1"/>
        <pt x="203" y="3" on="1"/>
        <pt x="287" y="3" on="1"/>
        <pt x="291" y="-49" on="1"/>
        <pt x="333" y="-52" on="0"/>
        <pt x="405" y="-72" on="0"/>
        <pt x="456" y="-107" on="0"/>
        <pt x="485" y="-155" on="0"/>
        <pt x="485" y="-185" on="1"/>
        <pt x="485" y="-230" on="0"/>
        <pt x="449" y="-300" on="0"/>
        <pt x="391" y="-348" on="0"/>
        <pt x="318" y="-372" on="0"/>
        <pt x="280" y="-372" on="1"/>
        <pt x="250" y="-372" on="0"/>
        <pt x="193" y="-357" on="0"/>
        <pt x="145" y="-326" on="0"/>
        <pt x="108" y="-280" on="0"/>
        <pt x="99" y="-249" on="1"/>
        <pt x="222" y="-187" on="1"/>
        <pt x="223" y="-189" on="1"/>
        <pt x="215" y="-215" on="0"/>
        <pt x="215" y="-232" on="1"/>
        <pt x="215" y="-253" on="0"/>
        <pt x="242" y="-279" on="0"/>
        <pt x="277" y="-279" on="1"/>
        <pt x="291" y="-279" on="0"/>
        <pt x="319" y="-269" on="0"/>
        <pt x="342" y="-247" on="0"/>
        <pt x="356" y="-211" on="0"/>
        <pt x="356" y="-185" on="1"/>
        <pt x="356" y="-148" on="0"/>
        <pt x="301" y="-110" on="0"/>
        <pt x="252" y="-110" on="1"/>
        <pt x="248" y="-110" on="0"/>
        <pt x="236" y="-111" on="0"/>
        <pt x="231" y="-112" on="1"/>
        <pt x="225" y="-113" on="0"/>
        <pt x="218" y="-114" on="1"/>
      </contour>
    </TTGlyph>
    <TTGlyph name="cent" xMin="50" yMin="-192" xMax="701" yMax="1152">
      <contour>
        <pt x="363" y="-26" on="1"/>
        <pt x="295" y="-17" on="0"/>
        <pt x="181" y="57" on="0"/>
        <pt x="97" y="186" on="0"/>
        <pt x="50" y="367" on="0"/>
        <pt x="50" y="481" on="1"/>
        <pt x="50" y="599" on="0"/>
        <pt x="97" y="785" on="0"/>
        <pt x="181" y="915" on="0"/>
        <pt x="296" y="986" on="0"/>
        <pt x="363" y="991" on="1"/>
        <pt x="363" y="1152" on="1"/>
        <pt x="431" y="1152" on="1"/>
        <pt x="431" y="989" on="1"/>
        <pt x="491" y="981" on="0"/>
        <pt x="578" y="931" on="0"/>
        <pt x="641" y="852" on="0"/>
        <pt x="684" y="748" on="0"/>
        <pt x="701" y="687" on="1"/>
        <pt x="506" y="585" on="1"/>
        <pt x="504" y="589" on="1"/>
        <pt x="524" y="614" on="0"/>
        <pt x="541" y="664" on="0"/>
        <pt x="541" y="688" on="1"/>
        <pt x="541" y="716" on="0"/>
        <pt x="531" y="778" on="0"/>
        <pt x="507" y="833" on="0"/>
        <pt x="464" y="875" on="0"/>
        <pt x="431" y="883" on="1"/>
        <pt x="431" y="77" on="1"/>
        <pt x="465" y="81" on="0"/>
        <pt x="522" y="118" on="0"/>
        <pt x="567" y="175" on="0"/>
        <pt x="599" y="250" on="0"/>
        <pt x="609" y="292" on="1"/>
        <pt x="662" y="146" on="1"/>
        <pt x="576" y="-13" on="0"/>
        <pt x="431" y="-27" on="1"/>
        <pt x="431" y="-192" on="1"/>
        <pt x="363" y="-192" on="1"/>
      </contour>
      <contour>
        <pt x="200" y="481" on="1"/>
        <pt x="200" y="306" on="0"/>
        <pt x="285" y="106" on="0"/>
        <pt x="363" y="83" on="1"/>
        <pt x="363" y="883" on="1"/>
        <pt x="291" y="866" on="0"/>
        <pt x="200" y="668" on="0"/>
      </contour>
    </TTGlyph>
    <TTGlyph name="circumflex" xMin="27" yMin="1088" xMax="459" yMax="1402">
      <contour>
        <pt x="309" y="1402" on="1"/>
        <pt x="459" y="1088" on="1"/>
        <pt x="309" y="1088" on="1"/>
        <pt x="243" y="1336" on="1"/>
        <pt x="177" y="1088" on="1"/>
        <pt x="27" y="1088" on="1"/>
        <pt x="177" y="1402" on="1"/>
      </contour>
    </TTGlyph>
    <TTGlyph name="colon" xMin="77" yMin="54" xMax="295" yMax="780">
      <component glyphName="period" x="30" y="83" flags="0x1004"/>
      <component glyphName="period" x="46" y="607" flags="0x1004"/>
    </TTGlyph>
    <TTGlyph name="comma" xMin="42" yMin="-288" xMax="258" yMax="127">
      <contour>
        <pt x="42" y="-288" on="1"/>
        <pt x="54" y="-209" on="0"/>
        <pt x="64" y="-83" on="0"/>
        <pt x="65" y="17" on="0"/>
        <pt x="59" y="95" on="0"/>
        <pt x="55" y="127" on="1"/>
        <pt x="258" y="127" on="1"/>
        <pt x="241" y="67" on="0"/>
        <pt x="221" y="-1" on="1"/>
        <pt x="204" y="-59" on="0"/>
        <pt x="155" y="-208" on="0"/>
        <pt x="126" y="-288" on="1"/>
      </contour>
    </TTGlyph>
    <TTGlyph name="copyright" xMin="74" yMin="251" xMax="852" yMax="1326">
      <contour>
        <pt x="483" y="453" on="1"/>
        <pt x="433" y="453" on="0"/>
        <pt x="347" y="497" on="0"/>
        <pt x="283" y="581" on="0"/>
        <pt x="247" y="706" on="0"/>
        <pt x="247" y="787" on="1"/>
        <pt x="247" y="868" on="0"/>
        <pt x="281" y="993" on="0"/>
        <pt x="341" y="1078" on="0"/>
        <pt x="421" y="1122" on="0"/>
        <pt x="467" y="1122" on="1"/>
        <pt x="518" y="1122" on="0"/>
        <pt x="590" y="1088" on="0"/>
        <pt x="641" y="1027" on="0"/>
        <pt x="675" y="943" on="0"/>
        <pt x="687" y="892" on="1"/>
        <pt x="541" y="816" on="1"/>
        <pt x="539" y="818" on="1"/>
        <pt x="555" y="837" on="0"/>
        <pt x="566" y="875" on="0"/>
        <pt x="566" y="893" on="1"/>
        <pt x="566" y="917" on="0"/>
        <pt x="559" y="969" on="0"/>
        <pt x="539" y="1014" on="0"/>
        <pt x="505" y="1043" on="0"/>
        <pt x="478" y="1043" on="1"/>
        <pt x="427" y="1043" on="0"/>
        <pt x="360" y="919" on="0"/>
        <pt x="360" y="787" on="1"/>
        <pt x="360" y="662" on="0"/>
        <pt x="429" y="532" on="0"/>
        <pt x="489" y="532" on="1"/>
        <pt x="514" y="532" on="0"/>
        <pt x="556" y="558" on="0"/>
        <pt x="588" y="602" on="0"/>
        <pt x="611" y="661" on="0"/>
        <pt x="618" y="695" on="1"/>
        <pt x="658" y="585" on="1"/>
        <pt x="593" y="453" on="0"/>
      </contour>
      <contour>
        <pt x="852" y="788" on="1"/>
        <pt x="852" y="662" on="0"/>
        <pt x="788" y="462" on="0"/>
        <pt x="682" y="324" on="0"/>
        <pt x="543" y="251" on="0"/>
        <pt x="467" y="251" on="1"/>
        <pt x="383" y="251" on="0"/>
        <pt x="239" y="323" on="0"/>
        <pt x="134" y="460" on="0"/>
        <pt x="74" y="660" on="0"/>
        <pt x="74" y="788" on="1"/>
        <pt x="74" y="919" on="0"/>
        <pt x="135" y="1120" on="0"/>
        <pt x="241" y="1256" on="0"/>
        <pt x="384" y="1326" on="0"/>
        <pt x="467" y="1326" on="1"/>
        <pt x="546" y="1326" on="0"/>
        <pt x="687" y="1256" on="0"/>
        <pt x="791" y="1120" on="0"/>
        <pt x="852" y="919" on="0"/>
      </contour>
      <contour>
        <pt x="456" y="339" on="1"/>
        <pt x="531" y="339" on="0"/>
        <pt x="643" y="414" on="0"/>
        <pt x="716" y="539" on="0"/>
        <pt x="753" y="699" on="0"/>
        <pt x="753" y="785" on="1"/>
        <pt x="753" y="871" on="0"/>
        <pt x="716" y="1035" on="0"/>
        <pt x="642" y="1162" on="0"/>
        <pt x="531" y="1239" on="0"/>
        <pt x="456" y="1239" on="1"/>
        <pt x="387" y="1239" on="0"/>
        <pt x="284" y="1160" on="0"/>
        <pt x="215" y="1030" on="0"/>
        <pt x="180" y="864" on="0"/>
        <pt x="180" y="777" on="1"/>
        <pt x="180" y="692" on="0"/>
        <pt x="214" y="534" on="0"/>
        <pt x="282" y="412" on="0"/>
        <pt x="386" y="339" on="0"/>
      </contour>
    </TTGlyph>
    <TTGlyph name="currency" xMin="57" yMin="71" xMax="818" yMax="892">
      <contour>
        <pt x="156" y="482" on="1"/>
        <pt x="156" y="532" on="0"/>
        <pt x="167" y="621" on="0"/>
        <pt x="178" y="659" on="1"/>
        <pt x="141" y="692" on="0"/>
        <pt x="82" y="743" on="0"/>
        <pt x="57" y="762" on="1"/>
        <pt x="158" y="863" on="1"/>
        <pt x="184" y="824" on="0"/>
        <pt x="229" y="773" on="1"/>
        <pt x="267" y="832" on="0"/>
        <pt x="375" y="892" on="0"/>
        <pt x="438" y="892" on="1"/>
        <pt x="499" y="892" on="0"/>
        <pt x="606" y="830" on="0"/>
        <pt x="644" y="770" on="1"/>
        <pt x="667" y="796" on="0"/>
        <pt x="703" y="842" on="0"/>
        <pt x="717" y="863" on="1"/>
        <pt x="818" y="762" on="1"/>
        <pt x="792" y="742" on="0"/>
        <pt x="731" y="690" on="0"/>
        <pt x="693" y="655" on="1"/>
        <pt x="714" y="580" on="0"/>
        <pt x="714" y="482" on="1"/>
        <pt x="714" y="433" on="0"/>
        <pt x="703" y="347" on="0"/>
        <pt x="693" y="309" on="1"/>
        <pt x="732" y="274" on="0"/>
        <pt x="793" y="221" on="0"/>
        <pt x="818" y="201" on="1"/>
        <pt x="724" y="107" on="1"/>
        <pt x="709" y="125" on="0"/>
        <pt x="671" y="170" on="0"/>
        <pt x="646" y="196" on="1"/>
        <pt x="608" y="134" on="0"/>
        <pt x="501" y="71" on="0"/>
        <pt x="438" y="71" on="1"/>
        <pt x="373" y="71" on="0"/>
        <pt x="264" y="133" on="0"/>
        <pt x="226" y="193" on="1"/>
        <pt x="202" y="167" on="0"/>
        <pt x="165" y="125" on="0"/>
        <pt x="151" y="107" on="1"/>
        <pt x="57" y="201" on="1"/>
        <pt x="80" y="221" on="0"/>
        <pt x="140" y="272" on="0"/>
        <pt x="177" y="306" on="1"/>
        <pt x="156" y="382" on="0"/>
      </contour>
      <contour>
        <pt x="286" y="482" on="1"/>
        <pt x="286" y="333" on="0"/>
        <pt x="366" y="177" on="0"/>
        <pt x="438" y="177" on="1"/>
        <pt x="511" y="177" on="0"/>
        <pt x="584" y="333" on="0"/>
        <pt x="584" y="482" on="1"/>
        <pt x="584" y="631" on="0"/>
        <pt x="511" y="785" on="0"/>
        <pt x="438" y="785" on="1"/>
        <pt x="366" y="785" on="0"/>
        <pt x="286" y="631" on="0"/>
      </contour>
    </TTGlyph>
    <TTGlyph name="d" xMin="64" yMin="-15" xMax="785" yMax="1347">
      <contour>
        <pt x="663" y="624" on="1"/>
        <pt x="662" y="506" on="0"/>
        <pt x="665" y="284" on="0"/>
        <pt x="672" y="169" on="1"/>
        <pt x="676" y="108" on="0"/>
        <pt x="730" y="23" on="0"/>
        <pt x="785" y="5" on="1"/>
        <pt x="785" y="0" on="1"/>
        <pt x="600" y="0" on="1"/>
        <pt x="568" y="14" on="0"/>
        <pt x="535" y="62" on="0"/>
        <pt x="527" y="91" on="1"/>
        <pt x="521" y="80" on="0"/>
        <pt x="496" y="44" on="0"/>
        <pt x="457" y="11" on="0"/>
        <pt x="402" y="-14" on="0"/>
        <pt x="365" y="-15" on="1"/>
        <pt x="290" y="-16" on="0"/>
        <pt x="178" y="63" on="0"/>
        <pt x="102" y="204" on="0"/>
        <pt x="64" y="398" on="0"/>
        <pt x="64" y="512" on="1"/>
        <pt x="64" y="625" on="0"/>
        <pt x="110" y="803" on="0"/>
        <pt x="193" y="927" on="0"/>
        <pt x="308" y="992" on="0"/>
        <pt x="377" y="992" on="1"/>
        <pt x="395" y="992" on="0"/>
        <pt x="437" y="983" on="0"/>
        <pt x="479" y="962" on="0"/>
        <pt x="516" y="929" on="0"/>
        <pt x="528" y="906" on="1"/>
        <pt x="528" y="999" on="0"/>
        <pt x="526" y="1133" on="0"/>
        <pt x="501" y="1220" on="0"/>
        <pt x="442" y="1262" on="0"/>
        <pt x="385" y="1262" on="1"/>
        <pt x="385" y="1267" on="1"/>
        <pt x="676" y="1347" on="1"/>
        <pt x="672" y="1311" on="0"/>
        <pt x="668" y="1189" on="0"/>
        <pt x="665" y="1047" on="0"/>
        <pt x="664" y="901" on="0"/>
        <pt x="664" y="840" on="1"/>
      </contour>
      <contour>
        <pt x="382" y="76" on="1"/>
        <pt x="435" y="76" on="0"/>
        <pt x="517" y="186" on="0"/>
        <pt x="522" y="296" on="1"/>
        <pt x="525" y="346" on="0"/>
        <pt x="528" y="435" on="0"/>
        <pt x="529" y="520" on="0"/>
        <pt x="530" y="604" on="0"/>
        <pt x="530" y="649" on="1"/>
        <pt x="530" y="739" on="0"/>
        <pt x="500" y="839" on="0"/>
        <pt x="459" y="886" on="0"/>
        <pt x="416" y="896" on="0"/>
        <pt x="403" y="896" on="1"/>
        <pt x="214" y="896" on="0"/>
        <pt x="214" y="512" on="1"/>
        <pt x="214" y="406" on="0"/>
        <pt x="238" y="243" on="0"/>
        <pt x="283" y="133" on="0"/>
        <pt x="344" y="76" on="0"/>
      </contour>
    </TTGlyph>
    <TTGlyph name="dagger" xMin="37" yMin="0" xMax="559" yMax="963">
      <contour>
        <pt x="206" y="963" on="1"/>
        <pt x="388" y="963" on="1"/>
        <pt x="371" y="921" on="0"/>
        <pt x="350" y="783" on="0"/>
        <pt x="349" y="672" on="1"/>
        <pt x="421" y="672" on="0"/>
        <pt x="526" y="684" on="0"/>
        <pt x="559" y="710" on="1"/>
        <pt x="559" y="548" on="1"/>
        <pt x="528" y="563" on="0"/>
        <pt x="427" y="583" on="0"/>
        <pt x="349" y="586" on="1"/>
        <pt x="350" y="368" on="0"/>
        <pt x="369" y="84" on="0"/>
        <pt x="388" y="0" on="1"/>
        <pt x="206" y="0" on="1"/>
        <pt x="219" y="85" on="0"/>
        <pt x="241" y="371" on="0"/>
        <pt x="243" y="586" on="1"/>
        <pt x="162" y="583" on="0"/>
        <pt x="66" y="565" on="0"/>
        <pt x="37" y="548" on="1"/>
        <pt x="37" y="710" on="1"/>
        <pt x="68" y="698" on="0"/>
        <pt x="164" y="677" on="0"/>
        <pt x="244" y="673" on="1"/>
        <pt x="244" y="725" on="0"/>
        <pt x="243" y="812" on="0"/>
        <pt x="236" y="884" on="0"/>
        <pt x="220" y="940" on="0"/>
      </contour>
    </TTGlyph>
    <TTGlyph name="daggerdbl" xMin="67" yMin="0" xMax="589" yMax="1098">
      <contour>
        <pt x="379" y="337" on="1"/>
        <pt x="457" y="340" on="0"/>
        <pt x="558" y="360" on="0"/>
        <pt x="589" y="375" on="1"/>
        <pt x="589" y="213" on="1"/>
        <pt x="556" y="239" on="0"/>
        <pt x="451" y="251" on="0"/>
        <pt x="379" y="251" on="1"/>
        <pt x="380" y="155" on="0"/>
        <pt x="401" y="36" on="0"/>
        <pt x="418" y="0" on="1"/>
        <pt x="236" y="0" on="1"/>
        <pt x="264" y="39" on="0"/>
        <pt x="274" y="160" on="0"/>
        <pt x="274" y="250" on="1"/>
        <pt x="194" y="246" on="0"/>
        <pt x="98" y="225" on="0"/>
        <pt x="67" y="213" on="1"/>
        <pt x="67" y="375" on="1"/>
        <pt x="96" y="358" on="0"/>
        <pt x="192" y="340" on="0"/>
        <pt x="273" y="337" on="1"/>
        <pt x="273" y="418" on="0"/>
        <pt x="273" y="512" on="0"/>
        <pt x="274" y="560" on="0"/>
        <pt x="274" y="569" on="0"/>
        <pt x="274" y="559" on="0"/>
        <pt x="274" y="539" on="0"/>
        <pt x="274" y="529" on="0"/>
        <pt x="274" y="538" on="0"/>
        <pt x="273" y="586" on="0"/>
        <pt x="273" y="680" on="0"/>
        <pt x="273" y="761" on="1"/>
        <pt x="192" y="758" on="0"/>
        <pt x="96" y="740" on="0"/>
        <pt x="67" y="723" on="1"/>
        <pt x="67" y="885" on="1"/>
        <pt x="98" y="873" on="0"/>
        <pt x="194" y="852" on="0"/>
        <pt x="274" y="848" on="1"/>
        <pt x="274" y="938" on="0"/>
        <pt x="264" y="1059" on="0"/>
        <pt x="236" y="1098" on="1"/>
        <pt x="418" y="1098" on="1"/>
        <pt x="401" y="1062" on="0"/>
        <pt x="380" y="943" on="0"/>
        <pt x="379" y="847" on="1"/>
        <pt x="451" y="847" on="0"/>
        <pt x="556" y="859" on="0"/>
        <pt x="589" y="885" on="1"/>
        <pt x="589" y="723" on="1"/>
        <pt x="558" y="738" on="0"/>
        <pt x="457" y="758" on="0"/>
        <pt x="379" y="761" on="1"/>
      </contour>
    </TTGlyph>
    <TTGlyph name="degree" xMin="43" yMin="849" xMax="495" yMax="1280">
      <contour>
        <pt x="269" y="1280" on="1"/>
        <pt x="312" y="1280" on="0"/>
        <pt x="393" y="1252" on="0"/>
        <pt x="456" y="1198" on="0"/>
        <pt x="495" y="1117" on="0"/>
        <pt x="495" y="1065" on="1"/>
        <pt x="495" y="1012" on="0"/>
        <pt x="456" y="931" on="0"/>
        <pt x="392" y="877" on="0"/>
        <pt x="311" y="849" on="0"/>
        <pt x="269" y="849" on="1"/>
        <pt x="227" y="849" on="0"/>
        <pt x="146" y="877" on="0"/>
        <pt x="82" y="931" on="0"/>
        <pt x="43" y="1012" on="0"/>
        <pt x="43" y="1065" on="1"/>
        <pt x="43" y="1117" on="0"/>
        <pt x="82" y="1198" on="0"/>
        <pt x="145" y="1252" on="0"/>
        <pt x="226" y="1280" on="0"/>
      </contour>
      <contour>
        <pt x="269" y="924" on="1"/>
        <pt x="304" y="925" on="0"/>
        <pt x="355" y="949" on="0"/>
        <pt x="389" y="988" on="0"/>
        <pt x="406" y="1037" on="0"/>
        <pt x="406" y="1063" on="1"/>
        <pt x="406" y="1090" on="0"/>
        <pt x="388" y="1142" on="0"/>
        <pt x="354" y="1182" on="0"/>
        <pt x="303" y="1207" on="0"/>
        <pt x="269" y="1207" on="1"/>
        <pt x="235" y="1207" on="0"/>
        <pt x="184" y="1183" on="0"/>
        <pt x="149" y="1143" on="0"/>
        <pt x="131" y="1092" on="0"/>
        <pt x="131" y="1065" on="1"/>
        <pt x="131" y="1039" on="0"/>
        <pt x="148" y="990" on="0"/>
        <pt x="182" y="951" on="0"/>
        <pt x="234" y="926" on="0"/>
      </contour>
    </TTGlyph>
    <TTGlyph name="dieresis" xMin="48" yMin="1098" xMax="596" yMax="1300">
      <contour>
        <pt x="394" y="1198" on="1"/>
        <pt x="394" y="1219" on="0"/>
        <pt x="410" y="1256" on="0"/>
        <pt x="437" y="1284" on="0"/>
        <pt x="473" y="1300" on="0"/>
        <pt x="494" y="1300" on="1"/>
        <pt x="515" y="1300" on="0"/>
        <pt x="552" y="1284" on="0"/>
        <pt x="580" y="1256" on="0"/>
        <pt x="596" y="1219" on="0"/>
        <pt x="596" y="1198" on="1"/>
        <pt x="596" y="1177" on="0"/>
        <pt x="580" y="1141" on="0"/>
        <pt x="552" y="1114" on="0"/>
        <pt x="515" y="1098" on="0"/>
        <pt x="494" y="1098" on="1"/>
        <pt x="452" y="1098" on="0"/>
        <pt x="394" y="1156" on="0"/>
      </contour>
      <contour>
        <pt x="48" y="1198" on="1"/>
        <pt x="48" y="1219" on="0"/>
        <pt x="64" y="1256" on="0"/>
        <pt x="91" y="1284" on="0"/>
        <pt x="127" y="1300" on="0"/>
        <pt x="148" y="1300" on="1"/>
        <pt x="169" y="1300" on="0"/>
        <pt x="206" y="1284" on="0"/>
        <pt x="234" y="1256" on="0"/>
        <pt x="250" y="1219" on="0"/>
        <pt x="250" y="1198" on="1"/>
        <pt x="250" y="1177" on="0"/>
        <pt x="234" y="1141" on="0"/>
        <pt x="206" y="1114" on="0"/>
        <pt x="169" y="1098" on="0"/>
        <pt x="148" y="1098" on="1"/>
        <pt x="106" y="1098" on="0"/>
        <pt x="48" y="1156" on="0"/>
      </contour>
    </TTGlyph>
    <TTGlyph name="divide" xMin="55" yMin="86" xMax="590" yMax="874">
      <component glyphName="period" x="174" y="115" flags="0x1004"/>
      <component glyphName="period" x="174" y="701" flags="0x1004"/>
      <component glyphName="minus" x="-40" y="-69" flags="0x1004"/>
    </TTGlyph>
    <TTGlyph name="dollar" xMin="37" yMin="-128" xMax="624" yMax="1408">
      <contour>
        <pt x="287" y="88" on="1"/>
        <pt x="316" y="88" on="0"/>
        <pt x="366" y="113" on="0"/>
        <pt x="402" y="155" on="0"/>
        <pt x="422" y="207" on="0"/>
        <pt x="422" y="234" on="1"/>
        <pt x="422" y="308" on="0"/>
        <pt x="370" y="440" on="0"/>
        <pt x="292" y="565" on="0"/>
        <pt x="201" y="689" on="0"/>
        <pt x="123" y="818" on="0"/>
        <pt x="71" y="958" on="0"/>
        <pt x="71" y="1038" on="1"/>
        <pt x="71" y="1095" on="0"/>
        <pt x="114" y="1199" on="0"/>
        <pt x="194" y="1279" on="0"/>
        <pt x="309" y="1326" on="0"/>
        <pt x="382" y="1326" on="1"/>
        <pt x="439" y="1326" on="0"/>
        <pt x="563" y="1261" on="0"/>
        <pt x="624" y="1200" on="1"/>
        <pt x="483" y="971" on="1"/>
        <pt x="479" y="974" on="1"/>
        <pt x="489" y="1014" on="0"/>
        <pt x="489" y="1051" on="1"/>
        <pt x="489" y="1092" on="0"/>
        <pt x="466" y="1155" on="0"/>
        <pt x="431" y="1197" on="0"/>
        <pt x="389" y="1219" on="0"/>
        <pt x="369" y="1219" on="1"/>
        <pt x="337" y="1219" on="0"/>
        <pt x="283" y="1196" on="0"/>
        <pt x="244" y="1157" on="0"/>
        <pt x="222" y="1103" on="0"/>
        <pt x="222" y="1073" on="1"/>
        <pt x="222" y="1011" on="0"/>
        <pt x="276" y="880" on="0"/>
        <pt x="357" y="746" on="0"/>
        <pt x="451" y="608" on="0"/>
        <pt x="532" y="470" on="0"/>
        <pt x="586" y="333" on="0"/>
        <pt x="586" y="266" on="1"/>
        <pt x="586" y="208" on="0"/>
        <pt x="545" y="105" on="0"/>
        <pt x="466" y="27" on="0"/>
        <pt x="352" y="-18" on="0"/>
        <pt x="279" y="-18" on="1"/>
        <pt x="222" y="-18" on="0"/>
        <pt x="98" y="47" on="0"/>
        <pt x="37" y="108" on="1"/>
        <pt x="178" y="307" on="1"/>
        <pt x="182" y="304" on="1"/>
        <pt x="174" y="286" on="0"/>
        <pt x="168" y="251" on="0"/>
        <pt x="168" y="234" on="1"/>
        <pt x="168" y="203" on="0"/>
        <pt x="189" y="149" on="0"/>
        <pt x="222" y="110" on="0"/>
        <pt x="265" y="88" on="0"/>
      </contour>
      <contour>
        <pt x="285" y="1408" on="1"/>
        <pt x="356" y="1408" on="1"/>
        <pt x="356" y="-128" on="1"/>
        <pt x="285" y="-128" on="1"/>
      </contour>
    </TTGlyph>
    <TTGlyph name="dotaccent" xMin="38" yMin="1098" xMax="240" yMax="1300">
      <component glyphName="period" x="-9" y="1127" flags="0x1004"/>
    </TTGlyph>
    <TTGlyph name="dotlessi" xMin="17" yMin="0" xMax="408" yMax="993">
      <contour>
        <pt x="162" y="517" on="1"/>
        <pt x="162" y="610" on="0"/>
        <pt x="161" y="740" on="0"/>
        <pt x="153" y="827" on="0"/>
        <pt x="136" y="877" on="0"/>
        <pt x="103" y="902" on="0"/>
        <pt x="53" y="908" on="0"/>
        <pt x="17" y="908" on="1"/>
        <pt x="17" y="913" on="1"/>
        <pt x="308" y="993" on="1"/>
        <pt x="297" y="884" on="0"/>
        <pt x="296" y="621" on="0"/>
        <pt x="296" y="480" on="1"/>
        <pt x="296" y="424" on="0"/>
        <pt x="296" y="348" on="0"/>
        <pt x="297" y="280" on="0"/>
        <pt x="301" y="205" on="0"/>
        <pt x="305" y="149" on="1"/>
        <pt x="309" y="95" on="0"/>
        <pt x="357" y="22" on="0"/>
        <pt x="408" y="5" on="1"/>
        <pt x="408" y="0" on="1"/>
        <pt x="47" y="0" on="1"/>
        <pt x="47" y="5" on="1"/>
        <pt x="98" y="22" on="0"/>
        <pt x="142" y="100" on="0"/>
        <pt x="146" y="153" on="1"/>
        <pt x="148" y="199" on="0"/>
        <pt x="153" y="268" on="0"/>
        <pt x="156" y="324" on="0"/>
        <pt x="159" y="372" on="0"/>
        <pt x="161" y="422" on="0"/>
        <pt x="162" y="479" on="0"/>
      </contour>
    </TTGlyph>
    <TTGlyph name="e" xMin="63" yMin="-29" xMax="647" yMax="993">
      <contour>
        <pt x="428" y="341" on="1"/>
        <pt x="647" y="321" on="1"/>
        <pt x="647" y="231" on="0"/>
        <pt x="596" y="100" on="0"/>
        <pt x="517" y="13" on="0"/>
        <pt x="421" y="-29" on="0"/>
        <pt x="375" y="-29" on="1"/>
        <pt x="309" y="-29" on="0"/>
        <pt x="195" y="39" on="0"/>
        <pt x="111" y="169" on="0"/>
        <pt x="63" y="359" on="0"/>
        <pt x="63" y="482" on="1"/>
        <pt x="63" y="605" on="0"/>
        <pt x="111" y="795" on="0"/>
        <pt x="195" y="925" on="0"/>
        <pt x="309" y="993" on="0"/>
        <pt x="375" y="993" on="1"/>
        <pt x="430" y="993" on="0"/>
        <pt x="523" y="934" on="0"/>
        <pt x="593" y="819" on="0"/>
        <pt x="636" y="648" on="0"/>
        <pt x="641" y="537" on="1"/>
        <pt x="218" y="389" on="1"/>
        <pt x="231" y="225" on="0"/>
        <pt x="321" y="76" on="0"/>
        <pt x="390" y="76" on="1"/>
        <pt x="423" y="76" on="0"/>
        <pt x="468" y="101" on="0"/>
        <pt x="497" y="142" on="0"/>
        <pt x="510" y="193" on="0"/>
        <pt x="510" y="220" on="1"/>
        <pt x="510" y="252" on="0"/>
        <pt x="469" y="314" on="0"/>
        <pt x="427" y="336" on="1"/>
      </contour>
      <contour>
        <pt x="213" y="478" on="1"/>
        <pt x="242" y="489" on="0"/>
        <pt x="328" y="523" on="0"/>
        <pt x="393" y="553" on="1"/>
        <pt x="430" y="570" on="0"/>
        <pt x="484" y="604" on="0"/>
        <pt x="505" y="616" on="1"/>
        <pt x="495" y="755" on="0"/>
        <pt x="430" y="887" on="0"/>
        <pt x="375" y="887" on="1"/>
        <pt x="298" y="887" on="0"/>
        <pt x="213" y="683" on="0"/>
        <pt x="213" y="482" on="1"/>
      </contour>
    </TTGlyph>
    <TTGlyph name="eacute" xMin="63" yMin="-29" xMax="647" yMax="1438">
      <component glyphName="e" x="0" y="0" flags="0x1204"/>
      <component glyphName="acute" x="194" y="0" flags="0x1004"/>
    </TTGlyph>
    <TTGlyph name="ecircumflex" xMin="63" yMin="-29" xMax="647" yMax="1402">
      <component glyphName="e" x="0" y="0" flags="0x1204"/>
      <component glyphName="circumflex" x="110" y="0" flags="0x1004"/>
    </TTGlyph>
    <TTGlyph name="edieresis" xMin="63" yMin="-29" xMax="647" yMax="1300">
      <component glyphName="e" x="0" y="0" flags="0x1204"/>
      <component glyphName="dieresis" x="31" y="0" flags="0x1004"/>
    </TTGlyph>
    <TTGlyph name="egrave" xMin="63" yMin="-29" xMax="647" yMax="1438">
      <component glyphName="e" x="0" y="0" flags="0x1204"/>
      <component glyphName="grave" x="229" y="0" flags="0x1004"/>
    </TTGlyph>
    <TTGlyph name="eight" xMin="62" yMin="-29" xMax="716" yMax="1347">
      <contour>
        <pt x="381" y="77" on="1"/>
        <pt x="429" y="77" on="0"/>
        <pt x="499" y="125" on="0"/>
        <pt x="546" y="204" on="0"/>
        <pt x="568" y="307" on="0"/>
        <pt x="568" y="362" on="1"/>
        <pt x="568" y="411" on="0"/>
        <pt x="553" y="509" on="0"/>
        <pt x="523" y="595" on="0"/>
        <pt x="479" y="665" on="0"/>
        <pt x="451" y="686" on="1"/>
        <pt x="382" y="680" on="0"/>
        <pt x="290" y="626" on="0"/>
        <pt x="235" y="535" on="0"/>
        <pt x="212" y="407" on="0"/>
        <pt x="212" y="328" on="1"/>
        <pt x="212" y="202" on="0"/>
        <pt x="303" y="77" on="0"/>
      </contour>
      <contour>
        <pt x="389" y="1347" on="1"/>
        <pt x="448" y="1347" on="0"/>
        <pt x="556" y="1307" on="0"/>
        <pt x="638" y="1229" on="0"/>
        <pt x="686" y="1113" on="0"/>
        <pt x="686" y="1038" on="1"/>
        <pt x="686" y="926" on="0"/>
        <pt x="599" y="770" on="0"/>
        <pt x="526" y="725" on="1"/>
        <pt x="612" y="669" on="0"/>
        <pt x="716" y="474" on="0"/>
        <pt x="716" y="332" on="1"/>
        <pt x="716" y="244" on="0"/>
        <pt x="669" y="109" on="0"/>
        <pt x="582" y="18" on="0"/>
        <pt x="459" y="-29" on="0"/>
        <pt x="383" y="-29" on="1"/>
        <pt x="312" y="-29" on="0"/>
        <pt x="194" y="18" on="0"/>
        <pt x="109" y="109" on="0"/>
        <pt x="62" y="244" on="0"/>
        <pt x="62" y="332" on="1"/>
        <pt x="62" y="474" on="0"/>
        <pt x="166" y="669" on="0"/>
        <pt x="252" y="725" on="1"/>
        <pt x="179" y="770" on="0"/>
        <pt x="92" y="926" on="0"/>
        <pt x="92" y="1038" on="1"/>
        <pt x="92" y="1113" on="0"/>
        <pt x="140" y="1229" on="0"/>
        <pt x="222" y="1307" on="0"/>
        <pt x="330" y="1347" on="0"/>
      </contour>
      <contour>
        <pt x="389" y="1243" on="1"/>
        <pt x="352" y="1243" on="0"/>
        <pt x="296" y="1205" on="0"/>
        <pt x="259" y="1141" on="0"/>
        <pt x="241" y="1059" on="0"/>
        <pt x="241" y="1016" on="1"/>
        <pt x="241" y="977" on="0"/>
        <pt x="253" y="901" on="0"/>
        <pt x="277" y="834" on="0"/>
        <pt x="313" y="781" on="0"/>
        <pt x="337" y="765" on="1"/>
        <pt x="394" y="771" on="0"/>
        <pt x="471" y="813" on="0"/>
        <pt x="517" y="884" on="0"/>
        <pt x="536" y="981" on="0"/>
        <pt x="536" y="1042" on="1"/>
        <pt x="536" y="1093" on="0"/>
        <pt x="512" y="1169" on="0"/>
        <pt x="471" y="1218" on="0"/>
        <pt x="418" y="1243" on="0"/>
      </contour>
    </TTGlyph>
    <TTGlyph name="ellipsis" xMin="47" yMin="-29" xMax="801" yMax="173">
      <contour>
        <pt x="47" y="71" on="1"/>
        <pt x="47" y="92" on="0"/>
        <pt x="63" y="129" on="0"/>
        <pt x="90" y="157" on="0"/>
        <pt x="126" y="173" on="0"/>
        <pt x="147" y="173" on="1"/>
        <pt x="168" y="173" on="0"/>
        <pt x="205" y="157" on="0"/>
        <pt x="233" y="129" on="0"/>
        <pt x="249" y="92" on="0"/>
        <pt x="249" y="71" on="1"/>
        <pt x="249" y="50" on="0"/>
        <pt x="233" y="14" on="0"/>
        <pt x="205" y="-13" on="0"/>
        <pt x="168" y="-29" on="0"/>
        <pt x="147" y="-29" on="1"/>
        <pt x="105" y="-29" on="0"/>
        <pt x="47" y="29" on="0"/>
      </contour>
      <contour>
        <pt x="323" y="71" on="1"/>
        <pt x="323" y="92" on="0"/>
        <pt x="339" y="129" on="0"/>
        <pt x="366" y="157" on="0"/>
        <pt x="402" y="173" on="0"/>
        <pt x="423" y="173" on="1"/>
        <pt x="444" y="173" on="0"/>
        <pt x="481" y="157" on="0"/>
        <pt x="509" y="129" on="0"/>
        <pt x="525" y="92" on="0"/>
        <pt x="525" y="71" on="1"/>
        <pt x="525" y="50" on="0"/>
        <pt x="509" y="14" on="0"/>
        <pt x="481" y="-13" on="0"/>
        <pt x="444" y="-29" on="0"/>
        <pt x="423" y="-29" on="1"/>
        <pt x="381" y="-29" on="0"/>
        <pt x="323" y="29" on="0"/>
      </contour>
      <contour>
        <pt x="599" y="71" on="1"/>
        <pt x="599" y="92" on="0"/>
        <pt x="615" y="129" on="0"/>
        <pt x="642" y="157" on="0"/>
        <pt x="678" y="173" on="0"/>
        <pt x="699" y="173" on="1"/>
        <pt x="720" y="173" on="0"/>
        <pt x="757" y="157" on="0"/>
        <pt x="785" y="129" on="0"/>
        <pt x="801" y="92" on="0"/>
        <pt x="801" y="71" on="1"/>
        <pt x="801" y="50" on="0"/>
        <pt x="785" y="14" on="0"/>
        <pt x="757" y="-13" on="0"/>
        <pt x="720" y="-29" on="0"/>
        <pt x="699" y="-29" on="1"/>
        <pt x="657" y="-29" on="0"/>
        <pt x="599" y="29" on="0"/>
      </contour>
    </TTGlyph>
    <TTGlyph name="emdash" xMin="75" yMin="478" xMax="770" yMax="621">
      <contour>
        <pt x="770" y="621" on="1"/>
        <pt x="770" y="478" on="1"/>
        <pt x="721" y="486" on="0"/>
        <pt x="559" y="497" on="0"/>
        <pt x="426" y="497" on="1"/>
        <pt x="288" y="497" on="0"/>
        <pt x="121" y="494" on="0"/>
        <pt x="75" y="487" on="1"/>
        <pt x="75" y="620" on="1"/>
        <pt x="124" y="613" on="0"/>
        <pt x="293" y="602" on="0"/>
        <pt x="428" y="602" on="1"/>
        <pt x="554" y="602" on="0"/>
        <pt x="718" y="607" on="0"/>
      </contour>
    </TTGlyph>
    <TTGlyph name="endash" xMin="75" yMin="478" xMax="610" yMax="621">
      <contour>
        <pt x="610" y="621" on="1"/>
        <pt x="610" y="478" on="1"/>
        <pt x="573" y="486" on="0"/>
        <pt x="449" y="497" on="0"/>
        <pt x="346" y="497" on="1"/>
        <pt x="238" y="497" on="0"/>
        <pt x="109" y="494" on="0"/>
        <pt x="75" y="487" on="1"/>
        <pt x="75" y="620" on="1"/>
        <pt x="112" y="613" on="0"/>
        <pt x="242" y="602" on="0"/>
        <pt x="348" y="602" on="1"/>
        <pt x="444" y="602" on="0"/>
        <pt x="570" y="607" on="0"/>
      </contour>
    </TTGlyph>
    <TTGlyph name="equal" xMin="95" yMin="269" xMax="630" yMax="691">
      <contour>
        <pt x="630" y="691" on="1"/>
        <pt x="630" y="548" on="1"/>
        <pt x="593" y="556" on="0"/>
        <pt x="469" y="567" on="0"/>
        <pt x="366" y="567" on="1"/>
        <pt x="258" y="567" on="0"/>
        <pt x="129" y="564" on="0"/>
        <pt x="95" y="557" on="1"/>
        <pt x="95" y="690" on="1"/>
        <pt x="132" y="683" on="0"/>
        <pt x="262" y="672" on="0"/>
        <pt x="368" y="672" on="1"/>
        <pt x="464" y="672" on="0"/>
        <pt x="590" y="677" on="0"/>
      </contour>
      <contour>
        <pt x="630" y="412" on="1"/>
        <pt x="630" y="269" on="1"/>
        <pt x="593" y="277" on="0"/>
        <pt x="469" y="288" on="0"/>
        <pt x="366" y="288" on="1"/>
        <pt x="258" y="288" on="0"/>
        <pt x="129" y="285" on="0"/>
        <pt x="95" y="278" on="1"/>
        <pt x="95" y="411" on="1"/>
        <pt x="132" y="404" on="0"/>
        <pt x="262" y="393" on="0"/>
        <pt x="368" y="393" on="1"/>
        <pt x="464" y="393" on="0"/>
        <pt x="590" y="398" on="0"/>
      </contour>
    </TTGlyph>
    <TTGlyph name="eth" xMin="46" yMin="-16" xMax="848" yMax="1317">
      <contour>
        <pt x="848" y="1084" on="1"/>
        <pt x="848" y="941" on="1"/>
        <pt x="821" y="947" on="0"/>
        <pt x="742" y="956" on="0"/>
        <pt x="683" y="958" on="1"/>
        <pt x="700" y="892" on="0"/>
        <pt x="719" y="737" on="0"/>
        <pt x="719" y="649" on="1"/>
        <pt x="719" y="583" on="0"/>
        <pt x="705" y="433" on="0"/>
        <pt x="672" y="285" on="0"/>
        <pt x="619" y="149" on="0"/>
        <pt x="541" y="46" on="0"/>
        <pt x="437" y="-16" on="0"/>
        <pt x="370" y="-16" on="1"/>
        <pt x="293" y="-16" on="0"/>
        <pt x="172" y="65" on="0"/>
        <pt x="89" y="194" on="0"/>
        <pt x="46" y="356" on="0"/>
        <pt x="46" y="437" on="1"/>
        <pt x="46" y="513" on="0"/>
        <pt x="78" y="653" on="0"/>
        <pt x="145" y="761" on="0"/>
        <pt x="247" y="826" on="0"/>
        <pt x="317" y="826" on="1"/>
        <pt x="344" y="826" on="0"/>
        <pt x="409" y="807" on="0"/>
        <pt x="468" y="769" on="0"/>
        <pt x="510" y="714" on="0"/>
        <pt x="515" y="677" on="1"/>
        <pt x="377" y="563" on="1"/>
        <pt x="396" y="594" on="0"/>
        <pt x="413" y="643" on="0"/>
        <pt x="413" y="664" on="1"/>
        <pt x="413" y="683" on="0"/>
        <pt x="394" y="707" on="0"/>
        <pt x="367" y="721" on="0"/>
        <pt x="336" y="726" on="0"/>
        <pt x="324" y="726" on="1"/>
        <pt x="290" y="726" on="0"/>
        <pt x="239" y="678" on="0"/>
        <pt x="206" y="597" on="0"/>
        <pt x="190" y="492" on="0"/>
        <pt x="190" y="435" on="1"/>
        <pt x="190" y="374" on="0"/>
        <pt x="214" y="251" on="0"/>
        <pt x="259" y="152" on="0"/>
        <pt x="326" y="90" on="0"/>
        <pt x="370" y="90" on="1"/>
        <pt x="410" y="90" on="0"/>
        <pt x="471" y="141" on="0"/>
        <pt x="513" y="226" on="0"/>
        <pt x="541" y="338" on="0"/>
        <pt x="557" y="459" on="0"/>
        <pt x="563" y="583" on="0"/>
        <pt x="563" y="638" on="1"/>
        <pt x="563" y="723" on="0"/>
        <pt x="545" y="888" on="0"/>
        <pt x="527" y="960" on="1"/>
        <pt x="446" y="960" on="0"/>
        <pt x="342" y="956" on="0"/>
        <pt x="313" y="950" on="1"/>
        <pt x="313" y="1083" on="1"/>
        <pt x="341" y="1078" on="0"/>
        <pt x="428" y="1068" on="0"/>
        <pt x="493" y="1066" on="1"/>
        <pt x="467" y="1131" on="0"/>
        <pt x="393" y="1207" on="0"/>
        <pt x="347" y="1207" on="1"/>
        <pt x="318" y="1207" on="0"/>
        <pt x="270" y="1175" on="0"/>
        <pt x="235" y="1122" on="0"/>
        <pt x="215" y="1056" on="0"/>
        <pt x="215" y="1022" on="1"/>
        <pt x="215" y="992" on="0"/>
        <pt x="237" y="934" on="0"/>
        <pt x="261" y="911" on="1"/>
        <pt x="258" y="906" on="1"/>
        <pt x="129" y="992" on="1"/>
        <pt x="89" y="1025" on="0"/>
        <pt x="89" y="1076" on="1"/>
        <pt x="89" y="1115" on="0"/>
        <pt x="128" y="1201" on="0"/>
        <pt x="196" y="1271" on="0"/>
        <pt x="285" y="1317" on="0"/>
        <pt x="336" y="1317" on="1"/>
        <pt x="434" y="1317" on="0"/>
        <pt x="595" y="1189" on="0"/>
        <pt x="647" y="1065" on="1"/>
        <pt x="717" y="1065" on="0"/>
        <pt x="815" y="1072" on="0"/>
      </contour>
    </TTGlyph>
    <TTGlyph name="exclam" xMin="71" yMin="0" xMax="312" yMax="1326">
      <contour>
        <pt x="71" y="1321" on="1"/>
        <pt x="71" y="1326" on="1"/>
        <pt x="312" y="1326" on="1"/>
        <pt x="312" y="1321" on="1"/>
        <pt x="300" y="1296" on="0"/>
        <pt x="281" y="1201" on="0"/>
        <pt x="266" y="1075" on="0"/>
        <pt x="255" y="927" on="0"/>
        <pt x="247" y="773" on="0"/>
        <pt x="240" y="619" on="0"/>
        <pt x="234" y="482" on="0"/>
        <pt x="228" y="369" on="0"/>
        <pt x="224" y="333" on="1"/>
        <pt x="153" y="333" on="1"/>
        <pt x="151" y="372" on="0"/>
        <pt x="146" y="488" on="0"/>
        <pt x="139" y="628" on="0"/>
        <pt x="132" y="782" on="0"/>
        <pt x="123" y="936" on="0"/>
        <pt x="111" y="1083" on="0"/>
        <pt x="98" y="1206" on="0"/>
        <pt x="81" y="1298" on="0"/>
      </contour>
      <contour>
        <pt x="103" y="91" on="1"/>
        <pt x="103" y="129" on="0"/>
        <pt x="155" y="181" on="0"/>
        <pt x="193" y="181" on="1"/>
        <pt x="231" y="181" on="0"/>
        <pt x="284" y="129" on="0"/>
        <pt x="284" y="91" on="1"/>
        <pt x="284" y="53" on="0"/>
        <pt x="231" y="0" on="0"/>
        <pt x="193" y="0" on="1"/>
        <pt x="155" y="0" on="0"/>
        <pt x="103" y="53" on="0"/>
      </contour>
    </TTGlyph>
    <TTGlyph name="exclamdown" xMin="72" yMin="0" xMax="313" yMax="1326">
      <contour>
        <pt x="72" y="5" on="1"/>
        <pt x="82" y="28" on="0"/>
        <pt x="99" y="120" on="0"/>
        <pt x="112" y="243" on="0"/>
        <pt x="124" y="390" on="0"/>
        <pt x="133" y="544" on="0"/>
        <pt x="140" y="698" on="0"/>
        <pt x="147" y="838" on="0"/>
        <pt x="152" y="954" on="0"/>
        <pt x="154" y="993" on="1"/>
        <pt x="225" y="993" on="1"/>
        <pt x="229" y="957" on="0"/>
        <pt x="235" y="844" on="0"/>
        <pt x="241" y="707" on="0"/>
        <pt x="248" y="553" on="0"/>
        <pt x="256" y="399" on="0"/>
        <pt x="267" y="251" on="0"/>
        <pt x="282" y="125" on="0"/>
        <pt x="301" y="30" on="0"/>
        <pt x="313" y="5" on="1"/>
        <pt x="313" y="0" on="1"/>
        <pt x="72" y="0" on="1"/>
      </contour>
      <contour>
        <pt x="104" y="1235" on="1"/>
        <pt x="104" y="1273" on="0"/>
        <pt x="156" y="1326" on="0"/>
        <pt x="194" y="1326" on="1"/>
        <pt x="232" y="1326" on="0"/>
        <pt x="285" y="1273" on="0"/>
        <pt x="285" y="1235" on="1"/>
        <pt x="285" y="1197" on="0"/>
        <pt x="232" y="1145" on="0"/>
        <pt x="194" y="1145" on="1"/>
        <pt x="156" y="1145" on="0"/>
        <pt x="104" y="1197" on="0"/>
      </contour>
    </TTGlyph>
    <TTGlyph name="f" xMin="28" yMin="0" xMax="570" yMax="1388">
      <contour>
        <pt x="143" y="597" on="1"/>
        <pt x="143" y="640" on="0"/>
        <pt x="142" y="715" on="0"/>
        <pt x="141" y="789" on="0"/>
        <pt x="139" y="864" on="0"/>
        <pt x="139" y="907" on="1"/>
        <pt x="111" y="909" on="0"/>
        <pt x="75" y="912" on="0"/>
        <pt x="64" y="914" on="1"/>
        <pt x="51" y="916" on="0"/>
        <pt x="44" y="918" on="1"/>
        <pt x="44" y="978" on="1"/>
        <pt x="139" y="978" on="1"/>
        <pt x="139" y="1191" on="0"/>
        <pt x="248" y="1388" on="0"/>
        <pt x="346" y="1388" on="1"/>
        <pt x="394" y="1388" on="0"/>
        <pt x="505" y="1349" on="0"/>
        <pt x="570" y="1304" on="1"/>
        <pt x="443" y="1089" on="1"/>
        <pt x="440" y="1091" on="1"/>
        <pt x="446" y="1107" on="0"/>
        <pt x="446" y="1134" on="1"/>
        <pt x="446" y="1166" on="0"/>
        <pt x="430" y="1219" on="0"/>
        <pt x="404" y="1258" on="0"/>
        <pt x="372" y="1279" on="0"/>
        <pt x="356" y="1279" on="1"/>
        <pt x="341" y="1279" on="0"/>
        <pt x="314" y="1259" on="0"/>
        <pt x="293" y="1196" on="0"/>
        <pt x="281" y="1077" on="0"/>
        <pt x="281" y="978" on="1"/>
        <pt x="352" y="978" on="1"/>
        <pt x="407" y="978" on="0"/>
        <pt x="484" y="981" on="0"/>
        <pt x="509" y="983" on="1"/>
        <pt x="538" y="985" on="0"/>
        <pt x="556" y="988" on="1"/>
        <pt x="516" y="858" on="1"/>
        <pt x="505" y="869" on="0"/>
        <pt x="484" y="879" on="1"/>
        <pt x="466" y="887" on="0"/>
        <pt x="402" y="901" on="0"/>
        <pt x="351" y="901" on="1"/>
        <pt x="280" y="901" on="1"/>
        <pt x="279" y="810" on="0"/>
        <pt x="278" y="579" on="0"/>
        <pt x="278" y="427" on="1"/>
        <pt x="278" y="393" on="0"/>
        <pt x="278" y="334" on="0"/>
        <pt x="280" y="271" on="0"/>
        <pt x="283" y="197" on="0"/>
        <pt x="286" y="149" on="1"/>
        <pt x="289" y="95" on="0"/>
        <pt x="338" y="22" on="0"/>
        <pt x="389" y="5" on="1"/>
        <pt x="389" y="0" on="1"/>
        <pt x="28" y="0" on="1"/>
        <pt x="28" y="5" on="1"/>
        <pt x="79" y="22" on="0"/>
        <pt x="124" y="100" on="0"/>
        <pt x="127" y="153" on="1"/>
        <pt x="132" y="237" on="0"/>
        <pt x="138" y="368" on="0"/>
        <pt x="142" y="473" on="0"/>
        <pt x="143" y="558" on="0"/>
      </contour>
    </TTGlyph>
    <TTGlyph name="fi" xMin="28" yMin="0" xMax="985" yMax="1388">
      <contour>
        <pt x="739" y="517" on="1"/>
        <pt x="739" y="610" on="0"/>
        <pt x="738" y="742" on="0"/>
        <pt x="734" y="830" on="0"/>
        <pt x="728" y="882" on="0"/>
        <pt x="723" y="894" on="1"/>
        <pt x="673" y="899" on="0"/>
        <pt x="540" y="901" on="0"/>
        <pt x="441" y="901" on="1"/>
        <pt x="280" y="901" on="1"/>
        <pt x="279" y="810" on="0"/>
        <pt x="278" y="579" on="0"/>
        <pt x="278" y="427" on="1"/>
        <pt x="278" y="393" on="0"/>
        <pt x="278" y="334" on="0"/>
        <pt x="280" y="271" on="0"/>
        <pt x="283" y="197" on="0"/>
        <pt x="286" y="149" on="1"/>
        <pt x="289" y="95" on="0"/>
        <pt x="338" y="22" on="0"/>
        <pt x="389" y="5" on="1"/>
        <pt x="389" y="0" on="1"/>
        <pt x="28" y="0" on="1"/>
        <pt x="28" y="5" on="1"/>
        <pt x="79" y="22" on="0"/>
        <pt x="124" y="100" on="0"/>
        <pt x="127" y="153" on="1"/>
        <pt x="132" y="237" on="0"/>
        <pt x="138" y="368" on="0"/>
        <pt x="142" y="473" on="0"/>
        <pt x="143" y="558" on="0"/>
        <pt x="143" y="597" on="1"/>
        <pt x="143" y="640" on="0"/>
        <pt x="142" y="715" on="0"/>
        <pt x="141" y="789" on="0"/>
        <pt x="139" y="864" on="0"/>
        <pt x="139" y="907" on="1"/>
        <pt x="111" y="909" on="0"/>
        <pt x="75" y="912" on="0"/>
        <pt x="64" y="914" on="1"/>
        <pt x="51" y="916" on="0"/>
        <pt x="44" y="918" on="1"/>
        <pt x="44" y="978" on="1"/>
        <pt x="139" y="978" on="1"/>
        <pt x="139" y="1191" on="0"/>
        <pt x="248" y="1388" on="0"/>
        <pt x="346" y="1388" on="1"/>
        <pt x="394" y="1388" on="0"/>
        <pt x="505" y="1349" on="0"/>
        <pt x="570" y="1304" on="1"/>
        <pt x="443" y="1089" on="1"/>
        <pt x="440" y="1091" on="1"/>
        <pt x="446" y="1107" on="0"/>
        <pt x="446" y="1134" on="1"/>
        <pt x="446" y="1166" on="0"/>
        <pt x="430" y="1219" on="0"/>
        <pt x="404" y="1258" on="0"/>
        <pt x="372" y="1279" on="0"/>
        <pt x="356" y="1279" on="1"/>
        <pt x="341" y="1279" on="0"/>
        <pt x="314" y="1259" on="0"/>
        <pt x="293" y="1196" on="0"/>
        <pt x="281" y="1077" on="0"/>
        <pt x="281" y="978" on="1"/>
        <pt x="442" y="978" on="1"/>
        <pt x="560" y="978" on="0"/>
        <pt x="727" y="982" on="0"/>
        <pt x="781" y="985" on="1"/>
        <pt x="843" y="988" on="0"/>
        <pt x="885" y="992" on="1"/>
        <pt x="874" y="883" on="0"/>
        <pt x="873" y="621" on="0"/>
        <pt x="873" y="480" on="1"/>
        <pt x="873" y="424" on="0"/>
        <pt x="873" y="348" on="0"/>
        <pt x="874" y="280" on="0"/>
        <pt x="878" y="205" on="0"/>
        <pt x="882" y="149" on="1"/>
        <pt x="886" y="95" on="0"/>
        <pt x="934" y="22" on="0"/>
        <pt x="985" y="5" on="1"/>
        <pt x="985" y="0" on="1"/>
        <pt x="624" y="0" on="1"/>
        <pt x="624" y="5" on="1"/>
        <pt x="675" y="22" on="0"/>
        <pt x="719" y="100" on="0"/>
        <pt x="723" y="153" on="1"/>
        <pt x="725" y="199" on="0"/>
        <pt x="730" y="268" on="0"/>
        <pt x="733" y="324" on="0"/>
        <pt x="736" y="372" on="0"/>
        <pt x="738" y="422" on="0"/>
        <pt x="739" y="479" on="0"/>
      </contour>
      <contour>
        <pt x="700" y="1235" on="1"/>
        <pt x="700" y="1273" on="0"/>
        <pt x="752" y="1326" on="0"/>
        <pt x="790" y="1326" on="1"/>
        <pt x="828" y="1326" on="0"/>
        <pt x="881" y="1273" on="0"/>
        <pt x="881" y="1235" on="1"/>
        <pt x="881" y="1197" on="0"/>
        <pt x="828" y="1145" on="0"/>
        <pt x="790" y="1145" on="1"/>
        <pt x="752" y="1145" on="0"/>
        <pt x="700" y="1197" on="0"/>
      </contour>
    </TTGlyph>
    <TTGlyph name="five" xMin="44" yMin="-29" xMax="628" yMax="1327">
      <contour>
        <pt x="239" y="813" on="1"/>
        <pt x="318" y="835" on="0"/>
        <pt x="459" y="810" on="0"/>
        <pt x="565" y="705" on="0"/>
        <pt x="628" y="515" on="0"/>
        <pt x="628" y="372" on="1"/>
        <pt x="628" y="274" on="0"/>
        <pt x="579" y="124" on="0"/>
        <pt x="492" y="23" on="0"/>
        <pt x="374" y="-29" on="0"/>
        <pt x="306" y="-29" on="1"/>
        <pt x="262" y="-29" on="0"/>
        <pt x="169" y="13" on="0"/>
        <pt x="93" y="100" on="0"/>
        <pt x="44" y="231" on="0"/>
        <pt x="44" y="321" on="1"/>
        <pt x="273" y="361" on="1"/>
        <pt x="274" y="356" on="1"/>
        <pt x="232" y="334" on="0"/>
        <pt x="191" y="272" on="0"/>
        <pt x="191" y="240" on="1"/>
        <pt x="191" y="211" on="0"/>
        <pt x="204" y="156" on="0"/>
        <pt x="233" y="113" on="0"/>
        <pt x="278" y="86" on="0"/>
        <pt x="311" y="86" on="1"/>
        <pt x="344" y="86" on="0"/>
        <pt x="404" y="120" on="0"/>
        <pt x="450" y="190" on="0"/>
        <pt x="478" y="296" on="0"/>
        <pt x="478" y="368" on="1"/>
        <pt x="478" y="457" on="0"/>
        <pt x="462" y="579" on="0"/>
        <pt x="426" y="658" on="0"/>
        <pt x="370" y="699" on="0"/>
        <pt x="290" y="712" on="0"/>
        <pt x="183" y="704" on="0"/>
        <pt x="116" y="694" on="1"/>
        <pt x="83" y="1326" on="1"/>
        <pt x="209" y="1327" on="0"/>
        <pt x="441" y="1326" on="0"/>
        <pt x="559" y="1326" on="1"/>
        <pt x="559" y="1080" on="1"/>
        <pt x="554" y="1080" on="1"/>
        <pt x="549" y="1106" on="0"/>
        <pt x="523" y="1157" on="0"/>
        <pt x="481" y="1196" on="0"/>
        <pt x="422" y="1220" on="0"/>
        <pt x="383" y="1220" on="1"/>
        <pt x="218" y="1220" on="1"/>
      </contour>
    </TTGlyph>
    <TTGlyph name="fl" xMin="28" yMin="0" xMax="989" yMax="1388">
      <component glyphName="f" x="0" y="0" flags="0x1004"/>
      <component glyphName="l" x="603" y="0" flags="0x1004"/>
    </TTGlyph>
    <TTGlyph name="florin" xMin="-39" yMin="-240" xMax="520" yMax="1388">
      <contour>
        <pt x="208" y="150" on="1"/>
        <pt x="198" y="234" on="0"/>
        <pt x="182" y="366" on="0"/>
        <pt x="169" y="472" on="0"/>
        <pt x="158" y="558" on="0"/>
        <pt x="154" y="597" on="1"/>
        <pt x="149" y="640" on="0"/>
        <pt x="139" y="715" on="0"/>
        <pt x="129" y="789" on="0"/>
        <pt x="119" y="864" on="0"/>
        <pt x="113" y="907" on="1"/>
        <pt x="84" y="909" on="0"/>
        <pt x="48" y="912" on="0"/>
        <pt x="37" y="914" on="1"/>
        <pt x="25" y="916" on="0"/>
        <pt x="18" y="918" on="1"/>
        <pt x="11" y="978" on="1"/>
        <pt x="105" y="978" on="1"/>
        <pt x="92" y="1084" on="0"/>
        <pt x="102" y="1239" on="0"/>
        <pt x="143" y="1340" on="0"/>
        <pt x="214" y="1388" on="0"/>
        <pt x="263" y="1388" on="1"/>
        <pt x="311" y="1388" on="0"/>
        <pt x="427" y="1349" on="0"/>
        <pt x="497" y="1304" on="1"/>
        <pt x="395" y="1089" on="1"/>
        <pt x="392" y="1091" on="1"/>
        <pt x="396" y="1107" on="0"/>
        <pt x="393" y="1134" on="1"/>
        <pt x="389" y="1166" on="0"/>
        <pt x="367" y="1219" on="0"/>
        <pt x="337" y="1258" on="0"/>
        <pt x="302" y="1279" on="0"/>
        <pt x="286" y="1279" on="1"/>
        <pt x="271" y="1279" on="0"/>
        <pt x="247" y="1259" on="0"/>
        <pt x="233" y="1196" on="0"/>
        <pt x="235" y="1077" on="0"/>
        <pt x="247" y="978" on="1"/>
        <pt x="318" y="978" on="1"/>
        <pt x="373" y="978" on="0"/>
        <pt x="450" y="981" on="0"/>
        <pt x="474" y="983" on="1"/>
        <pt x="502" y="985" on="0"/>
        <pt x="520" y="988" on="1"/>
        <pt x="472" y="878" on="1"/>
        <pt x="460" y="884" on="0"/>
        <pt x="441" y="889" on="1"/>
        <pt x="424" y="894" on="0"/>
        <pt x="368" y="901" on="0"/>
        <pt x="326" y="901" on="1"/>
        <pt x="255" y="901" on="1"/>
        <pt x="265" y="810" on="0"/>
        <pt x="291" y="579" on="0"/>
        <pt x="309" y="427" on="1"/>
        <pt x="313" y="393" on="0"/>
        <pt x="325" y="298" on="0"/>
        <pt x="330" y="254" on="1"/>
        <pt x="336" y="203" on="0"/>
        <pt x="343" y="149" on="1"/>
        <pt x="355" y="48" on="0"/>
        <pt x="340" y="-99" on="0"/>
        <pt x="292" y="-194" on="0"/>
        <pt x="215" y="-240" on="0"/>
        <pt x="166" y="-240" on="1"/>
        <pt x="120" y="-240" on="0"/>
        <pt x="26" y="-211" on="0"/>
        <pt x="-39" y="-176" on="1"/>
        <pt x="62" y="39" on="1"/>
        <pt x="65" y="37" on="1"/>
        <pt x="61" y="21" on="0"/>
        <pt x="64" y="-6" on="1"/>
        <pt x="67" y="-31" on="0"/>
        <pt x="86" y="-73" on="0"/>
        <pt x="113" y="-104" on="0"/>
        <pt x="144" y="-121" on="0"/>
        <pt x="158" y="-121" on="1"/>
        <pt x="173" y="-121" on="0"/>
        <pt x="200" y="-103" on="0"/>
        <pt x="216" y="-46" on="0"/>
        <pt x="218" y="61" on="0"/>
      </contour>
    </TTGlyph>
    <TTGlyph name="four" xMin="-4" yMin="0" xMax="777" yMax="1347">
      <contour>
        <pt x="590" y="426" on="1"/>
        <pt x="629" y="426" on="0"/>
        <pt x="692" y="450" on="0"/>
        <pt x="738" y="489" on="0"/>
        <pt x="767" y="540" on="0"/>
        <pt x="772" y="566" on="1"/>
        <pt x="777" y="566" on="1"/>
        <pt x="777" y="319" on="1"/>
        <pt x="591" y="319" on="1"/>
        <pt x="593" y="276" on="0"/>
        <pt x="596" y="191" on="0"/>
        <pt x="598" y="149" on="1"/>
        <pt x="603" y="95" on="0"/>
        <pt x="651" y="22" on="0"/>
        <pt x="701" y="5" on="1"/>
        <pt x="701" y="0" on="1"/>
        <pt x="340" y="0" on="1"/>
        <pt x="340" y="5" on="1"/>
        <pt x="391" y="22" on="0"/>
        <pt x="436" y="100" on="0"/>
        <pt x="439" y="153" on="1"/>
        <pt x="441" y="197" on="0"/>
        <pt x="444" y="279" on="0"/>
        <pt x="446" y="319" on="1"/>
        <pt x="163" y="319" on="1"/>
        <pt x="98" y="319" on="0"/>
        <pt x="41" y="320" on="1"/>
        <pt x="-4" y="446" on="1"/>
        <pt x="22" y="476" on="0"/>
        <pt x="87" y="580" on="0"/>
        <pt x="158" y="709" on="0"/>
        <pt x="231" y="853" on="0"/>
        <pt x="266" y="924" on="1"/>
        <pt x="347" y="1089" on="0"/>
        <pt x="433" y="1280" on="1"/>
        <pt x="601" y="1347" on="1"/>
        <pt x="590" y="1204" on="0"/>
        <pt x="589" y="870" on="0"/>
        <pt x="589" y="684" on="1"/>
        <pt x="589" y="618" on="0"/>
        <pt x="589" y="490" on="0"/>
      </contour>
      <contour>
        <pt x="140" y="426" on="1"/>
        <pt x="450" y="426" on="1"/>
        <pt x="452" y="504" on="0"/>
        <pt x="455" y="649" on="0"/>
        <pt x="455" y="721" on="1"/>
        <pt x="455" y="1055" on="1"/>
        <pt x="423" y="987" on="0"/>
        <pt x="350" y="833" on="0"/>
        <pt x="269" y="671" on="0"/>
        <pt x="184" y="506" on="0"/>
      </contour>
    </TTGlyph>
    <TTGlyph name="foursuperior" xMin="6" yMin="384" xMax="567" yMax="1347">
      <contour>
        <pt x="432" y="685" on="1"/>
        <pt x="460" y="685" on="0"/>
        <pt x="506" y="702" on="0"/>
        <pt x="539" y="731" on="0"/>
        <pt x="559" y="767" on="0"/>
        <pt x="563" y="786" on="1"/>
        <pt x="567" y="786" on="1"/>
        <pt x="567" y="609" on="1"/>
        <pt x="434" y="609" on="1"/>
        <pt x="435" y="577" on="0"/>
        <pt x="436" y="522" on="0"/>
        <pt x="438" y="491" on="1"/>
        <pt x="442" y="453" on="0"/>
        <pt x="477" y="400" on="0"/>
        <pt x="512" y="388" on="1"/>
        <pt x="512" y="384" on="1"/>
        <pt x="253" y="384" on="1"/>
        <pt x="253" y="388" on="1"/>
        <pt x="289" y="400" on="0"/>
        <pt x="322" y="457" on="0"/>
        <pt x="324" y="495" on="1"/>
        <pt x="326" y="526" on="0"/>
        <pt x="328" y="580" on="0"/>
        <pt x="329" y="609" on="1"/>
        <pt x="38" y="609" on="1"/>
        <pt x="6" y="699" on="1"/>
        <pt x="24" y="721" on="0"/>
        <pt x="71" y="796" on="0"/>
        <pt x="122" y="889" on="0"/>
        <pt x="175" y="992" on="0"/>
        <pt x="200" y="1043" on="1"/>
        <pt x="258" y="1162" on="0"/>
        <pt x="320" y="1298" on="1"/>
        <pt x="441" y="1347" on="1"/>
        <pt x="433" y="1244" on="0"/>
        <pt x="431" y="1005" on="0"/>
        <pt x="431" y="871" on="1"/>
        <pt x="431" y="823" on="0"/>
        <pt x="431" y="732" on="0"/>
      </contour>
      <contour>
        <pt x="109" y="685" on="1"/>
        <pt x="332" y="685" on="1"/>
        <pt x="335" y="797" on="0"/>
        <pt x="335" y="897" on="1"/>
        <pt x="335" y="1137" on="1"/>
        <pt x="312" y="1088" on="0"/>
        <pt x="260" y="977" on="0"/>
        <pt x="203" y="861" on="0"/>
        <pt x="141" y="742" on="0"/>
      </contour>
    </TTGlyph>
    <TTGlyph name="fraction" xMin="-4" yMin="223" xMax="760" yMax="1152">
      <contour>
        <pt x="629" y="1151" on="1"/>
        <pt x="760" y="1152" on="1"/>
        <pt x="127" y="224" on="1"/>
        <pt x="-4" y="223" on="1"/>
      </contour>
    </TTGlyph>
</ttFont>
